<svg viewBox="0 0 800 800" xmlns="http://www.w3.org/2000/svg"><path d="M169.1216507037492,519.9308544139528 L161.7656673453464,516.2790687011695 M161.7656673453464,516.2790687011695 L154.58610213675362,512.5147324355405 M154.58610213675362,512.5147324355405 L147.5882407516438,508.6406632554735 M169.1216507037492,519.9308544139528 L169.6125788570319,595.377464078337 M148.12470021378147,584.0636530200385 L155.10777731604068,587.94583047264 M155.10777731604068,587.94583047264 L162.2721616819234,591.7180419029664 M162.2721616819234,591.7180419029664 L169.6125788570319,595.377464078337 M147.5882407516438,508.6406632554735 L148.12470021378147,584.0636530200385 M169.1216507037492,519.9308544139528 L168.40687880341136,517.7557518159738 M168.40687880341136,517.7557518159738 L168.02113700632574,515.551964548614 M168.02113700632574,515.551964548614 L167.96718099703727,513.3361881303052 M167.96718099703727,513.3361881303052 L166.30620865299932,513.7323259602531 M166.30620865299932,513.7323259602531 L164.673865445962,514.1672730045428 M164.673865445962,514.1672730045428 L163.07283145219296,514.6403272744321 M163.07283145219296,514.6403272744321 L163.10403019149084,512.9679701368403 M163.10403019149084,512.9679701368403 L163.305368110265,511.29914148137715 M163.305368110265,511.29914148137715 L163.67607837056377,509.63966747751385 M163.67607837056377,509.63966747751385 L160.59837421408892,507.9935133746429 M160.59837421408892,507.9935133746429 L157.55571269179393,506.3262910443879 M157.55571269179393,506.3262910443879 L154.54851574498008,504.63825827487545 M147.5882407516438,508.6406632554735 L154.54851574498008,504.63825827487545 M169.6125788570319,595.377464078337 L168.89926963530482,593.1978133805623 M168.89926963530482,593.1978133805623 L168.51428862679214,590.9894168793622 M168.51428862679214,590.9894168793622 L168.46038636419857,588.7690049798397 M168.46038636419857,588.7690049798397 L167.96718099703727,513.3361881303052 M168.46038636419857,588.7690049798397 L166.80296192347745,589.1659716301527 M166.80296192347745,589.1659716301527 L165.17410689720606,589.6018286502219 M165.17410689720606,589.6018286502219 L163.57649565266576,590.075872570632 M163.57649565266576,590.075872570632 L163.6075808209583,588.4000165476734 M163.6075808209583,588.4000165476734 L163.8084430258884,586.7276957217725 M163.8084430258884,586.7276957217725 L164.1783173271372,585.0647484618815 M155.07004094719375,580.0528673922942 L158.07088614671196,581.7444352059711 M158.07088614671196,581.7444352059711 L161.10711862294266,583.4151483301035 M161.10711862294266,583.4151483301035 L164.1783173271372,585.0647484618815 M148.12470021378147,584.0636530200385 L155.07004094719375,580.0528673922942 M154.54851574498008,504.63825827487545 L155.07004094719375,580.0528673922942 M163.57649565266576,590.075872570632 L163.07283145219296,514.6403272744321 M163.67607837056377,509.63966747751385 L164.1783173271372,585.0647484618815 M426.293208879294,567.6264921798611 L401.9802927669624,568.1950764165957 M401.9802927669624,568.1950764165957 L377.6561997866947,567.8135696039601 M377.6561997866947,567.8135696039601 L353.4343979794301,566.4838070067968 M353.4343979794301,566.4838070067968 L329.4278126954144,564.2122041038608 M329.4278126954144,564.2122041038608 L305.7483163929894,561.0097006738405 M305.7483163929894,561.0097006738405 L282.5060499073368,556.8917211494617 M282.5060499073368,556.8917211494617 L259.8089204713241,551.8780900773467 M259.8089204713241,551.8780900773467 L237.76213986144225,545.9928533600726 M237.76213986144225,545.9928533600726 L216.46747217714432,539.2642590548537 M426.293208879294,567.6264921798611 L426.23615952864833,643.1725478814085 M216.85796638699546,614.7512447486085 L238.10735296385096,621.4938701144229 M238.10735296385096,621.4938701144229 L260.10719917974706,627.3913703640096 M260.10719917974706,627.3913703640096 L282.75596283226344,632.4154421953925 M282.75596283226344,632.4154421953925 L305.94866242024574,636.5419928071151 M305.94866242024574,636.5419928071151 L329.5776276182995,639.7511590635534 M329.5776276182995,639.7511590635534 L353.5329599889796,642.027486560929 M353.5329599889796,642.027486560929 L377.7030337182859,643.3600142923676 M377.7030337182859,643.3600142923676 L401.97517271435686,643.7423143395761 M401.97517271435686,643.7423143395761 L426.23615952864833,643.1725478814085 M216.46747217714432,539.2642590548537 L216.85796638699546,614.7512447486085 M425.4310552046712,561.9509097189055 L400.7971789793213,562.5013895164209 M400.7971789793213,562.5013895164209 L376.1571415385298,562.0495539307118 M376.1571415385298,562.0495539307118 L351.6355634326375,560.5977820077288 M351.6355634326375,560.5977820077288 L327.35635968967483,558.153624145139 M327.35635968967483,558.153624145139 L303.4421234588218,554.7298589783027 M303.4421234588218,554.7298589783027 L280.01343513195513,550.3443270960416 M280.01343513195513,550.3443270960416 L257.18812460297676,545.0198799138834 M257.18812460297676,545.0198799138834 L235.08077993387315,538.7841986567828 M235.08077993387315,538.7841986567828 L232.4993601546377,539.5442094819596 M232.4993601546377,539.5442094819596 L229.84581328379076,540.214707308862 M229.84581328379076,540.214707308862 L227.1294223477447,540.7933387109429 M227.1294223477447,540.7933387109429 L227.36076364252187,539.7594655775399 M227.36076364252187,539.7594655775399 L227.5194206934306,538.7213378417346 M227.5194206934306,538.7213378417346 L227.60513227239832,537.6806766546998 M227.60513227239832,537.6806766546998 L223.9748053505312,538.3953083299127 M223.9748053505312,538.3953083299127 L220.25282929482938,538.9245195660501 M220.25282929482938,538.9245195660501 L216.46747217714432,539.2642590548537 M425.4310552046712,561.9509097189055 L426.293208879294,567.6264921798611 M425.3758647934642,637.4851602976139 L426.23615952864833,643.1725478814085 M425.4310552046712,561.9509097189055 L425.3758647934642,637.4851602976139 M235.43157186281272,614.2701828719324 L257.49187971405166,620.5188684080639 M257.49187971405166,620.5188684080639 L280.2685754948791,625.8544121584572 M280.2685754948791,625.8544121584572 L303.64732146629734,630.2490787390443 M303.64732146629734,630.2490787390443 L327.5105459941326,633.679972124239 M327.5105459941326,633.679972124239 L351.7379336577126,636.1292169637173 M351.7379336577126,636.1292169637173 L376.20716121954456,637.584009753678 M376.20716121954456,637.584009753678 L400.7945868191649,638.0367854221493 M400.7945868191649,638.0367854221493 L425.3758647934642,637.4851602976139 M235.43157186281272,614.2701828719324 L232.85567194576663,615.0317791691875 M232.85567194576663,615.0317791691875 L230.20779741394603,615.7036756187229 M230.20779741394603,615.7036756187229 L227.49721138002113,616.2835139284821 M227.49721138002113,616.2835139284821 L227.7280380776396,615.2474842892069 M227.7280380776396,615.2474842892069 L227.88633549559677,614.2071909156314 M227.88633549559677,614.2071909156314 L227.97184297137932,613.1643585468922 M227.97184297137932,613.1643585468922 L224.34927199063023,613.8804812205739 M224.34927199063023,613.8804812205739 L220.63524397170855,614.4107965175472 M220.63524397170855,614.4107965175472 L216.85796638699546,614.7512447486085 M227.97184297137932,613.1643585468922 L227.60513227239832,537.6806766546998 M235.08077993387315,538.7841986567828 L235.43157186281272,614.2701828719324 M227.49721138002113,616.2835139284821 L227.1294223477447,540.7933387109429" stroke="black"  stroke-width="4"  fill="red"/>
<path d="M147.70200674687464,500.6380164230147 L130.92653853868546,489.7984309596169 M130.92653853868546,489.7984309596169 L115.56810158430358,478.29692645866146 M115.56810158430358,478.29692645866146 L101.70484219323191,466.1953280953444 M101.70484219323191,466.1953280953444 L89.40653179468927,453.5584556548282 M89.40653179468927,453.5584556548282 L78.73436754839486,440.4537034723721 M78.73436754839486,440.4537034723721 L69.7405341633663,426.95069205839724 M69.7405341633663,426.95069205839724 L62.46823806112815,413.12078028184203 M62.46823806112815,413.12078028184203 L56.95131352983225,399.0367875318391 M56.95131352983225,399.0367875318391 L53.21423010823844,384.7724933616355 M53.21423010823844,384.7724933616355 L50.702933002133534,383.9973680902187 M50.702933002133534,383.9973680902187 L48.27739448194211,383.1378250934247 M48.27739448194211,383.1378250934247 L45.94608960578074,382.19687721983667 M45.94608960578074,382.19687721983667 L47.52677608264622,381.71780019511027 M47.52677608264622,381.71780019511027 L49.07288690736095,381.2022995642998 M49.07288690736095,381.2022995642998 L50.58186209116462,380.6512396302967 M50.58186209116462,380.6512396302967 L47.548365982314635,379.36069811373386 M47.548365982314635,379.36069811373386 L44.72459933679079,377.9223276657549 M44.72459933679079,377.9223276657549 L42.13187853186855,376.34706231199544 M42.13187853186855,376.34706231199544 L44.69101683048592,390.5317305716531 M44.69101683048592,390.5317305716531 L48.95496589133592,404.591754145208 M48.95496589133592,404.591754145208 L54.90724169141998,418.4591281473346 M54.90724169141998,418.4591281473346 L62.52310962109311,432.06643065205856 M62.52310962109311,432.06643065205856 L71.76952686232221,445.3472333954257 M71.76952686232221,445.3472333954257 L82.60530372548254,458.2363991204949 M82.60530372548254,458.2363991204949 L94.98122021064955,470.67044622793145 M94.98122021064955,470.67044622793145 L108.84024923628652,482.5878531658914 M108.84024923628652,482.5878531658914 L124.1177476835901,493.92943454100197 M124.1177476835901,493.92943454100197 L140.74175715522063,504.6386245901883 M147.70200674687464,500.6380164230147 L140.74175715522063,504.6386245901883 M147.70200674687464,500.6380164230147 L148.2379837936649,576.0442455914056 M53.946484475672264,459.93433823208096 L57.67624985119505,474.22889219580117 M57.67624985119505,474.22889219580117 L63.182067592852945,488.3427144690093 M63.182067592852945,488.3427144690093 L70.43950850894248,502.2018714283521 M70.43950850894248,502.2018714283521 L79.41479926142762,515.733392578551 M79.41479926142762,515.733392578551 L90.06481522789818,528.8657718960827 M90.06481522789818,528.8657718960827 L102.33747371397095,541.5292461665387 M102.33747371397095,541.5292461665387 L116.17170004807252,553.6562837267236 M116.17170004807252,553.6562837267236 L131.49786498477738,565.1819334560499 M131.49786498477738,565.1819334560499 L148.2379837936649,576.0442455914056 M53.21423010823844,384.7724933616355 L53.946484475672264,459.93433823208096 M53.946484475672264,459.93433823208096 L51.44046424257351,459.1575672407831 M51.44046424257351,459.1575672407831 L49.020017311646995,458.29619912306975 M49.020017311646995,458.29619912306975 L46.69360090672234,457.35325307377474 M46.69360090672234,457.35325307377474 L45.94608960578074,382.19687721983667 M51.31951009696428,455.8043327430753 L50.58186209116462,380.6512396302967 M46.69360090672234,457.35325307377474 L48.27092605802363,456.87315861044897 M48.27092605802363,456.87315861044897 L49.813747297526334,456.3565631251362 M49.813747297526334,456.3565631251362 L51.31951009696428,455.8043327430753 M51.31951009696428,455.8043327430753 L48.292371429733805,454.5110498394719 M48.292371429733805,454.5110498394719 L45.474511821778265,453.0696235143006 M45.474511821778265,453.0696235143006 L42.8872030315174,451.491010876309 M42.13187853186855,376.34706231199544 L42.8872030315174,451.491010876309 M140.74175715522063,504.6386245901883 L141.29266830008703,580.0532344748111 M42.8872030315174,451.491010876309 L45.44153360894853,465.70579875654664 M45.44153360894853,465.70579875654664 L49.69705291397122,479.7956297516273 M49.69705291397122,479.7956297516273 L55.63730066518252,493.6923564044937 M55.63730066518252,493.6923564044937 L63.237584014647496,507.3284163299454 M63.237584014647496,507.3284163299454 L72.464920258208,520.6372437371365 M72.464920258208,520.6372437371365 L83.27819802239952,533.5535673378765 M83.27819802239952,533.5535673378765 L95.62829375577917,546.0137756874951 M95.62829375577917,546.0137756874951 L109.45829463789386,557.956222124087 M109.45829463789386,557.956222124087 L124.70368935056626,569.3216015675987 M124.70368935056626,569.3216015675987 L141.29266830008703,580.0532344748111 M148.2379837936649,576.0442455914056 L141.29266830008703,580.0532344748111 M42.79996702207103,343.278626838224 L45.45084283969214,341.70952357570474 M45.45084283969214,341.70952357570474 L48.32587921244499,340.2772671761589 M48.32587921244499,340.2772671761589 L51.40340432871295,338.9926071824121 M51.40340432871295,338.9926071824121 L49.919731551342636,338.4441726777384 M49.919731551342636,338.4441726777384 L48.39779025699096,337.93118981976613 M48.39779025699096,337.93118981976613 L46.8400879096838,337.45450618306927 M46.8400879096838,337.45450618306927 L49.20270805576865,336.51840915733914 M49.20270805576865,336.51840915733914 L51.65560611084322,335.66347107016463 M51.65560611084322,335.66347107016463 L54.19025481326793,334.8926406439778 M54.19025481326793,334.8926406439778 L58.46580273422899,320.7314143343265 M58.46580273422899,320.7314143343265 L64.4899690018446,306.7937656970015 M64.4899690018446,306.7937656970015 L72.22782618625126,293.15045781869827 M72.22782618625126,293.15045781869827 L81.63593968913801,279.8704631246094 M81.63593968913801,279.8704631246094 L92.66256282577672,267.0205437984338 M92.66256282577672,267.0205437984338 L105.24820011122029,254.66506660867435 M105.24820011122029,254.66506660867435 L119.32572928529885,242.86562480731772 M119.32572928529885,242.86562480731772 L134.8209584320174,231.6808083962151 M134.8209584320174,231.6808083962151 L151.6529192661658,221.1659134022832 M144.91531362580776,217.29155119704097 L151.6529192661658,221.1659134022832 M144.91531362580776,217.29155119704097 L128.23585832073934,227.67054923616035 M128.23585832073934,227.67054923616035 L112.82426903138912,238.68948888108423 M112.82426903138912,238.68948888108423 L98.75506789353426,250.29796610656402 M98.75506789353426,250.29796610656402 L86.09691339557656,262.4426943886061 M86.09691339557656,262.4426943886061 L74.91222449758004,275.067676703459 M74.91222449758004,275.067676703459 L65.25688467349426,288.1144752696223 M65.25688467349426,288.1144752696223 L57.179893053559226,301.5224205090786 M57.179893053559226,301.5224205090786 L50.723097735963165,315.2288900944798 M50.723097735963165,315.2288900944798 L45.92086846203409,329.16953420298887 M45.92086846203409,329.16953420298887 L42.79996702207103,343.278626838224 M43.55247367872511,418.35217110956955 L46.19769219673731,416.7797206456244 M46.19769219673731,416.7797206456244 L49.06660528744783,415.34440845103785 M49.06660528744783,415.34440845103785 L52.13758725727081,414.0570071492694 M52.13758725727081,414.0570071492694 L51.40340432871295,338.9926071824121 M42.79996702207103,343.278626838224 L43.55247367872511,418.35217110956955 M47.58382852946869,412.51562351000996 L46.8400879096838,337.45450618306927 M52.13758725727081,414.0570071492694 L50.65702014423931,413.5074022318082 M50.65702014423931,413.5074022318082 L49.13826649328104,412.99332455315607 M49.13826649328104,412.99332455315607 L47.58382852946869,412.51562351000996 M47.58382852946869,412.51562351000996 L49.941428123109915,411.5775283737297 M49.941428123109915,411.5775283737297 L52.38911919209812,410.72076522748375 M52.38911919209812,410.72076522748375 L54.918392529279515,409.94828913909504 M54.19025481326793,334.8926406439778 L54.918392529279515,409.94828913909504 M152.17223125376702,295.977205776278 L135.37585825661574,306.5148232349208 M135.37585825661574,306.5148232349208 L119.91347825695465,317.7237807466065 M119.91347825695465,317.7237807466065 L105.86588604663564,329.5486577841415 M105.86588604663564,329.5486577841415 L93.30711270312679,341.9307330957005 M93.30711270312679,341.9307330957005 L82.30413300005847,354.8082761825394 M82.30413300005847,354.8082761825394 L72.91630956787628,368.1167776470244 M72.91630956787628,368.1167776470244 L65.19527126988555,381.78932821741023 M65.19527126988555,381.78932821741023 L59.184351264171084,395.75680441879166 M59.184351264171084,395.75680441879166 L54.918392529279515,409.94828913909504 M151.6529192661658,221.1659134022832 L152.17223125376702,295.977205776278 M145.44862053049303,292.09446448387126 L152.17223125376702,295.977205776278 M144.91531362580776,217.29155119704097 L145.44862053049303,292.09446448387126 M145.44862053049303,292.09446448387126 L128.80442978198164,302.49590111221227 M128.80442978198164,302.49590111221227 L113.42550997563535,313.5386346292148 M113.42550997563535,313.5386346292148 L99.3862236184915,325.17214731206633 M99.3862236184915,325.17214731206633 L86.75508045212803,337.34303303091957 M86.75508045212803,337.34303303091957 L75.59436242580307,349.99516972922896 M75.59436242580307,349.99516972922896 L65.95982845476402,363.0699898520297 M65.95982845476402,363.0699898520297 L57.900366412534595,376.5066898547733 M57.900366412534595,376.5066898547733 L51.457727145775266,390.24250993913574 M51.457727145775266,390.24250993913574 L46.666197999236715,404.21295986871417 M46.666197999236715,404.21295986871417 L43.55247367872511,418.35217110956955" stroke="black"  stroke-width="4"  fill="red"/>
<path d="M158.49944237103253,217.2919057946764 L175.8704471078595,208.35065156625444 M175.8704471078595,208.35065156625444 L194.23282714148004,200.10082795364912 M194.23282714148004,200.10082795364912 L213.50397579088448,192.57801067995953 M213.50397579088448,192.57801067995953 L233.59753873661722,185.8145070587649 M233.59753873661722,185.8145070587649 L254.42381369778923,179.83927218049203 M254.42381369778923,179.83927218049203 L275.8902499106769,174.6778774908452 M275.8902499106769,174.6778774908452 L297.90167966722976,170.35234451682024 M297.90167966722976,170.35234451682024 L298.7869585866199,168.82310534796392 M298.7869585866199,168.82310534796392 L299.829064542984,167.3262109564315 M299.829064542984,167.3262109564315 L301.02434288380886,165.86685916442832 M301.02434288380886,165.86685916442832 L302.09905086392166,166.65476370588487 M302.09905086392166,166.65476370588487 L303.22959372375465,167.41707411354676 M303.22959372375465,167.41707411354676 L304.4140300165054,168.15252749873287 M304.4140300165054,168.15252749873287 L306.0811327309357,166.24131024522075 M306.0811327309357,166.24131024522075 L308.0330356078066,164.41952173782698 M308.0330356078066,164.41952173782698 L310.2549387061559,162.70090824476415 M310.2549387061559,162.70090824476415 L288.2781985352573,166.38802511778027 M288.2781985352573,166.38802511778027 L266.75089632149906,170.87567015250195 M266.75089632149906,170.87567015250195 L245.76037332769002,176.14634765927403 M245.76037332769002,176.14634765927403 L225.39200875501623,182.17943498090222 M225.39200875501623,182.17943498090222 L205.72892255080234,188.95129025954986 M205.72892255080234,188.95129025954986 L186.85163614188042,196.4353185547659 M186.85163614188042,196.4353185547659 L168.83779346635126,204.60205557874716 M168.83779346635126,204.60205557874716 L151.76181253801454,213.4192548814556 M158.49944237103253,217.2919057946764 L151.76181253801454,213.4192548814556 M158.49944237103253,217.2919057946764 L159.0043023953025,292.09481984855967 M298.11404484359616,245.05345684685886 L276.14865044329065,249.38839302633804 M276.14865044329065,249.38839302633804 L254.7271479445221,254.56100212664188 M254.7271479445221,254.56100212664188 L233.94451109293308,260.549211720401 M233.94451109293308,260.549211720401 L213.89310123687434,267.3273914031274 M213.89310123687434,267.3273914031274 L194.66243617534025,274.8665195018833 M194.66243617534025,274.8665195018833 L176.33869164085326,283.1342146458022 M176.33869164085326,283.1342146458022 L159.0043023953025,292.09481984855967 M297.90167966722976,170.35234451682024 L298.11404484359616,245.05345684685886 M298.11404484359616,245.05345684685886 L298.9974564577275,243.52089221829505 M298.9974564577275,243.52089221829505 L300.0373683348833,242.02074216131217 M300.0373683348833,242.02074216131217 L301.2301335863989,240.558215840623 M301.2301335863989,240.558215840623 L301.02434288380886,165.86685916442832 M304.6127689851411,242.8488559643376 L304.4140300165054,168.15252749873287 M301.2301335863989,240.558215840623 L302.3026067328729,241.34783437454698 M302.3026067328729,241.34783437454698 L303.4307976696981,242.11180295623888 M303.4307976696981,242.11180295623888 L304.6127689851411,242.8488559643376 M304.6127689851411,242.8488559643376 L306.276369039608,240.93348151366445 M306.276369039608,240.93348151366445 L308.2241763818083,239.10772951663998 M308.2241763818083,239.10772951663998 L310.4414222368738,237.38537627358642 M310.2549387061559,162.70090824476415 L310.4414222368738,237.38537627358642 M151.76181253801454,213.4192548814556 L152.28066763103806,288.2137899585656 M310.4414222368738,237.38537627358642 L288.5106100748686,241.0805155450597 M288.5106100748686,241.0805155450597 L267.02832920808083,245.57792036975607 M267.02832920808083,245.57792036975607 L246.08174354360065,250.86005445967396 M246.08174354360065,250.86005445967396 L225.7560582818501,256.9062474101852 M225.7560582818501,256.9062474101852 L206.13422325098279,263.69280275858216 M206.13422325098279,263.69280275858216 L187.29659426749137,271.1930643096605 M187.29659426749137,271.1930643096605 L169.3206546840404,279.37750012240156 M169.3206546840404,279.37750012240156 L152.28066763103806,288.2137899585656 M159.0043023953025,292.09481984855967 L152.28066763103806,288.2137899585656 M366.27968641921746,157.0877838876961 L369.3899403753019,158.27165051024525 M369.3899403753019,158.27165051024525 L372.30765273778394,159.60488388269454 M372.30765273778394,159.60488388269454 L375.01081342278763,161.0774669652553 M375.01081342278763,161.0774669652553 L375.68629790898433,160.15597346781288 M375.68629790898433,160.15597346781288 L376.2950954617686,159.21973114120476 M376.2950954617686,159.21973114120476 L376.8362578343158,158.2703003549903 M376.8362578343158,158.2703003549903 L378.82714540104723,159.40977351840954 M378.82714540104723,159.40977351840954 L380.6964076563293,160.61426392669193 M380.6964076563293,160.61426392669193 L382.4375102641861,161.8795847992021 M382.4375102641861,161.8795847992021 L405.5180111823076,161.66607199150914 M405.5180111823076,161.66607199150914 L428.57280477386075,162.33123376781782 M428.57280477386075,162.33123376781782 L451.50190926858903,163.87228972629185 M451.50190926858903,163.87228972629185 L474.20591906527994,166.28278470948175 M474.20591906527994,166.28278470948175 L496.5862148856466,169.55263756437338 M496.5862148856466,169.55263756437338 L518.5455059510273,173.6681219902432 M518.5455059510273,173.6681219902432 L539.9880734771309,178.61197806505683 M539.9880734771309,178.61197806505683 L560.8203095324982,184.36339030517271 M560.8203095324982,184.36339030517271 L563.3366869197755,183.63331351162734 M563.3366869197755,183.63331351162734 L565.9249746661171,182.98932629307893 M565.9249746661171,182.98932629307893 L568.5761811629677,182.43365019152574 M568.5761811629677,182.43365019152574 L568.3688305385126,183.42655792423085 M568.3688305385126,183.42655792423085 L568.2327538886273,184.42378077444167 M568.2327538886273,184.42378077444167 L568.1681995320876,185.4236677386573 M568.1681995320876,185.4236677386573 L571.713257666635,184.73701127244178 M571.713257666635,184.73701127244178 L575.3511948093399,184.2285868571019 M575.3511948093399,184.2285868571019 L579.0545941769687,183.90222340442034 M579.0545941769687,183.90222340442034 L557.3435686561049,177.2394641341284 M557.3435686561049,177.2394641341284 L534.8963286169094,171.4512260047572 M534.8963286169094,171.4512260047572 L511.81831665186934,166.56359999179767 M511.81831665186934,166.56359999179767 L488.21751471013727,162.59861942973285 M488.21751471013727,162.59861942973285 L464.2041675973108,159.57409716508647 M464.2041675973108,159.57409716508647 L439.8901861180678,157.50363664934343 M439.8901861180678,157.50363664934343 L415.3887561111233,156.3965006290565 M415.3887561111233,156.3965006290565 L390.81383661894364,156.2576856604239 M390.81383661894364,156.2576856604239 L366.27968641921746,157.0877838876961 M366.3491892515212,231.76003267839755 L369.452956518371,232.9464770936796 M369.452956518371,232.9464770936796 L372.36458367879766,234.28261309358305 M372.36458367879766,234.28261309358305 L375.0621065000198,235.75840169200822 M375.0621065000198,235.75840169200822 L375.01081342278763,161.0774669652553 M366.27968641921746,157.0877838876961 L366.3491892515212,231.76003267839755 M376.88373281883554,232.94512399874037 L376.8362578343158,158.2703003549903 M375.0621065000198,235.75840169200822 L375.73617833701087,234.8349023501755 M375.73617833701087,234.8349023501755 L376.3437025374925,233.89662186674434 M376.3437025374925,233.89662186674434 L376.88373281883554,232.94512399874037 M376.88373281883554,232.94512399874037 L378.870468037816,234.0870779745063 M378.870468037816,234.0870779745063 L380.7358314272592,235.29419040997402 M380.7358314272592,235.29419040997402 L382.47330229213685,236.5622653560348 M382.4375102641861,161.8795847992021 L382.47330229213685,236.5622653560348 M560.4832913401565,259.09494477571195 L539.6946951209131,253.33104198813226 M539.6946951209131,253.33104198813226 L518.2970023004193,248.376442835504 M518.2970023004193,248.376442835504 L496.3836301879061,244.25201093394477 M496.3836301879061,244.25201093394477 L474.05010329265554,240.9750462006694 M474.05010329265554,240.9750462006694 L451.39351546339554,238.55930678999923 M451.39351546339554,238.55930678999923 L428.5122867656146,237.01489728245926 M428.5122867656146,237.01489728245926 L405.5056222911282,236.34828784727134 M405.5056222911282,236.34828784727134 L382.47330229213685,236.5622653560348 M560.8203095324982,184.36339030517271 L560.4832913401565,259.09494477571195 M560.4832913401565,259.09494477571195 L562.994423238094,258.36328288710115 M562.994423238094,258.36328288710115 L565.5773139315606,257.71789737963695 M565.5773139315606,257.71789737963695 L568.2229904963531,257.1610146592325 M568.2229904963531,257.1610146592325 L568.5761811629677,182.43365019152574 M567.815801458047,260.15752398711993 L568.1681995320876,185.4236677386573 M568.2229904963531,257.1610146592325 L568.016053254958,258.1560783822889 M568.016053254958,258.1560783822889 L567.8802409729635,259.15546635511095 M567.8802409729635,259.15546635511095 L567.815801458047,260.15752398711993 M567.815801458047,260.15752398711993 L571.3534633423333,259.4693768750729 M571.3534633423333,259.4693768750729 L574.9838069487967,258.9598486608014 M574.9838069487967,258.9598486608014 L578.6794725024567,258.63277663433905 M579.0545941769687,183.90222340442034 L578.6794725024567,258.63277663433905 M578.6794725024567,258.63277663433905 L557.01395150496,251.95554614932803 M557.01395150496,251.95554614932803 L534.6137050317795,246.15472759970842 M534.6137050317795,246.15472759970842 L511.58396064926075,241.25647235226273 M511.58396064926075,241.25647235226273 L488.0324809791891,237.2828648530002 M488.0324809791891,237.2828648530002 L464.0692876265884,234.2517593539706 M464.0692876265884,234.2517593539706 L439.80606540170726,232.1767909706712 M439.80606540170726,232.1767909706712 L415.3557719935765,231.0672440401734 M415.3557719935765,231.0672440401734 L390.8321369993692,230.9281267660073 M390.8321369993692,230.9281267660073 L366.3491892515212,231.76003267839755 M625.943454130485,202.51364641444906 L626.7004057809893,204.61252874227264 M626.7004057809893,204.61252874227264 L627.135118317055,206.74012593552663 M627.135118317055,206.74012593552663 L627.2442276126926,208.8803492279962 M627.2442276126926,208.8803492279962 L628.8667363758705,208.49764140164692 M628.8667363758705,208.49764140164692 L630.4599679862008,208.0774789194815 M630.4599679862008,208.0774789194815 L632.0212902790181,207.62055067845705 M632.0212902790181,207.62055067845705 L632.033855890015,209.23611400716905 M632.033855890015,209.23611400716905 L631.8790631011743,210.84886787371192 M631.8790631011743,210.84886787371192 L631.557422556619,212.45317528250396 M631.557422556619,212.45317528250396 L634.6268654293756,214.0451909987698 M634.6268654293756,214.0451909987698 L637.6635202825107,215.6581766751624 M637.6635202825107,215.6581766751624 L640.6669681694759,217.2919057946765 M647.4045980024939,213.4192548814556 L640.6669681694759,217.2919057946765 M647.4045980024939,213.4192548814556 L640.4188175377617,209.67406311870505 M640.4188175377617,209.67406311870505 L633.2633650303187,206.03804422727626 M633.2633650303187,206.03804422727626 L625.943454130485,202.51364641444906 M625.469825711164,277.28456651901803 L626.2251367277293,279.38799597290654 M626.2251367277293,279.38799597290654 L626.6588818756975,281.5202014252701 M626.6588818756975,281.5202014252701 L626.7677047478421,283.6650592310038 M626.7677047478421,283.6650592310038 L627.2442276126926,208.8803492279962 M625.943454130485,202.51364641444906 L625.469825711164,277.28456651901803 M631.5348033273815,282.4025328030344 L632.0212902790181,207.62055067845705 M626.7677047478421,283.6650592310038 L628.3868278564166,283.28152275644743 M628.3868278564166,283.28152275644743 L629.9767362688494,282.86045048797496 M629.9767362688494,282.86045048797496 L631.5348033273815,282.4025328030344 M631.5348033273815,282.4025328030344 L631.5472978805765,284.0215942892027 M631.5472978805765,284.0215942892027 L631.3927844481836,285.6378396067334 M631.3927844481836,285.6378396067334 L631.0717728574673,287.24561956302324 M631.557422556619,212.45317528250396 L631.0717728574673,287.24561956302324 M640.162108145206,292.0948198485598 L637.1649962173062,290.4575563844413 M637.1649962173062,290.4575563844413 L634.1347450992032,288.841080612166 M634.1347450992032,288.841080612166 L631.0717728574673,287.24561956302324 M640.6669681694759,217.2919057946765 L640.162108145206,292.0948198485598 M646.8857429094705,288.2137899585656 L640.162108145206,292.0948198485598 M647.4045980024939,213.4192548814556 L646.8857429094705,288.2137899585656 M646.8857429094705,288.2137899585656 L639.914695833279,284.4604915783914 M639.914695833279,284.4604915783914 L632.7743225224697,280.816599166246 M632.7743225224697,280.816599166246 L625.469825711164,277.28456651901803" stroke="black"  stroke-width="4"  fill="red"/>
<path d="M647.5134912743426,221.1659134022832 L654.2510969147006,217.29155119704097 M647.5134912743426,221.1659134022832 L664.0181181804946,231.461422819335 M664.0181181804946,231.461422819335 L679.2411333713378,242.40108991451476 M679.2411333713378,242.40108991451476 L693.1062009363491,253.93299615572118 M693.1062009363491,253.93299615572118 L705.5431697338763,266.0021972259261 M705.5431697338763,266.0021972259261 L716.4885002987755,278.5509210497428 M716.4885002987755,278.5509210497428 L725.8854280377354,291.51890675633757 M725.8854280377354,291.51890675633757 L733.6845899048199,304.84353252053535 M733.6845899048199,304.84353252053535 L739.8440366721461,318.46021288854416 M739.8440366721461,318.46021288854416 L744.3296617029346,332.30263509321315 M744.3296617029346,332.30263509321315 L747.1154178058484,346.3030394097317 M747.1154178058484,346.3030394097317 L748.1834904048287,360.39259709372993 M748.1834904048287,360.39259709372993 L747.5244801558331,374.5016956026744 M757.1894458366796,374.98775254199836 L747.5244801558331,374.5016956026744 M757.1894458366796,374.98775254199836 L757.8681214681314,360.4735769338417 M757.8681214681314,360.4735769338417 L756.7685985949167,345.979846014342 M756.7685985949167,345.979846014342 L753.9006397305895,331.5782822212559 M753.9006397305895,331.5782822212559 L749.2827419852401,317.33982031826355 M749.2827419852401,317.33982031826355 L742.9419202344325,303.3342333005719 M742.9419202344325,303.3342333005719 L734.9133990777079,289.6298158176468 M734.9133990777079,289.6298158176468 L725.2405268855839,276.2930794467176 M725.2405268855839,276.2930794467176 L713.9743348822494,263.38848514080684 M713.9743348822494,263.38848514080684 L701.1733586051184,250.978074616955 M701.1733586051184,250.978074616955 L686.9031949926577,239.12127490005125 M686.9031949926577,239.12127490005125 L671.236202808446,227.87463400725593 M671.236202808446,227.87463400725593 L654.2510969147006,217.29155119704097 M646.9941792867414,295.977205776278 L653.7177900100155,292.09446448387126 M654.2510969147006,217.29155119704097 L653.7177900100155,292.09446448387126 M647.5134912743426,221.1659134022832 L646.9941792867414,295.977205776278 M746.7893277124886,449.6417221883972 L747.4475317405054,435.5026105122794 M747.4475317405054,435.5026105122794 L746.3822976116148,421.38303367659313 M746.3822976116148,421.38303367659313 L743.6029933046063,407.3527530887983 M743.6029933046063,407.3527530887983 L739.1273845741746,393.48074561097917 M739.1273845741746,393.48074561097917 L732.9814529359871,379.8349176940292 M732.9814529359871,379.8349176940292 L725.1992230707347,366.48172657998924 M725.1992230707347,366.48172657998924 L715.8225466163046,353.48589927944954 M715.8225466163046,353.48589927944954 L704.9006744661299,340.91019567030764 M704.9006744661299,340.91019567030764 L692.4902446788356,328.815010227568 M692.4902446788356,328.815010227568 L678.6546572397156,317.2582438063519 M678.6546572397156,317.2582438063519 L663.4639113102971,306.29496384081614 M663.4639113102971,306.29496384081614 L646.9941792867414,295.977205776278 M747.5244801558331,374.5016956026744 L746.7893277124886,449.6417221883972 M756.4338519240434,450.1288122290693 L746.7893277124886,449.6417221883972 M757.1894458366796,374.98775254199836 L756.4338519240434,450.1288122290693 M756.4338519240434,450.1288122290693 L757.1117133266855,435.58376275035045 M757.1117133266855,435.58376275035045 L756.0151287464289,421.05915112921616 M756.0151287464289,421.05915112921616 L753.1538278845285,406.6268532018415 M753.1538278845285,406.6268532018415 L748.5462569274462,392.35795643017616 M748.5462569274462,392.35795643017616 L742.2193624065603,378.3223849708537 M742.2193624065603,378.3223849708537 L734.2082840238256,364.5885823658394 M734.2082840238256,364.5885823658394 L724.5562690814352,351.22320609276113 M724.5562690814352,351.22320609276113 L713.3142326726411,338.2908593547909 M713.3142326726411,338.2908593547909 L700.5405796782309,325.853721580197 M700.5405796782309,325.853721580197 L686.3007629143449,313.9713524384233 M686.3007629143449,313.9713524384233 L670.6669842903923,302.70042684024645 M670.6669842903923,302.70042684024645 L653.7177900100155,292.09446448387126" stroke="black"  stroke-width="4"  fill="red"/>
<path d="M746.7888666356166,380.0583509838392 L746.6921329624765,380.665184851851 M746.6921329624765,380.665184851851 L746.5921984208862,381.2718646561943 M746.5921984208862,381.2718646561943 L746.4890494615804,381.8783828341077 M755.2970713358297,386.8919382650995 L746.4890494615804,381.8783828341077 M755.2970713358297,386.8919382650995 L755.7217079675333,384.77827583006007 M755.7217079675333,384.77827583006007 L756.1083072781723,382.66246085621685 M756.1083072781723,382.66246085621685 L756.4568479082095,380.54471331224266 M746.7888666356166,380.0583509838392 L756.4568479082095,380.54471331224266 M746.7888666356166,380.0583509838392 L746.055038510134,455.2101847234462 M745.7557797600252,457.0340822925344 L745.8587357723127,456.4262759677093 M745.8587357723127,456.4262759677093 L745.9584841824744,455.81830758509466 M745.9584841824744,455.81830758509466 L746.055038510134,455.2101847234462 M746.4890494615804,381.8783828341077 L745.7557797600252,457.0340822925344 M754.5449711989975,462.0582823353561 L745.7557797600252,457.0340822925344 M755.2970713358297,386.8919382650995 L754.5449711989975,462.0582823353561 M756.4568479082095,380.54471331224266 L755.7025655688626,455.6975801553645 M754.5449711989975,462.0582823353561 L754.9687997173075,459.9401329771074 M754.9687997173075,459.9401329771074 L755.3546716246708,457.8198254395656 M755.3546716246708,457.8198254395656 L755.7025655688626,455.6975801553645 M746.055038510134,455.2101847234462 L755.7025655688626,455.6975801553645 M438.3804149075617,561.2575045808753 L437.3161738637086,561.3250746928925 M437.3161738637086,561.3250746928925 L436.25156428687814,561.3907636535548 M436.25156428687814,561.3907636535548 L435.1865997329783,561.4545791016924 M436.05182632231765,567.1298463920823 L435.1865997329783,561.4545791016924 M436.05182632231765,567.1298463920823 L439.76897073560974,566.899908626897 M439.76897073560974,566.899908626897 L443.4816840488018,566.6476909132521 M443.4816840488018,566.6476909132521 L447.1895694781912,566.3732181903345 M438.3804149075617,561.2575045808753 L447.1895694781912,566.3732181903345 M438.3804149075617,561.2575045808753 L438.2975781884688,636.7903123592 M435.11058135806917,636.9877969538625 L436.17327233813484,636.9238487191752 M436.17327233813484,636.9238487191752 L437.23560912367617,636.858023072559 M437.23560912367617,636.858023072559 L438.2975781884688,636.7903123592 M435.1865997329783,561.4545791016924 L435.11058135806917,636.9877969538625 M435.97393589866016,642.6748693859731 L435.11058135806917,636.9877969538625 M436.05182632231765,567.1298463920823 L435.97393589866016,642.6748693859731 M447.1895694781912,566.3732181903345 L447.08789512852803,641.9166677648622 M435.97393589866016,642.6748693859731 L439.68314226039627,642.4444534763505 M439.68314226039627,642.4444534763505 L443.3879273061012,642.1917112736417 M443.3879273061012,642.1917112736417 L447.08789512852803,641.9166677648622 M438.2975781884688,636.7903123592 L447.08789512852803,641.9166677648622" stroke="black"  stroke-width="4"  fill="red"/>
<path d="M168.46038636419857,588.7690049798397 L167.96718099703727,513.3361881303052 M163.57649565266576,590.075872570632 L163.07283145219296,514.6403272744321 M168.46038636419857,588.7690049798397 L166.80296192347745,589.1659716301527 M166.80296192347745,589.1659716301527 L165.17410689720606,589.6018286502219 M165.17410689720606,589.6018286502219 L163.57649565266576,590.075872570632 M167.96718099703727,513.3361881303052 L166.30620865299932,513.7323259602531 M166.30620865299932,513.7323259602531 L164.673865445962,514.1672730045428 M164.673865445962,514.1672730045428 L163.07283145219296,514.6403272744321 M163.07283145219296,514.6403272744321 L163.79562797860595,509.2250875268876 M163.79562797860595,509.2250875268876 L166.28510166070384,503.9845363107877 M166.28510166070384,503.9845363107877 L170.44834368934343,499.11082382386513 M170.44834368934343,499.11082382386513 L176.13143051144078,494.7822978239878 M176.13143051144078,494.7822978239878 L183.1249866099348,491.1571893369149 M183.1249866099348,491.1571893369149 L191.17218924315534,488.36778699478714 M191.17218924315534,488.36778699478714 L199.9780626099663,486.5157766427678 M199.9780626099663,486.5157766427678 L209.2201725578885,485.6686435947018 M209.2201725578885,485.6686435947018 L218.56040203919747,485.857223074519 M218.56040203919747,485.857223074519 L227.65705182506147,487.07465795836595 M227.65705182506147,487.07465795836595 L236.17725468373186,489.2766016618732 M236.17725468373186,489.2766016618732 L243.80891660021334,492.3828276600451 M243.80891660021334,492.3828276600451 L250.27211447688777,496.2800393234289 M250.27211447688777,496.2800393234289 L255.32922401674287,500.82594915470196 M255.32922401674287,500.82594915470196 L258.7937450936234,505.85431727386333 M258.7937450936234,505.85431727386333 L260.53716499669343,511.18100555724936 M260.53716499669343,511.18100555724936 L260.4939212752922,516.6105811967941 M260.4939212752922,516.6105811967941 L258.6639778511109,521.9434993653454 M258.6639778511109,521.9434993653454 L255.11312141082277,526.9834094051148 M255.11312141082277,526.9834094051148 L249.97068057392855,531.5444377388197 M249.97068057392855,531.5444377388197 L243.42501744379211,535.4580825504574 M243.42501744379211,535.4580825504574 L235.71664109288724,538.5795875812693 M235.71664109288724,538.5795875812693 L227.1294223477447,540.7933387109429 M227.49721138002113,616.2835139284821 L227.1294223477447,540.7933387109429 M227.49721138002113,616.2835139284821 L236.06607308879643,614.0651449299999 M236.06607308879643,614.0651449299999 L243.75795386830416,610.9371264691895 M243.75795386830416,610.9371264691895 L250.28959156362072,607.0153120287922 M250.28959156362072,607.0153120287922 L255.42099235076844,602.4447580445797 M255.42099235076844,602.4447580445797 L258.96419714772026,597.3943164248418 M258.96419714772026,597.3943164248418 L260.79015359727515,592.0502477754836 M260.79015359727515,592.0502477754836 L260.83321524532175,586.6093125625895 M260.83321524532175,586.6093125625895 L259.0934179745925,581.27147310619 M259.0934179745925,581.27147310619 L255.6361847470685,576.2325721017129 M255.6361847470685,576.2325721017129 L250.58975543341836,571.6771347779714 M250.58975543341836,571.6771347779714 L244.14023486415164,567.7717512506189 M244.14023486415164,567.7717512506189 L236.52474433296618,564.6590093623322 M236.52474433296618,564.6590093623322 L228.02261492843832,562.4524452711241 M228.02261492843832,562.4524452711241 L218.94528090056855,561.2324553182268 M218.94528090056855,561.2324553182268 L209.62490572689958,561.0434800289651 M209.62490572689958,561.0434800289651 L200.40246569360255,561.8923910577023 M200.40246569360255,561.8923910577023 L191.6153614903312,563.748287849763 M191.6153614903312,563.748287849763 L183.5853426588013,566.5435421976795 M183.5853426588013,566.5435421976795 L176.60675675694037,570.1762531710291 M176.60675675694037,570.1762531710291 L170.93587718844202,574.5138527263825 M170.93587718844202,574.5138527263825 L166.78162885530898,579.3977762336469 M166.78162885530898,579.3977762336469 L164.2976007680157,584.6493006982722 M164.2976007680157,584.6493006982722 L163.57649565266576,590.075872570632 M227.97184297137932,613.1643585468922 L227.60513227239832,537.6806766546998 M227.49721138002113,616.2835139284821 L227.7280380776396,615.2474842892069 M227.7280380776396,615.2474842892069 L227.88633549559677,614.2071909156314 M227.88633549559677,614.2071909156314 L227.97184297137932,613.1643585468922 M227.1294223477447,540.7933387109429 L227.36076364252187,539.7594655775399 M227.36076364252187,539.7594655775399 L227.5194206934306,538.7213378417346 M227.5194206934306,538.7213378417346 L227.60513227239832,537.6806766546998 M227.60513227239832,537.6806766546998 L235.6690780546139,535.2867711787842 M235.6690780546139,535.2867711787842 L242.72737354969613,531.9906908876789 M242.72737354969613,531.9906908876789 L248.4821054355076,527.932317298912 M248.4821054355076,527.932317298912 L252.69096401111594,523.2836502977177 M252.69096401111594,523.2836502977177 L255.1773850774794,518.2414654712155 M255.1773850774794,518.2414654712155 L255.83791479518243,513.0188325967333 M255.83791479518243,513.0188325967333 L254.64628642866398,507.83608158033314 M254.64628642866398,507.83608158033314 L251.65425747920446,502.91147789064064 M251.65425747920446,502.91147789064064 L246.9892584130277,498.45205309382095 M246.9892584130277,498.45205309382095 L240.84868524175806,494.6450179852965 M240.84868524175806,494.6450179852965 L233.49156395446894,491.6499503617293 M233.49156395446894,491.6499503617293 L225.22754439220932,489.5922697340205 M225.22754439220932,489.5922697340205 L216.40395006441443,488.5580643479411 M216.40395006441443,488.5580643479411 L207.39137254815282,488.5905657635696 M207.39137254815282,488.5905657635696 L198.56818397998978,489.6884261899457 M198.56818397998978,489.6884261899457 L190.30493758985625,491.80573798996227 M190.30493758985625,491.80573798996227 L182.94894314835085,494.8539200379586 M182.94894314835085,494.8539200379586 L176.80985736915787,498.70531516167756 M176.80985736915787,498.70531516167756 L172.14663028314442,503.19846927305525 M172.14663028314442,503.19846927305525 L169.15662834215902,508.14475440101984 M169.15662834215902,508.14475440101984 L167.96718099703727,513.3361881303052 M168.46038636419857,588.7690049798397 L169.64715832564548,583.5667059887392 M169.64715832564548,583.5667059887392 L172.6306611092062,578.6100626744308 M172.6306611092062,578.6100626744308 L177.2838446193125,574.1074942180267 M177.2838446193125,574.1074942180267 L183.4097690413662,570.2480255576166 M183.4097690413662,570.2480255576166 L190.75003973625056,567.1934512016752 M190.75003973625056,567.1934512016752 L198.99566077083867,565.0716979021928 M198.99566077083867,565.0716979021928 L207.8000608769904,563.9715340640299 M207.8000608769904,563.9715340640299 L216.793472794191,563.938964453056 M216.793472794191,563.938964453056 L225.59832562171167,564.9753397127387 M225.59832562171167,564.9753397127387 L233.84481181684228,567.0373368132394 M233.84481181684228,567.0373368132394 L241.18634245311722,570.0386854898194 M241.18634245311722,570.0386854898194 L247.3139227407583,573.8537013553558 M247.3139227407583,573.8537013553558 L251.96907500615373,578.3224701137123 M251.96907500615373,578.3224701137123 L254.95482148043556,583.2573869369714 M254.95482148043556,583.2573869369714 L256.14400194863634,588.4509854312598 M256.14400194863634,588.4509854312598 L255.4849686238273,593.6845427523878 M255.4849686238273,593.6845427523878 L253.0039318878439,598.7372683789143 M253.0039318878439,598.7372683789143 L248.8041243962255,603.395648130828 M248.8041243962255,603.395648130828 L243.06173256605382,607.4624969043348 M243.06173256605382,607.4624969043348 L236.01854715144702,610.7654575663413 M236.01854715144702,610.7654575663413 L227.97184297137932,613.1643585468922" stroke="black"  stroke-width="4"  fill="red"/>
<path d="M626.7677047478421,283.6650592310038 L627.2442276126926,208.8803492279962 M631.5348033273815,282.4025328030344 L632.0212902790181,207.62055067845705 M626.7677047478421,283.6650592310038 L628.3868278564166,283.28152275644743 M628.3868278564166,283.28152275644743 L629.9767362688494,282.86045048797496 M629.9767362688494,282.86045048797496 L631.5348033273815,282.4025328030344 M627.2442276126926,208.8803492279962 L628.8667363758705,208.49764140164692 M628.8667363758705,208.49764140164692 L630.4599679862008,208.0774789194815 M630.4599679862008,208.0774789194815 L632.0212902790181,207.62055067845705 M632.0212902790181,207.62055067845705 L631.4505611501793,212.85406566873107 M631.4505611501793,212.85406566873107 L629.1363277425842,217.92476261163347 M629.1363277425842,217.92476261163347 L625.1623124601701,222.64582353862775 M625.1623124601701,222.64582353862775 L619.673534636552,226.843074006935 M619.673534636552,226.843074006935 L612.8713522366343,230.3613572594977 M612.8713522366343,230.3613572594977 L605.0058864049681,233.0704977338711 M605.0058864049681,233.0704977338711 L596.3669218165592,234.8701498630625 M596.3669218165592,234.8701498630625 L587.273185204212,235.69358146360972 M587.273185204212,235.69358146360972 L578.0603553010617,235.51026467404492 M578.0603553010617,235.51026467404492 L569.068610178053,234.32699036108752 M569.068610178053,234.32699036108752 L560.629810544747,232.18764806850976 M560.629810544747,232.18764806850976 L553.0551786884587,229.1715180572124 M553.0551786884587,229.1715180572124 L546.6236258353408,225.39029791761828 M546.6236258353408,225.39029791761828 L541.5715016690531,220.98383392532799 M541.5715016690531,220.98383392532799 L538.0838341246763,216.11490532218838 M538.0838341246763,216.11490532218838 L536.2877056191248,210.96305697324667 M536.2877056191248,210.96305697324667 L536.2476771072465,205.71797802198412 M536.2476771072465,205.71797802198412 L537.9636752255042,200.57243251840254 M537.9636752255042,200.57243251840254 L541.371163082872,195.71520155680832 M541.371163082872,195.71520155680832 L546.3438015147397,191.32417859195198 M546.3438015147397,191.32417859195198 L552.6981815755714,187.5599513366942 M552.6981815755714,187.5599513366942 L560.20071465557,184.55996352983846 M560.20071465557,184.55996352983846 L568.5761811629677,182.43365019152574 M568.2229904963531,257.1610146592325 L568.5761811629677,182.43365019152574 M568.2229904963531,257.1610146592325 L559.864987778928,259.29194476552544 M559.864987778928,259.29194476552544 L552.3780819410736,262.2984444694671 M552.3780819410736,262.2984444694671 L546.0369203995253,266.0708394637853 M546.0369203995253,266.0708394637853 L541.0746057104755,270.4713859225951 M541.0746057104755,270.4713859225951 L537.6741646934258,275.33914613914845 M537.6741646934258,275.33914613914845 L535.9616728617011,280.4958397305184 M535.9616728617011,280.4958397305184 L536.0015321458181,285.7522758906565 M536.0015321458181,285.7522758906565 L537.7938156430012,290.9152731644014 M537.7938156430012,290.9152731644014 L541.2740976622053,295.79473259631675 M541.2740976622053,295.79473259631675 L546.315562593119,300.21072227745253 M546.315562593119,300.21072227745253 L552.7335715861927,304.0001127772208 M552.7335715861927,304.0001127772208 L560.2922725846249,307.02275750835076 M560.2922725846249,307.02275750835076 L568.7133421034255,309.16671937434154 M568.7133421034255,309.16671937434154 L577.6862139438886,310.35254831161126 M577.6862139438886,310.35254831161126 L586.8797269060958,310.53626084208065 M586.8797269060958,310.53626084208065 L595.9544194468438,309.7110515694916 M595.9544194468438,309.7110515694916 L604.5753189078948,307.90751368156896 M604.5753189078948,307.90751368156896 L612.4243675311004,305.19252224454226 M612.4243675311004,305.19252224454226 L619.2123869901548,301.6666378916887 M619.2123869901548,301.6666378916887 L624.6897772122816,297.46031556738825 M624.6897772122816,297.46031556738825 L628.6555970297359,292.7290455910962 M628.6555970297359,292.7290455910962 L630.9651240921917,287.6473775862997 M630.9651240921917,287.6473775862997 L631.5348033273815,282.4025328030344 M567.815801458047,260.15752398711993 L568.1681995320876,185.4236677386573 M568.2229904963531,257.1610146592325 L568.016053254958,258.1560783822889 M568.016053254958,258.1560783822889 L567.8802409729635,259.15546635511095 M567.8802409729635,259.15546635511095 L567.815801458047,260.15752398711993 M568.5761811629677,182.43365019152574 L568.3688305385126,183.42655792423085 M568.3688305385126,183.42655792423085 L568.2327538886273,184.42378077444167 M568.2327538886273,184.42378077444167 L568.1681995320876,185.4236677386573 M568.1681995320876,185.4236677386573 L560.3060277955092,187.72465386596852 M560.3060277955092,187.72465386596852 L553.441415420514,190.8947975995141 M553.441415420514,190.8947975995141 L547.8634478696988,194.8012963653242 M547.8634478696988,194.8012963653242 L543.8076059030882,199.28032650991847 M543.8076059030882,199.28032650991847 L541.4458062074482,204.14374752559849 M541.4458062074482,204.14374752559849 L540.8789336066163,209.18696999245307 M540.8789336066163,209.18696999245307 L542.1324230148546,214.1974757662271 M542.1324230148546,214.1974757662271 L545.1549373868247,218.9637714554018 M545.1549373868247,218.9637714554018 L549.8201973778537,223.28435392935634 M549.8201973778537,223.28435392935634 L555.9322310342127,226.97625667424157 M555.9322310342127,226.97625667424157 L563.2334124442252,229.88294998647385 M563.2334124442252,229.88294998647385 L571.4153742218,231.88104056108656 M571.4153742218,231.88104056108656 L580.1320839175396,232.88564182785115 M580.1320839175396,232.88564182785115 L589.0145580222616,232.85406723809814 M589.0145580222616,232.85406723809814 L597.6867631008681,231.78764835577724 M597.6867631008681,231.78764835577724 L605.7816435926691,229.73171126818997 M605.7816435926691,229.73171126818997 L612.95687656209,226.77359100407716 M612.95687656209,226.77359100407716 L618.9094247598539,223.03886209927117 M618.9094247598539,223.03886209927117 L623.3884762062064,218.68586237213785 M623.3884762062064,218.68586237213785 L626.205933958496,213.8988996252528 M626.205933958496,213.8988996252528 L627.2442276126926,208.8803492279962 M626.7677047478421,283.6650592310038 L625.7314488212999,288.69447267005455 M625.7314488212999,288.69447267005455 L622.9197623565881,293.491791551086 M622.9197623565881,293.491791551086 L618.4499775690019,297.8542038129397 M618.4499775690019,297.8542038129397 L612.5098038637882,301.59700474394106 M612.5098038637882,301.59700474394106 L605.3495321548937,304.56151614773387 M605.3495321548937,304.56151614773387 L597.2715668306851,306.62189393753636 M597.2715668306851,306.62189393753636 L588.6175133570894,307.6906158228738 M588.6175133570894,307.6906158228738 L579.7536560768742,307.722258595919 M579.7536560768742,307.722258595919 L571.0552370524997,306.71548784044626 M571.0552370524997,306.71548784044626 L562.8904625405369,304.71308156716145 M562.8904625405369,304.71308156716145 L555.6046358524229,301.8001083484058 M555.6046358524229,301.8001083484058 L549.5054747320803,298.10022633733774 M549.5054747320803,298.10022633733774 L544.8500626813009,293.7703016954845 M544.8500626813009,293.7703016954845 L541.8339594180356,288.9936949122365 M541.8339594180356,288.9936949122365 L540.5831788915275,283.97234387282936 M540.5831788915275,283.97234387282936 L541.1489502064753,278.9181992560839 M541.1489502064753,278.9181992560839 L543.5058912934167,274.0442397212179 M543.5058912934167,274.0442397212179 L547.553327675028,269.55549898324045 M547.553327675028,269.55549898324045 L553.119700840708,265.6405269583147 M553.119700840708,265.6405269583147 L559.9700201686633,262.4635044464463 M559.9700201686633,262.4635044464463 L567.815801458047,260.15752398711993" stroke="black"  stroke-width="4"  fill="red"/>
<path d="M52.13758725727081,414.0570071492694 L51.40340432871295,338.9926071824121 M47.58382852946869,412.51562351000996 L46.8400879096838,337.45450618306927 M52.13758725727081,414.0570071492694 L50.65702014423931,413.5074022318082 M50.65702014423931,413.5074022318082 L49.13826649328104,412.99332455315607 M49.13826649328104,412.99332455315607 L47.58382852946869,412.51562351000996 M51.40340432871295,338.9926071824121 L49.919731551342636,338.4441726777384 M49.919731551342636,338.4441726777384 L48.39779025699096,337.93118981976613 M48.39779025699096,337.93118981976613 L46.8400879096838,337.45450618306927 M46.8400879096838,337.45450618306927 L54.83857696144122,334.7125979880739 M54.83857696144122,334.7125979880739 L63.58221261566939,332.8919463270942 M63.58221261566939,332.8919463270942 L72.75089079960117,332.0588623308514 M72.75089079960117,332.0588623308514 L82.00912876683867,332.24369341042114 M82.00912876683867,332.24369341042114 L91.01822628244702,333.439706561689 M91.01822628244702,333.439706561689 L99.44851794222177,335.6033463769134 M99.44851794222177,335.6033463769134 L106.99117548033121,338.6557572058831 M106.99117548033121,338.6557572058831 L113.36952020408683,342.48562534555606 M113.36952020408683,342.48562534555606 L118.34908390906878,346.95308279082724 M118.34908390906878,346.95308279082724 L121.74617092679534,351.8947710340651 M121.74617092679534,351.8947710340651 L123.43479556135759,357.12971561515064 M123.43479556135759,357.12971561515064 L123.35141890648117,362.46584706191385 M123.35141890648117,362.46584706191385 L121.49752067762017,367.7070586420938 M121.49752067762017,367.7070586420938 L117.93977634375699,372.6603680086986 M117.93977634375699,372.6603680086986 L112.80779642279492,377.14310798762153 M112.80779642279492,377.14310798762153 L106.28958974556969,380.9896940305038 M106.28958974556969,380.9896940305038 L98.62465533874172,384.05782290582346 M98.62465533874172,384.05782290582346 L90.09524976581639,386.23389148419835 M90.09524976581639,386.23389148419835 L81.01596548662866,387.437233670435 M81.01596548662866,387.437233670435 L71.72189584459483,387.6232265201397 M71.72189584459483,387.6232265201397 L62.55621937443249,386.7849677859289 M62.55621937443249,386.7849677859289 L53.857321579028735,384.9535586971211 M53.857321579028735,384.9535586971211 L45.94608960578074,382.19687721983667 M46.69360090672234,457.35325307377474 L45.94608960578074,382.19687721983667 M46.69360090672234,457.35325307377474 L54.588223855232854,460.11578797866963 M54.588223855232854,460.11578797866963 L63.2688047921381,461.9510848028892 M63.2688047921381,461.9510848028892 L72.41513477498563,462.79112273414574 M72.41513477498563,462.79112273414574 L81.6895457201606,462.6047351307165 M81.6895457201606,462.6047351307165 L90.74958832861535,461.398838754753 M90.74958832861535,461.398838754753 L99.26088245390326,459.2181504171881 M99.26088245390326,459.2181504171881 L106.90950592555089,456.14350602704957 M106.90950592555089,456.14350602704957 L113.41380401372436,452.2887481450879 M113.41380401372436,452.2887481450879 L118.53478867752005,447.7964803877318 M118.53478867752005,447.7964803877318 L122.08485260041437,442.832637483344 M122.08485260041437,442.832637483344 L123.93466274929904,437.58027372738997 M123.93466274929904,437.58027372738997 L124.01768774099469,432.23278138036346 M124.01768774099469,432.23278138036346 L122.33245410095486,426.9866847077648 M122.33245410095486,426.9866847077648 L118.9423698786228,422.03446308296725 M118.9423698786228,422.03446308296725 L113.97315857360172,417.55747806465774 M113.97315857360172,417.55747806465774 L107.60813253202735,413.71943831052755 M107.60813253202735,413.71943831052755 L100.0812701916733,410.66051217786594 M100.0812701916733,410.66051217786594 L91.66867193815443,408.4922527703548 M91.66867193815443,408.4922527703548 L82.67852006045177,407.29368552776293 M82.67852006045177,407.29368552776293 L73.43978965996496,407.1084597100659 M73.43978965996496,407.1084597100659 L64.29047062453446,407.94332283387894 M64.29047062453446,407.94332283387894 L55.565340524289866,409.7678620858217 M55.565340524289866,409.7678620858217 L47.58382852946869,412.51562351000996 M51.31951009696428,455.8043327430753 L50.58186209116462,380.6512396302967 M46.69360090672234,457.35325307377474 L48.27092605802363,456.87315861044897 M48.27092605802363,456.87315861044897 L49.813747297526334,456.3565631251362 M49.813747297526334,456.3565631251362 L51.31951009696428,455.8043327430753 M45.94608960578074,382.19687721983667 L47.52677608264622,381.71780019511027 M47.52677608264622,381.71780019511027 L49.07288690736095,381.2022995642998 M49.07288690736095,381.2022995642998 L50.58186209116462,380.6512396302967 M50.58186209116462,380.6512396302967 L58.4552150417685,383.06071753122995 M58.4552150417685,383.06071753122995 L67.03729267154324,384.4885095416877 M67.03729267154324,384.4885095416877 L75.96494281663462,384.8739205140281 M75.96494281663462,384.8739205140281 L84.86017375768341,384.20057470138653 M84.86017375768341,384.20057470138653 L93.34642364696379,382.497091667857 M93.34642364696379,382.497091667857 L101.06463431953836,379.8358699569885 M101.06463431953836,379.8358699569885 L107.68866907749458,376.32990444714335 M107.68866907749458,376.32990444714335 L112.93906919270921,372.1279368979192 M112.93906919270921,372.1279368979192 L116.59500403412801,367.4079619134126 M116.59500403412801,367.4079619134126 L118.50336843817757,362.36967082546624 M118.50336843817757,362.36967082546624 L118.5851515183075,357.22583484714 M118.5851515183075,357.22583484714 L116.83847787539486,352.1933432224771 M116.83847787539486,352.1933432224771 L113.3384251479813,347.48399941739706 M113.3384251479813,347.48399941739706 L108.23366517928872,343.29572065888937 M108.23366517928872,343.29572065888937 L101.73992797943953,339.8042173454111 M101.73992797943953,339.8042173454111 L94.13094282140577,337.15581782714855 M94.13094282140577,337.15581782714855 L85.72677158190243,335.46137735363277 M85.72677158190243,335.46137735363277 L76.88055177227272,334.79178545858116 M76.88055177227272,334.79178545858116 L67.96374024001159,335.1750353049348 M67.96374024001159,335.1750353049348 L59.35076047338447,336.595111730642 M59.35076047338447,336.595111730642 L51.40340432871295,338.9926071824121 M52.13758725727081,414.0570071492694 L60.068088139424106,411.6543946775028 M60.068088139424106,411.6543946775028 L68.66285264069973,410.231286706903 M68.66285264069973,410.231286706903 L77.56085121966953,409.84721862530495 M77.56085121966953,409.84721862530495 L86.3884470861326,410.5182400705531 M86.3884470861326,410.5182400705531 L94.77496224595427,412.21629762292736 M94.77496224595427,412.21629762292736 L102.36799853372867,414.8703492354959 M102.36799853372867,414.8703492354959 L108.84816344209173,418.36930139142277 M108.84816344209173,418.36930139142277 L113.94229961676075,422.56651165719745 M113.94229961676075,422.56651165719745 L117.43512717381145,427.28589312599166 M117.43512717381145,427.28589312599166 L119.17828351248244,432.3291053154588 M119.17828351248244,432.3291053154588 L119.09684537420799,437.4838927870701 M119.09684537420799,437.4838927870701 L117.19268024828534,442.5329045177959 M117.19268024828534,442.5329045177959 L113.54462805204696,447.2629173089348 M113.54462805204696,447.2629173089348 L108.305466008015,451.47381654940847 M108.305466008015,451.47381654940847 L101.69555310771943,454.9872310960311 M101.69555310771943,454.9872310960311 L93.99375199478703,457.6541050734561 M93.99375199478703,457.6541050734561 L85.52550437517806,459.36120530729625 M85.52550437517806,459.36120530729625 L76.64910409555148,460.0359807205481 M76.64910409555148,460.0359807205481 L67.7403126183313,459.64975148394035 M67.7403126183313,459.64975148394035 L59.176319914870135,458.21892782496496 M59.176319914870135,458.21892782496496 L51.31951009696428,455.8043327430753" stroke="black"  stroke-width="4"  fill="red"/>
<path d="M375.0621065000198,235.75840169200822 L375.01081342278763,161.0774669652553 M376.88373281883554,232.94512399874037 L376.8362578343158,158.2703003549903 M375.0621065000198,235.75840169200822 L375.73617833701087,234.8349023501755 M375.73617833701087,234.8349023501755 L376.3437025374925,233.89662186674434 M376.3437025374925,233.89662186674434 L376.88373281883554,232.94512399874037 M375.01081342278763,161.0774669652553 L375.68629790898433,160.15597346781288 M375.68629790898433,160.15597346781288 L376.2950954617686,159.21973114120476 M376.2950954617686,159.21973114120476 L376.8362578343158,158.2703003549903 M376.8362578343158,158.2703003549903 L382.85388405949624,162.2063900324826 M382.85388405949624,162.2063900324826 L387.4412537390659,166.7255388980975 M387.4412537390659,166.7255388980975 L390.4289934908868,171.66243517981553 M390.4289934908868,171.66243517981553 L391.70608097982506,176.8361686449741 M391.70608097982506,176.8361686449741 L391.22406753242245,182.05684598767647 M391.22406753242245,182.05684598767647 L388.99915548871843,187.1324850423117 M388.99915548871843,187.1324850423117 L385.1117269616359,191.87613612337387 M385.1117269616359,191.87613612337387 L379.70365586813614,196.112794312383 M379.70365586813614,196.112794312383 L372.973222665393,199.68587771242258 M372.973222665393,199.68587771242258 L365.1679007827091,202.46321628802315 M365.1679007827091,202.46321628802315 L356.57524739585443,204.34191609955218 M356.57524739585443,204.34191609955218 L347.51221795579437,205.25235046855713 M347.51221795579437,205.25235046855713 L338.3133772718624,205.1607468994198 M338.3133772718624,205.1607468994198 L329.3183500862815,204.07050042134242 M329.3183500862815,204.07050042134242 L320.85915466853487,202.02203881204176 M320.85915466853487,202.02203881204176 L313.247786713069,199.09130694765184 M313.247786713069,199.09130694765184 L306.76454050993436,195.38681784364343 M306.76454050993436,195.38681784364343 L301.6476980441378,191.0456092246405 M301.6476980441378,191.0456092246405 L298.084738153196,186.22806604863527 M298.084738153196,186.22806604863527 L296.20552357771777,181.11187354771738 M296.20552357771777,181.11187354771738 L296.0776737433273,175.8854220263088 M296.0776737433273,175.8854220263088 L297.70436967401577,170.74083191402138 M297.70436967401577,170.74083191402138 L301.02434288380886,165.86685916442832 M301.2301335863989,240.558215840623 L301.02434288380886,165.86685916442832 M301.2301335863989,240.558215840623 L297.9171516559195,245.4427889535368 M297.9171516559195,245.4427889535368 L296.29391667332703,250.5985618234062 M296.29391667332703,250.5985618234062 L296.4215638003844,255.8363675560624 M296.4215638003844,255.8363675560624 L298.29691305622293,260.9636684022753 M298.29691305622293,260.9636684022753 L301.85248108019914,265.791665764094 M301.85248108019914,265.791665764094 L306.9586722590141,270.1422901523181 M306.9586722590141,270.1422901523181 L313.4283967657554,273.8548104592344 M313.4283967657554,273.8548104592344 L321.02386955875164,276.79189372031794 M321.02386955875164,276.79189372031794 L329.46538289663266,278.84479347509284 M329.46538289663266,278.84479347509284 L338.44159548827844,279.93740164422184 M338.44159548827844,279.93740164422184 L347.62118649985996,280.0292036319795 M347.62118649985996,280.0292036319795 L356.6652451429881,279.11679712032924 M356.6652451429881,279.11679712032924 L365.2399099783331,277.2340271252124 M365.2399099783331,277.2340271252124 L373.02889151187,274.4506699266959 M373.02889151187,274.4506699266959 L379.7452359895703,270.8698407714858 M379.7452359895703,270.8698407714858 L385.14198823906725,266.6239943649212 M385.14198823906725,266.6239943649212 L389.02128178873164,261.8700504307642 M389.02128178873164,261.8700504307642 L391.2415375247327,256.7833922045643 M391.2415375247327,256.7833922045643 L391.7225386975912,251.5513743793413 M391.7225386975912,251.5513743793413 L390.44811378956575,246.3663959673931 M390.44811378956575,246.3663959673931 L387.4666073516018,241.41876352248477 M387.4666073516018,241.41876352248477 L382.8888075493023,236.88978184514428 M382.8888075493023,236.88978184514428 L376.88373281883554,232.94512399874037 M304.6127689851411,242.8488559643376 L304.4140300165054,168.15252749873287 M301.2301335863989,240.558215840623 L302.3026067328729,241.34783437454698 M302.3026067328729,241.34783437454698 L303.4307976696981,242.11180295623888 M303.4307976696981,242.11180295623888 L304.6127689851411,242.8488559643376 M301.02434288380886,165.86685916442832 L302.09905086392166,166.65476370588487 M302.09905086392166,166.65476370588487 L303.22959372375465,167.41707411354676 M303.22959372375465,167.41707411354676 L304.4140300165054,168.15252749873287 M304.4140300165054,168.15252749873287 L301.6734808669918,172.94430651578452 M301.6734808669918,172.94430651578452 L300.7089719213008,177.95315523857917 M300.7089719213008,177.95315523857917 L301.5626891273651,182.96808947453414 M301.5626891273651,182.96808947453414 L304.2001625147967,187.7774950963224 M304.2001625147967,187.7774950963224 L308.5114250708993,192.17807938985592 M308.5114250708993,192.17807938985592 L314.3155357892472,195.98357275207164 M314.3155357892472,195.98357275207164 L321.3679992909442,199.0326471692083 M321.3679992909442,199.0326471692083 L329.37102870942607,201.19589516442724 M329.37102870942607,201.19589516442724 L337.9862355029912,202.38143204315307 M337.9862355029912,202.38143204315307 L346.84902047530045,202.5388763365874 M346.84902047530045,202.5388763365874 L355.5841389885837,201.6615209990802 M355.5841389885837,201.6615209990802 L363.8218526861542,199.78667678763642 M363.8218526861542,199.78667678763642 L371.2137181883361,196.99398666448573 M371.2137181883361,196.99398666448573 L377.44747293523625,193.40199896170373 M377.44747293523625,193.40199896170373 L382.2603169081944,189.16305859042959 M382.2603169081944,189.16305859042959 L385.4499532868746,184.45669009415937 M385.4499532868746,184.45669009415937 L386.883039204933,179.4818955452892 M386.883039204933,179.4818955452892 L386.50061735668936,174.44871319151432 M386.50061735668936,174.44871319151432 L384.3203378746479,169.56927916467305 M384.3203378746479,169.56927916467305 L380.4354850940243,165.04889522987696 M380.4354850940243,165.04889522987696 L375.01081342278763,161.0774669652553 M375.0621065000198,235.75840169200822 L380.47546362779417,239.7384723657513 M380.47546362779417,239.7384723657513 L384.35221344558965,244.2686887229162 M384.35221344558965,244.2686887229162 L386.52794715470793,249.15873066284345 M386.52794715470793,249.15873066284345 L386.9095777343459,254.20284920751948 M386.9095777343459,254.20284920751948 L385.47949480213117,259.18844712191367 M385.47949480213117,259.18844712191367 L382.29653516162256,263.9050306105794 M382.29653516162256,263.9050306105794 L377.49376494351145,268.15316690080334 M377.49376494351145,268.15316690080334 L371.27305886678886,271.7529436624503 M371.27305886678886,271.7529436624503 L363.89666689060925,274.55168747052437 M363.89666689060925,274.55168747052437 L355.6761966569145,276.4305947145665 M355.6761966569145,276.4305947145665 L346.9593598330669,277.30985110681274 M346.9593598330669,277.30985110681274 L338.1151179187809,277.1520656764359 M338.1151179187809,277.1520656764359 L329.5179272317969,275.963959886374 M329.5179272317969,275.963959886374 L321.5316216547224,273.7960235340394 M321.5316216547224,273.7960235340394 L314.4938805732951,270.74033902650945 M314.4938805732951,270.74033902650945 L308.7018683536693,266.9265926105788 M308.7018683536693,266.9265926105788 L304.3995711979065,262.51646035475903 M304.3995711979065,262.51646035475903 L301.7675555508625,257.6966144479146 M301.7675555508625,257.6966144479146 L300.91556354699634,252.67078786708916 M300.91556354699634,252.67078786708916 L301.87799876040305,247.6510540074895 M301.87799876040305,247.6510540074895 L304.6127689851411,242.8488559643376" stroke="black"  stroke-width="4"  fill="red"/>
<path d="M293.9293613209933,424.4893286611046 L294.15322290784684,499.73530650069665 M406.0158528116716,434.13831938824535 L389.68252035604087,435.67493191361586 M389.68252035604087,435.67493191361586 L373.16052746306303,436.2321332044531 M373.16052746306303,436.2321332044531 L356.62835932588314,435.8038112431865 M356.62835932588314,435.8038112431865 L340.2646055146716,434.39466485079635 M340.2646055146716,434.39466485079635 L324.2459626652708,432.02014208827217 M324.2459626652708,432.02014208827217 L308.7452222107306,428.70627338938414 M308.7452222107306,428.70627338938414 L293.9293613209933,424.4893286611046 M406.0158528116716,434.13831938824535 L406.0022157855548,509.40467986937824 M294.15322290784684,499.73530650069665 L308.93773729208596,503.9611618941798 M308.93773729208596,503.9611618941798 L324.40565641523926,507.2820300158946 M324.40565641523926,507.2820300158946 L340.39036103699254,509.66156653520204 M340.39036103699254,509.66156653520204 L356.719430878857,511.0736876735768 M356.719430878857,511.0736876735768 L373.2165493666581,511.50291373984487 M373.2165493666581,511.50291373984487 L389.70351133386123,510.94453629601827 M389.70351133386123,510.94453629601827 L406.0022157855548,509.40467986937824 M294.15322290784684,499.73530650069665 L301.32229238181196,495.59532231357775 M301.32229238181196,495.59532231357775 L301.1137016082034,420.35807818962604 M293.9293613209933,424.4893286611046 L301.1137016082034,420.35807818962604 M408.3530994250533,428.0643484737291 L392.8492436189908,429.79130719184707 M392.8492436189908,429.79130719184707 L377.1155309948319,430.5724446195271 M377.1155309948319,430.5724446195271 L361.32725197407717,430.3989362514884 M361.32725197407717,430.3989362514884 L345.6603347011537,429.2727412248897 M345.6603347011537,429.2727412248897 L330.289282332996,427.2065869226694 M330.289282332996,427.2065869226694 L315.38517893185883,424.223814693166 M315.38517893185883,424.223814693166 L301.1137016082034,420.35807818962604 M405.75651076166827,432.43102504516827 L406.0158528116716,434.13831938824535 M415.10329501396217,431.9589627558113 L405.75651076166827,432.43102504516827 M408.3530994250533,428.0643484737291 L415.10329501396217,431.9589627558113 M405.7434247892642,507.6937806404067 L406.0022157855548,509.40467986937824 M405.7434247892642,507.6937806404067 L405.75651076166827,432.43102504516827 M415.07039690513676,507.2207214866762 L405.7434247892642,507.6937806404067 M408.3345138523197,503.3178808261092 L415.07039690513676,507.2207214866762 M301.32229238181196,495.59532231357775 L315.5635768167469,499.4692313428687 M315.5635768167469,499.4692313428687 L330.4361261943987,502.4583069848575 M330.4361261943987,502.4583069848575 L345.77461835373754,504.52882638698117 M345.77461835373754,504.52882638698117 L361.40833643607243,505.65740026048303 M361.40833643607243,505.65740026048303 L377.16315226413656,505.8312751009697 M377.16315226413656,505.8312751009697 L392.86351593362855,505.04848775170365 M392.86351593362855,505.04848775170365 L408.3345138523197,503.3178808261092 M408.3530994250533,428.0643484737291 L408.3345138523197,503.3178808261092 M415.07039690513676,507.2207214866762 L415.10329501396217,431.9589627558113 M415.5676334999271,432.7664969112615 L415.47743392452077,432.1748271297175 M416.29586130971325,432.64702959277724 L416.05322927760966,432.6870713855947 M416.05322927760966,432.6870713855947 L415.81049104273126,432.7268938260742 M415.81049104273126,432.7268938260742 L415.5676334999271,432.7664969112615 M415.47743392452077,432.1748271297175 L416.29586130971325,432.64702959277724 M415.5337495892449,508.029960897434 L415.44374234033876,507.4370417127723 M415.47743392452077,432.1748271297175 L415.44374234033876,507.4370417127723 M415.5676334999271,432.7664969112615 L415.5337495892449,508.029960897434 M416.29586130971325,432.64702959277724 L416.26043393421793,507.91024131180666 M415.5337495892449,508.029960897434 L415.77609239740053,507.99027418676604 M415.77609239740053,507.99027418676604 L416.01831615326216,507.95036765723887 M416.01831615326216,507.95036765723887 L416.26043393421793,507.91024131180666 M415.44374234033876,507.4370417127723 L416.26043393421793,507.91024131180666 M525.8469132106516,369.37135502074284 L525.0284993083651,368.90251332248533 M526.0501387046575,368.9539062297871 L525.9827773304428,369.09311877511504 M525.9827773304428,369.09311877511504 L525.9150354839553,369.2322658677618 M525.9150354839553,369.2322658677618 L525.8469132106516,369.37135502074284 M525.0284993083651,368.90251332248533 L526.0501387046575,368.9539062297871 M525.5802124238983,444.5004737527285 L524.7635342275557,444.03063491432107 M524.7635342275557,444.03063491432107 L525.0284993083651,368.90251332248533 M525.8469132106516,369.37135502074284 L525.5802124238983,444.5004737527285 M526.0501387046575,368.9539062297871 L525.7830149463284,444.0821371274617 M525.5802124238983,444.5004737527285 L525.6481928999367,444.3610887881639 M525.6481928999367,444.3610887881639 L525.715793755835,444.22164575607513 M525.715793755835,444.22164575607513 L525.7830149463284,444.0821371274617 M524.7635342275557,444.03063491432107 L525.7830149463284,444.0821371274617 M504.22944896376043,303.5593195727489 L510.9364270012569,311.69833906465163 M510.9364270012569,311.69833906465163 L516.1283790601094,320.2000370334373 M516.1283790601094,320.2000370334373 L519.746346110268,328.97193985203614 M519.746346110268,328.97193985203614 L521.7483482017817,337.91835851529004 M521.7483482017817,337.91835851529004 L522.1099712468563,346.9414154140307 M522.1099712468563,346.9414154140307 L520.8247382745635,355.9420846235073 M520.8247382745635,355.9420846235073 L517.9042756187989,364.82128605587684 M524.6543665097261,368.6881852713637 L517.9042756187989,364.82128605587684 M525.4310795044403,363.3326407351616 L524.6543665097261,368.6881852713637 M528.3778946242994,363.48083450796986 L525.4310795044403,363.3326407351616 M511.3161911115274,299.4841914929544 L518.6282664627631,307.92939142069514 M518.6282664627631,307.92939142069514 L524.3924674031173,316.76669472261966 M524.3924674031173,316.76669472261966 L528.5454573503841,325.9031086107308 M528.5454573503841,325.9031086107308 L531.0406815085919,335.2422099980445 M531.0406815085919,335.2422099980445 L531.8490180725448,344.68512015376575 M531.8490180725448,344.68512015376575 L530.9591671393339,354.1315472599597 M530.9591671393339,354.1315472599597 L528.3778946242994,363.48083450796986 M504.22944896376043,303.5593195727489 L511.3161911115274,299.4841914929544 M517.9042756187989,364.82128605587684 L517.6544158479339,439.94072540462446 M504.00923050668416,378.5479534995586 L504.22944896376043,303.5593195727489 M517.6544158479339,439.94072540462446 L520.5688396344283,431.0426209335104 M520.5688396344283,431.0426209335104 L521.8514913622628,422.0227708298315 M521.8514913622628,422.0227708298315 L521.4907625624924,412.98046586298557 M521.4907625624924,412.98046586298557 L519.4931098223044,404.01494337579595 M519.4931098223044,404.01494337579595 L515.8828892523468,395.22429078514045 M515.8828892523468,395.22429078514045 L510.70198630695916,386.70440302514226 M510.70198630695916,386.70440302514226 L504.00923050668416,378.5479534995586 M524.3901948655755,443.8158510092895 L517.6544158479339,439.94072540462446 M524.6543665097261,368.6881852713637 L524.3901948655755,443.8158510092895 M525.165347635083,438.4489122057562 L524.3901948655755,443.8158510092895 M525.165347635083,438.4489122057562 L525.4310795044403,363.3326407351616 M528.1059381844784,438.5974213627609 L525.165347635083,438.4489122057562 M528.3778946242994,363.48083450796986 L528.1059381844784,438.5974213627609 M511.3161911115274,299.4841914929544 L511.0811135197055,374.4640924136274 M528.1059381844784,438.5974213627609 L530.6819065986233,429.22822677875786 M530.6819065986233,429.22822677875786 L531.570028466984,419.7616642470897 M531.570028466984,419.7616642470897 L530.7635448791059,410.2986048138042 M530.7635448791059,410.2986048138042 L528.2737246543943,400.93955466201095 M528.2737246543943,400.93955466201095 L524.1296212574152,391.7836047562588 M524.1296212574152,391.7836047562588 L518.3776850076238,382.92738600137017 M518.3776850076238,382.92738600137017 L511.0811135197055,374.4640924136274 M504.00923050668416,378.5479534995586 L511.0811135197055,374.4640924136274" stroke="black"  stroke-width="4"  fill="red"/>
<path d="M270.12263453263495,281.4506185430174 L282.7946555197885,275.3884781298384 M282.7946555197885,275.3884781298384 L296.5427045845188,270.1628430138229 M296.5427045845188,270.1628430138229 L311.20052794715684,265.8357861939934 M311.20052794715684,265.8357861939934 L326.59137781706846,262.45863705123236 M326.59137781706846,262.45863705123236 L342.53002954521645,260.07138760163843 M342.53002954521645,260.07138760163843 L358.8249893599873,258.70229965306396 M358.8249893599873,258.70229965306396 L375.2806547653162,258.36755267407517 M375.2806547653162,258.36755267407517 L391.69957258360984,259.0711109465851 M391.69957258360984,259.0711109465851 L407.8847385448602,260.8046526899222 M407.8847385448602,260.8046526899222 L423.64180073753005,263.54767401062395 M423.64180073753005,263.54767401062395 L438.78134448052293,267.2677090312168 M438.78134448052293,267.2677090312168 L453.12105892950956,271.92067538832157 M453.12105892950956,271.92067538832157 L466.48786087092594,277.45134968598825 M466.48786087092594,277.45134968598825 L478.7199461941386,283.79398580479995 M478.7199461941386,283.79398580479995 L489.6686825310304,290.873028299432 M489.6686825310304,290.873028299432 L499.20043057625065,298.6039590802149 M506.16897930017274,294.59858074267686 L499.20043057625065,298.6039590802149 M263.3329201292085,277.5480304910466 L276.70360712116627,271.1240071217809 M276.70360712116627,271.1240071217809 L291.2071395279303,265.576410257225 M291.2071395279303,265.576410257225 L306.6705955748858,260.970151825419 M306.6705955748858,260.970151825419 L322.9101107410523,257.3590208342233 M322.9101107410523,257.3590208342233 L339.73307890554656,254.78515099333563 M339.73307890554656,254.78515099333563 L356.94026286056214,253.27852097950245 M356.94026286056214,253.27852097950245 L374.32809301297937,252.85666933657012 M374.32809301297937,252.85666933657012 L391.69098125582286,253.52451000762207 M391.69098125582286,253.52451000762207 L408.8236036346129,255.2742710709662 M408.8236036346129,255.2742710709662 L425.52324873683955,258.08558033255736 M425.52324873683955,258.08558033255736 L441.5920788700089,261.9256725108752 M441.5920788700089,261.9256725108752 L456.8393972564914,266.74974581382503 M456.8393972564914,266.74974581382503 L471.08382531746986,272.50143367863967 M471.08382531746986,272.50143367863967 L484.1554129758661,279.11340471714936 M484.1554129758661,279.11340471714936 L495.8975540311421,286.5081084452621 M495.8975540311421,286.5081084452621 L506.16897930017274,294.59858074267686 M270.12263453263495,281.4506185430174 L263.3329201292085,277.5480304910466 M498.9908540615282,373.58197313932135 L499.20043057625065,298.6039590802149 M270.39473135050855,356.39182576745833 L270.12263453263495,281.4506185430174 M498.9908540615282,373.58197313932135 L489.47924208321365,365.8344624080331 M489.47924208321365,365.8344624080331 L478.55359657444757,358.7402254707944 M478.55359657444757,358.7402254707944 L466.3472743174552,352.3839653415095 M466.3472743174552,352.3839653415095 L453.0085952870784,346.84140327123384 M453.0085952870784,346.84140327123384 L438.6990251226021,342.1784300379752 M438.6990251226021,342.1784300379752 L423.5912863494416,338.45039081670956 M423.5912863494416,338.45039081670956 L407.86731102792675,335.7014653616238 M407.86731102792675,335.7014653616238 L391.71612116757166,333.96419137925824 M391.71612116757166,333.96419137925824 L375.3316663672119,333.2591181715455 M375.3316663672119,333.2591181715455 L358.91054340098333,333.5945859584597 M358.91054340098333,333.5945859584597 L342.64979703412877,334.9666216736871 M342.64979703412877,334.9666216736871 L326.7446248997962,337.3590100078066 M326.7446248997962,337.3590100078066 L311.3861238492449,340.74342660101325 M311.3861238492449,340.74342660101325 L296.7591337742769,345.07979103346224 M296.7591337742769,345.07979103346224 L283.04003423803243,350.3166606527617 M283.04003423803243,350.3166606527617 L270.39473135050855,356.39182576745833 M505.9447931076296,369.56800655170144 L498.9908540615282,373.58197313932135 M506.16897930017274,294.59858074267686 L505.9447931076296,369.56800655170144 M263.3329201292085,277.5480304910466 L263.61922401737945,352.48085388964165 M505.9447931076296,369.56800655170144 L495.69506501497125,361.46017511659863 M495.69506501497125,361.46017511659863 L483.9776848951038,354.049591405351 M483.9776848951038,354.049591405351 L470.9336234588631,347.42341020232936 M470.9336234588631,347.42341020232936 L456.71915801788293,341.65935254530524 M456.71915801788293,341.65935254530524 L441.5038834818359,336.8248983058695 M441.5038834818359,336.8248983058695 L425.4688008720153,332.9765386404824 M425.4688008720153,332.9765386404824 L408.8042112365591,330.1591745613371 M408.8042112365591,330.1591745613371 L391.7075426566634,328.40564401962797 M391.7075426566634,328.40564401962797 L374.3810874758531,327.7363644383418 M374.3810874758531,327.7363644383418 L357.02974549488334,328.1591250030687 M357.02974549488334,328.1591250030687 L339.8586801176365,329.66900085504074 M339.8586801176365,329.66900085504074 L323.071040080512,332.2484145062016 M323.071040080512,332.2484145062016 L306.8656500593032,335.86732077185326 M306.8656500593032,335.86732077185326 L291.43471644902155,340.48349259742236 M291.43471644902155,340.48349259742236 L276.9617209901905,346.0430220222384 M276.9617209901905,346.0430220222384 L263.61922401737945,352.48085388964165 M270.39473135050855,356.39182576745833 L263.61922401737945,352.48085388964165" stroke="black"  stroke-width="4"  fill="red"/>
<path d="M292.42456310921114,417.45447058413504 L278.8710944432215,411.94431044017296 M278.8710944432215,411.94431044017296 L266.46711567947443,405.6085657882928 M266.46711567947443,405.6085657882928 L255.36397604902447,398.52605576728536 M255.36397604902447,398.52605576728536 L245.6965423651735,390.7846971565756 M245.6965423651735,390.7846971565756 L237.58156165082968,382.4803358744482 M237.58156165082968,382.4803358744482 L231.11630656640853,373.71552050410617 M231.11630656640853,373.71552050410617 L226.3774419766383,364.598173849627 M226.3774419766383,364.598173849627 L223.42019876028243,355.2402197673869 M223.42019876028243,355.2402197673869 L222.2778316364274,345.756189585936 M222.2778316364274,345.756189585936 L222.96135031992793,336.2617715214474 M222.96135031992793,336.2617715214474 L225.45950116088943,326.87242484594356 M225.45950116088943,326.87242484594356 L229.7390955219355,317.70196184099973 M229.7390955219355,317.70196184099973 L235.7454761784952,308.86118138364776 M235.7454761784952,308.86118138364776 L243.40338662409235,300.456589711102 M243.40338662409235,300.456589711102 L252.61791874154665,292.58912631908674 M252.61791874154665,292.58912631908674 L263.2758063163471,285.35303237475205 M256.48610531655476,281.44871349017393 L263.2758063163471,285.35303237475205 M285.3584379097902,421.51593387087854 L271.1683774249105,415.57520464933305 M271.1683774249105,415.57520464933305 L258.20645401275857,408.77686190139303 M258.20645401275857,408.77686190139303 L246.62864169598825,401.2044000179501 M246.62864169598825,401.2044000179501 L236.57353280155363,392.9506447910964 M236.57353280155363,392.9506447910964 L228.16076421672554,384.1164712473492 M228.16076421672554,384.1164712473492 L221.4896014846133,374.80954962128317 M221.4896014846133,374.80954962128317 L216.63783869919945,365.14296817851164 M216.63783869919945,365.14296817851164 L213.66098494768943,355.23381497680384 M213.66098494768943,355.23381497680384 L212.5917137950615,345.20171308767146 M212.5917137950615,345.20171308767146 L213.43963194296134,335.16737224130287 M213.43963194296134,335.16737224130287 L216.19131242951093,325.25110985446526 M216.19131242951093,325.25110985446526 L220.81062726616778,315.57143568899136 M220.81062726616778,315.57143568899136 L227.23932793776703,306.2436488083091 M227.23932793776703,306.2436488083091 L235.39782201361578,297.3784768904429 M235.39782201361578,297.3784768904429 L245.18633196068203,289.080859326753 M245.18633196068203,289.080859326753 L256.48610531655476,281.44871349017393 M292.42456310921114,417.45447058413504 L285.3584379097902,421.51593387087854 M263.5623570137206,360.3026194052155 L252.92700160787416,367.5542420505235 M252.92700160787416,367.5542420505235 L243.73199502695869,375.43857484385813 M243.73199502695869,375.43857484385813 L236.0903612339361,383.8611712585992 M236.0903612339361,383.8611712585992 L230.09680320907637,392.7208726358489 M230.09680320907637,392.7208726358489 L225.82641238433084,401.9109423737989 M225.82641238433084,401.9109423737989 L223.3337232596204,411.3203429050289 M223.3337232596204,411.3203429050289 L222.65184627250017,420.83501777892553 M222.65184627250017,420.83501777892553 L223.79200276265692,430.3392610640098 M223.79200276265692,430.3392610640098 L226.7431976891197,439.7171384432623 M226.7431976891197,439.7171384432623 L231.47223835434383,448.85387597545116 M231.47223835434383,448.85387597545116 L237.92400306718358,457.6373136971054 M237.92400306718358,457.6373136971054 L246.02198252066125,465.9593020517417 M246.02198252066125,465.9593020517417 L255.66910453316012,473.71707782278554 M255.66910453316012,473.71707782278554 L266.7488653150863,480.81459521300076 M266.7488653150863,480.81459521300076 L279.1266813267689,487.1637547128528 M279.1266813267689,487.1637547128528 L292.65152325218463,492.6855738596763 M263.5623570137206,360.3026194052155 L263.2758063163471,285.35303237475205 M292.65152325218463,492.6855738596763 L292.42456310921114,417.45447058413504 M256.786862999889,356.38991662292995 L263.5623570137206,360.3026194052155 M256.48610531655476,281.44871349017393 L256.786862999889,356.38991662292995 M285.3584379097902,421.51593387087854 L285.60041927234187,496.7556261844504 M256.786862999889,356.38991662292995 L245.5109796491622,364.03844786152086 M245.5109796491622,364.03844786152086 L235.74321420311233,372.3538637035187 M235.74321420311233,372.3538637035187 L227.60206501515714,381.2380330853527 M227.60206501515714,381.2380330853527 L221.18709375445405,390.5857884714206 M221.18709375445405,390.5857884714206 L216.5777180239328,400.2861624257429 M216.5777180239328,400.2861624257429 L213.8320553009611,410.2236072830384 M213.8320553009611,410.2236072830384 L212.98614833618313,420.2793588709808 M212.98614833618313,420.2793588709808 L214.05338629241527,430.3328426303036 M214.05338629241527,430.3328426303036 L217.02417324733395,440.26309200595733 M217.02417324733395,440.26309200595733 L221.86589550589628,449.9502305492597 M221.86589550589628,449.9502305492597 L228.52315287713873,459.2769232830787 M228.52315287713873,459.2769232830787 L236.91830841423987,468.12984447383445 M236.91830841423987,468.12984447383445 L246.95230058424355,476.4010987191433 M246.95230058424355,476.4010987191433 L258.5057413069777,483.98960084846425 M258.5057413069777,483.98960084846425 L271.4403290392072,490.802332383974 M271.4403290392072,490.802332383974 L285.60041927234187,496.7556261844504 M292.65152325218463,492.6855738596763 L285.60041927234187,496.7556261844504" stroke="black"  stroke-width="4"  fill="red"/>
<path d="M292.65152325218463,492.6855738596763 L292.42456310921114,417.45447058413504 M141.26919124357812,580.0667859482678 L140.71822960611672,504.65214774102634 M292.65152325218463,492.6855738596763 L141.26919124357812,580.0667859482678 M292.42456310921114,417.45447058413504 L140.71822960611672,504.65214774102634 M148.10122307077262,584.0772105676629 L147.56471311548515,508.65419248071714 M141.26919124357812,580.0667859482678 L148.10122307077262,584.0772105676629 M140.71822960611672,504.65214774102634 L147.56471311548515,508.65419248071714 M301.32229238181196,495.59532231357775 L301.1137016082034,420.35807818962604 M148.10122307077262,584.0772105676629 L301.32229238181196,495.59532231357775 M147.56471311548515,508.65419248071714 L301.1137016082034,420.35807818962604 M301.32229238181196,495.59532231357775 L298.3944601354744,494.66273721643057 M298.3944601354744,494.66273721643057 L295.5037271878158,493.6926537993208 M295.5037271878158,493.6926537993208 L292.65152325218463,492.6855738596763 M301.1137016082034,420.35807818962604 L298.17966535532156,419.4274610377259 M298.17966535532156,419.4274610377259 L295.28280826651815,418.4594249144962 M295.28280826651815,418.4594249144962 L292.42456310921114,417.45447058413504" stroke="black"  stroke-width="4"  fill="red"/>
<path d="M405.7434247892642,507.6937806404067 L405.75651076166827,432.43102504516827 M426.23906235904343,643.1917710759537 L426.2961179842567,567.6456754865025 M405.7434247892642,507.6937806404067 L426.23906235904343,643.1917710759537 M405.75651076166827,432.43102504516827 L426.2961179842567,567.6456754865025 M415.07039690513676,507.2207214866762 L405.7434247892642,507.6937806404067 M415.10329501396217,431.9589627558113 L405.75651076166827,432.43102504516827 M415.07039690513676,507.2207214866762 L415.10329501396217,431.9589627558113 M435.97684907121425,642.6940915151463 L436.0547458137558,567.1490286332865 M426.23906235904343,643.1917710759537 L435.97684907121425,642.6940915151463 M426.2961179842567,567.6456754865025 L436.0547458137558,567.1490286332865 M415.07039690513676,507.2207214866762 L415.44374234033876,507.4370417127723 M434.6641636022564,634.0471265941806 L415.44374234033876,507.4370417127723 M434.6641636022564,634.0471265941806 L434.12956037461583,634.3595990189827 M434.12956037461583,634.3595990189827 L434.76813749280836,634.7320057574542 M435.97684907121425,642.6940915151463 L434.76813749280836,634.7320057574542 M415.10329501396217,431.9589627558113 L415.47743392452077,432.1748271297175 M434.7392144502417,558.5200159600143 L415.47743392452077,432.1748271297175 M434.7392144502417,558.5200159600143 L434.203468802381,558.8318393408201 M434.203468802381,558.8318393408201 L434.843413656625,559.2034725746237 M436.0547458137558,567.1490286332865 L434.843413656625,559.2034725746237 M415.47743392452077,432.1748271297175 L415.44374234033876,507.4370417127723 M434.843413656625,559.2034725746237 L434.76813749280836,634.7320057574542 M434.6641636022564,634.0471265941806 L434.7392144502417,558.5200159600143 M434.12956037461583,634.3595990189827 L434.203468802381,558.8318393408201" stroke="black"  stroke-width="4"  fill="red"/>
<path d="M524.7635342275557,444.03063491432107 L741.0643070503143,454.95805486242745 M741.7875545125676,379.80675556987575 L741.0643070503143,454.95805486242745 M525.0284993083651,368.90251332248533 L741.7875545125676,379.80675556987575 M524.7635342275557,444.03063491432107 L525.0284993083651,368.90251332248533 M756.4664406000934,450.13045527708124 L525.165347635083,438.4489122057562 M755.7351643918776,455.69922423353376 L756.4664406000934,450.13045527708124 M742.2267768293073,455.01678447865226 L755.7351643918776,455.69922423353376 M742.2267768293073,455.01678447865226 L741.5882780498073,454.65179691209636 M741.5882780498073,454.65179691209636 L741.0643070503143,454.95805486242745 M524.7635342275557,444.03063491432107 L524.3901948655755,443.8158510092895 M525.165347635083,438.4489122057562 L524.3901948655755,443.8158510092895 M742.3126227586258,379.5011468238348 L741.7875545125676,379.80675556987575 M741.5882780498073,454.65179691209636 L742.3126227586258,379.5011468238348 M757.2221035858736,374.989392105257 L525.4310795044403,363.3326407351616 M756.4895158474344,380.5463539056515 L757.2221035858736,374.989392105257 M742.9524887735236,379.8653606938612 L756.4895158474344,380.5463539056515 M742.9524887735236,379.8653606938612 L742.3126227586258,379.5011468238348 M525.0284993083651,368.90251332248533 L524.6543665097261,368.6881852713637 M525.4310795044403,363.3326407351616 L524.6543665097261,368.6881852713637 M524.6543665097261,368.6881852713637 L524.3901948655755,443.8158510092895 M756.4664406000934,450.13045527708124 L757.2221035858736,374.989392105257 M525.165347635083,438.4489122057562 L525.4310795044403,363.3326407351616 M755.7351643918776,455.69922423353376 L756.4895158474344,380.5463539056515 M742.2267768293073,455.01678447865226 L742.9524887735236,379.8653606938612" stroke="black"  stroke-width="4"  fill="red"/>
<path d="M270.39473135050855,356.39182576745833 L270.12263453263495,281.4506185430174 M152.25795004927647,288.20067687063977 L151.73904768076952,213.4061701101957 M270.39473135050855,356.39182576745833 L152.25795004927647,288.20067687063977 M270.12263453263495,281.4506185430174 L151.73904768076952,213.4061701101957 M145.425903031068,292.08134561415847 L144.89254885141872,217.2784606443712 M152.25795004927647,288.20067687063977 L145.425903031068,292.08134561415847 M151.73904768076952,213.4061701101957 L144.89254885141872,217.2784606443712 M263.5623570137206,360.3026194052155 L263.2758063163471,285.35303237475205 M145.425903031068,292.08134561415847 L263.5623570137206,360.3026194052155 M144.89254885141872,217.2784606443712 L263.2758063163471,285.35303237475205 M263.5623570137206,360.3026194052155 L265.79141000000425,358.97088844530884 M265.79141000000425,358.97088844530884 L268.0692193698931,357.66709362806057 M268.0692193698931,357.66709362806057 L270.39473135050855,356.39182576745833 M263.2758063163471,285.35303237475205 L265.5095764551658,284.02415455688845 M265.5095764551658,284.02415455688845 L267.7922045277374,282.72315343905564 M267.7922045277374,282.72315343905564 L270.12263453263495,281.4506185430174" stroke="black"  stroke-width="4"  fill="red"/>
<path d="M504.00923050668416,378.5479534995586 L504.22944896376043,303.5593195727489 M653.7405075094405,292.08134561415847 L654.2738616890897,217.2784606443712 M504.00923050668416,378.5479534995586 L653.7405075094405,292.08134561415847 M504.22944896376043,303.5593195727489 L654.2738616890897,217.2784606443712 M646.9084604912321,288.20067687063977 L647.4273628597389,213.4061701101957 M653.7405075094405,292.08134561415847 L646.9084604912321,288.20067687063977 M654.2738616890897,217.2784606443712 L647.4273628597389,213.4061701101957 M498.9908540615282,373.58197313932135 L499.20043057625065,298.6039590802149 M646.9084604912321,288.20067687063977 L498.9908540615282,373.58197313932135 M647.4273628597389,213.4061701101957 L499.20043057625065,298.6039590802149 M498.9908540615282,373.58197313932135 L500.7271222778024,375.21554447697685 M500.7271222778024,375.21554447697685 L502.400199790441,376.8711379136611 M502.400199790441,376.8711379136611 L504.00923050668416,378.5479534995586 M499.20043057625065,298.6039590802149 L500.94037901862487,300.2340363391349 M500.94037901862487,300.2340363391349 L502.61700445859015,301.8860892411663 M502.61700445859015,301.8860892411663 L504.22944896376043,303.5593195727489" stroke="black"  stroke-width="4"  fill="red"/></svg>