<svg viewBox="0 0 800 800" xmlns="http://www.w3.org/2000/svg"><path d="M426.69177858960717,573.9125109418417 L400.98156760965867,574.4867480173746 M400.98156760965867,574.4867480173746 L375.2658005269265,574.000913819387 M375.2658005269265,574.000913819387 L349.6778280181769,572.4575862123445 M349.6778280181769,572.4575862123445 L324.35033286205663,569.8650653697383 M324.35033286205663,569.8650653697383 L299.41447431394874,566.2372363335188 M299.41447431394874,566.2372363335188 L274.9992096358573,561.5935071435349 M274.9992096358573,561.5935071435349 L251.23049697494713,555.9587111794295 M251.23049697494713,555.9587111794295 L228.2306406269788,549.3629243950045 M228.2306406269788,549.3629243950045 L206.11762136941923,541.8412754455566 M206.11762136941923,541.8412754455566 L185.0044302683664,533.4337285591442 M185.0044302683664,533.4337285591442 L164.99845032230832,524.1848499232287 M426.69177858960717,573.9125109418417 L426.6436043858845,637.7058939798762 M165.41979868810782,587.891029801875 L185.39009346067976,597.1561649846454 M185.39009346067976,597.1561649846454 L206.46555805838642,605.5784747282075 M206.46555805838642,605.5784747282075 L228.53900413404202,613.1133189560668 M228.53900413404202,613.1133189560668 L251.4976466761088,619.7206674267751 M251.4976466761088,619.7206674267751 L275.2237211621044,625.3653336491418 M275.2237211621044,625.3653336491418 L299.59514843493173,630.0171922926127 M299.59514843493173,630.0171922926127 L324.4862030212579,633.6513693047574 M324.4862030212579,633.6513693047574 L349.7681665243035,636.2484249222215 M349.7681665243035,636.2484249222215 L375.3101231264971,637.7944514399938 M375.3101231264971,637.7944514399938 L400.97963664028845,638.2811351468057 M400.97963664028845,638.2811351468057 L426.6436043858845,637.7058939798762 M164.99845032230832,524.1848499232287 L165.41979868810782,587.891029801875 M425.8272472421038,568.2174544946898 L399.89974864308186,568.771040940046 M399.89974864308186,568.771040940046 L373.9722780702534,568.2167454425369 M373.9722780702534,568.2167454425369 L348.18924787566726,566.5577476784933 M348.18924787566726,566.5577476784933 L322.69421035224707,563.8036038414925 M322.69421035224707,563.8036038414925 L297.62888178837295,559.970137229416 M297.62888178837295,559.970137229416 L273.13245726525827,555.0793603894103 M273.13245726525827,555.0793603894103 L249.34055721014175,549.1593215940466 M249.34055721014175,549.1593215940466 L226.38463601673857,542.2438958965257 M226.38463601673857,542.2438958965257 L204.39098737032936,534.3726026375602 M204.39098737032936,534.3726026375602 L183.48020006496927,525.5902835133575 M183.48020006496927,525.5902835133575 L180.7071282344273,526.079746939672 M180.7071282344273,526.079746939672 L177.89013487673424,526.4735758122483 M177.89013487673424,526.4735758122483 L175.03912816181654,526.770355534984 M175.03912816181654,526.770355534984 L175.57961991961352,525.7733519020928 M175.57961991961352,525.7733519020928 L176.04979354349345,524.764799260897 M176.04979354349345,524.764799260897 L176.4488777205338,523.7463762379407 M176.4488777205338,523.7463762379407 L172.65644056309216,524.085167605173 M172.65644056309216,524.085167605173 L168.8299231237632,524.2317124331342 M168.8299231237632,524.2317124331342 L164.99845032230832,524.1848499232287 M425.8272472421038,568.2174544946898 L426.69177858960717,573.9125109418417 M425.7806427782843,632.0008757673604 L426.6436043858845,637.7058939798762 M425.8272472421038,568.2174544946898 L425.7806427782843,632.0008757673604 M183.86842884182616,589.298934797582 L204.74187805940045,598.0966883409567 M204.74187805940045,598.0966883409567 L226.69619173088847,605.9818017865798 M226.69619173088847,605.9818017865798 L249.61100043889198,612.90935912292 M249.61100043889198,612.90935912292 L273.3602415032434,618.8397757364063 M273.3602415032434,618.8397757364063 L297.81270206021793,623.7391207931587 M297.81270206021793,623.7391207931587 L322.833011792212,627.5792999494089 M322.833011792212,627.5792999494089 L348.28223306063353,630.3382645747935 M348.28223306063353,630.3382645747935 L374.0189122527928,632.0001654745314 M374.0189122527928,632.0001654745314 L399.89976352901624,632.5554308291422 M399.89976352901624,632.5554308291422 L425.7806427782843,632.0008757673604 M183.86842884182616,589.298934797582 L181.1003420851367,589.7892588350386 M181.1003420851367,589.7892588350386 L178.2884107400706,590.1837801320285 M178.2884107400706,590.1837801320285 L175.4425250946267,590.4810816281486 M175.4425250946267,590.4810816281486 L175.9820248842192,589.4823250764571 M175.9820248842192,589.4823250764571 L176.45133252022788,588.4719990081242 M176.45133252022788,588.4719990081242 L176.84967809103728,587.45178499487 M176.84967809103728,587.45178499487 L173.06405081768025,587.791172180907 M173.06405081768025,587.791172180907 L169.2444002057033,587.9379747242475 M169.2444002057033,587.9379747242475 L165.41979868810782,587.891029801875 M176.84967809103728,587.45178499487 L176.4488777205338,523.7463762379407 M183.48020006496927,525.5902835133575 L183.86842884182616,589.298934797582 M175.4425250946267,590.4810816281486 L175.03912816181654,526.770355534984" stroke="black"  stroke-width="4"  fill="red"/>
<path d="M125.07259400988511,493.708455453586 L123.31757482532089,493.9319547123186 M123.31757482532089,493.9319547123186 L121.57904325034383,494.19662716364496 M121.57904325034383,494.19662716364496 L119.8598754793378,494.50203598603827 M119.8598754793378,494.50203598603827 L120.39594556080124,492.85519044342834 M120.39594556080124,492.85519044342834 L121.09847115889585,491.2289488515612 M121.09847115889585,491.2289488515612 L121.96491067194421,489.62899355436747 M121.96491067194421,489.62899355436747 L107.52707960568057,477.8920697498941 M107.52707960568057,477.8920697498941 L94.59188038082624,465.60012036892863 M94.59188038082624,465.60012036892863 L83.22257128003241,452.8173373315906 M83.22257128003241,452.8173373315906 L73.47402163699479,439.6101972597898 M73.47402163699479,439.6101972597898 L65.39243076015521,426.04710091909277 M65.39243076015521,426.04710091909277 L59.01516830052054,412.1979754520719 M59.01516830052054,412.1979754520719 L54.3706901253729,398.13390683594326 M54.3706901253729,398.13390683594326 L51.47845007830722,383.92674257573 M51.47845007830722,383.92674257573 L50.34891655241728,369.6486994725954 M50.34891655241728,369.6486994725954 L50.983526327035804,355.3720483414302 M50.983526327035804,355.3720483414302 L48.74748005555591,354.35666531952444 M48.74748005555591,354.35666531952444 L46.621328937556086,353.2666139992358 M46.621328937556086,353.2666139992358 L44.612514606586785,352.10572836754017 M44.612514606586785,352.10572836754017 L46.31186219634964,351.7911546157635 M46.31186219634964,351.7911546157635 L47.988233494615486,351.43721419218224 M47.988233494615486,351.43721419218224 L49.6388336760952,351.0444684171884 M49.6388336760952,351.0444684171884 L47.04485147360316,349.4686733195982 M47.04485147360316,349.4686733195982 L44.70184640222328,347.7680805133978 M44.70184640222328,347.7680805133978 L42.62751071590708,345.95560155594 M42.62751071590708,345.95560155594 L40.817419092459716,360.9236591374122 M40.817419092459716,360.9236591374122 L40.900146656580546,375.94050833097805 M40.900146656580546,375.94050833097805 L42.880042075834695,390.9269008422485 M42.880042075834695,390.9269008422485 L46.7514333222789,405.80334047035603 M46.7514333222789,405.80334047035603 L52.49847990815721,420.4905227839951 M52.49847990815721,420.4905227839951 L60.09524578721414,434.9097443740347 M60.09524578721414,434.9097443740347 L69.50561907962935,448.9834139947072 M69.50561907962935,448.9834139947072 L80.68359283349616,462.63536521833845 M80.68359283349616,462.63536521833845 L93.57324990724055,475.79142912800063 M93.57324990724055,475.79142912800063 L108.1090943185419,488.37979517295537 M108.1090943185419,488.37979517295537 L124.21631782176667,500.3314551473491 M124.21631782176667,500.3314551473491 L124.1699047991147,498.11335055371217 M124.1699047991147,498.11335055371217 L124.45611732944315,495.9000957011842 M124.45611732944315,495.9000957011842 L125.07259400988511,493.708455453586 M125.56471813756679,557.3609461386552 L125.07259400988511,493.708455453586 M120.36135580043424,558.1559270583746 L119.8598754793378,494.50203598603827 M125.56471813756679,557.3609461386552 L123.81284769736135,557.5848398068424 M123.81284769736135,557.5848398068424 L122.07743656767207,557.8499793130453 M122.07743656767207,557.8499793130453 L120.36135580043424,558.1559270583746 M120.36135580043424,558.1559270583746 L120.89641990638228,556.5061752783223 M120.89641990638228,556.5061752783223 L121.59764226415803,554.8770632751572 M121.59764226415803,554.8770632751572 L122.46248605691329,553.2742834454132 M121.96491067194421,489.62899355436747 L122.46248605691329,553.2742834454132 M51.60348765184642,418.77849263520346 L50.97050458172936,433.0807141267357 M50.97050458172936,433.0807141267357 L52.09852714268794,447.384289159741 M52.09852714268794,447.384289159741 L54.98611105835869,461.6168179834245 M54.98611105835869,461.6168179834245 L59.622796680316696,475.70595577939014 M59.622796680316696,475.70595577939014 L65.98915526911799,489.57972848843747 M65.98915526911799,489.57972848843747 L74.05677264725216,503.16692570765366 M74.05677264725216,503.16692570765366 L83.78833746870362,516.3974986553634 M83.78833746870362,516.3974986553634 L95.13772536743267,529.2029283034153 M95.13772536743267,529.2029283034153 L108.05015846063031,541.5166237733356 M108.05015846063031,541.5166237733356 L122.46248605691329,553.2742834454132 M50.983526327035804,355.3720483414302 L51.60348765184642,418.77849263520346 M51.60348765184642,418.77849263520346 L49.37137867508409,417.7612894412848 M49.37137867508409,417.7612894412848 L47.24896652225408,416.6692838684897 M47.24896652225408,416.6692838684897 L45.24367973176243,415.5063167296913 M45.24367973176243,415.5063167296913 L44.612514606586785,352.10572836754017 M50.26103261144101,414.4431536677303 L49.6388336760952,351.0444684171884 M45.24367973176243,415.5063167296913 L46.939997388280744,415.19117888997624 M46.939997388280744,415.19117888997624 L48.6133782894035,414.8366037631052 M48.6133782894035,414.8366037631052 L50.26103261144101,414.4431536677303 M50.26103261144101,414.4431536677303 L47.671602602066116,412.8645323477773 M47.671602602066116,412.8645323477773 L45.33269872954594,411.16088893256665 M45.33269872954594,411.16088893256665 L43.26198233102809,409.3451580199545 M42.62751071590708,345.95560155594 L43.26198233102809,409.3451580199545 M124.21631782176667,500.3314551473491 L124.71015782825572,563.9956291951015 M43.26198233102809,409.3451580199545 L41.45564272091332,424.34005156961587 M41.45564272091332,424.34005156961587 L41.538762464508295,439.3837790119227 M41.538762464508295,439.3837790119227 L43.51567112736302,454.3969501255648 M43.51567112736302,454.3969501255648 L47.380695467284,469.2999272937217 M47.380695467284,469.2999272937217 L53.118012173979764,484.01326595496766 M53.118012173979764,484.01326595496766 L60.701720876074376,498.45812455625685 M60.701720876074376,498.45812455625685 L70.0957642390353,512.5567765557826 M70.0957642390353,512.5567765557826 L81.25420843460097,526.2329235676073 M81.25420843460097,526.2329235676073 L94.12122824912171,539.4122689883361 M94.12122824912171,539.4122689883361 L108.63143800942385,552.0228793942157 M108.63143800942385,552.0228793942157 L124.71015782825572,563.9956291951015 M124.71015782825572,563.9956291951015 L124.66376677312542,561.7736127146198 M124.66376677312542,561.7736127146198 L124.9494057072983,559.5564535439155 M124.9494057072983,559.5564535439155 L125.56471813756679,557.3609461386552 M53.27005428841119,313.4089424174397 L56.35132457962982,312.125601749486 M56.35132457962982,312.125601749486 L59.61192737340582,310.9995386567014 M59.61192737340582,310.9995386567014 L63.02721028303597,310.03919825075496 M63.02721028303597,310.03919825075496 L61.73334611783105,309.35040530368195 M61.73334611783105,309.35040530368195 L60.39114379813208,308.6927544212682 M60.39114379813208,308.6927544212682 L59.002811973693156,308.06736893580387 M59.002811973693156,308.06736893580387 L61.6095656404072,307.37953041167117 M61.6095656404072,307.37953041167117 L64.28069453693627,306.78072422652974 M64.28069453693627,306.78072422652974 L67.00692634139193,306.2730127776604 M67.00692634139193,306.2730127776604 L74.92238086938619,293.5496353192638 M74.92238086938619,293.5496353192638 L84.29790718413585,281.1694687050814 M84.29790718413585,281.1694687050814 L95.08840383768523,269.18731858168996 M95.08840383768523,269.18731858168996 L107.24266419136143,257.65597054461125 M107.24266419136143,257.65597054461125 L120.70378287367521,246.6260683661013 M120.70378287367521,246.6260683661013 L135.4093222747194,236.14584552703366 M135.4093222747194,236.14584552703366 L151.2915653994884,226.26092291725618 M144.53529396227586,222.37321629172163 L151.2915653994884,226.26092291725618 M144.53529396227586,222.37321629172163 L128.86697504992753,232.08577303222214 M128.86697504992753,232.08577303222214 L114.30455552885843,242.36193173727523 M114.30455552885843,242.36193173727523 L100.90950762297746,253.16067700470632 M100.90950762297746,253.16067700470632 L88.73883412251223,264.43873461093483 M88.73883412251223,264.43873461093483 L77.84482585285639,276.1507476492208 M77.84482585285639,276.1507476492208 L68.27482101255583,288.2494193612371 M68.27482101255583,288.2494193612371 L60.07099161623091,300.6856976730152 M60.07099161623091,300.6856976730152 L53.27005428841119,313.4089424174397 M53.88449808822429,376.7399913199422 L56.96026248055449,375.4543392943788 M56.96026248055449,375.4543392943788 L60.215047684262174,374.32624783604393 M60.215047684262174,374.32624783604393 L63.624245193936986,373.3641773779502 M63.624245193936986,373.3641773779502 L63.02721028303597,310.03919825075496 M53.27005428841119,313.4089424174397 L53.88449808822429,376.7399913199422 M59.606911865600125,371.3887952343792 L59.002811973693156,308.06736893580387 M63.624245193936986,373.3641773779502 L62.33265077366116,372.674143457148 M62.33265077366116,372.674143457148 L60.99280473847199,372.015307619671 M60.99280473847199,372.015307619671 L59.606911865600125,371.3887952343792 M59.606911865600125,371.3887952343792 L62.209022969665625,370.6997171838494 M62.209022969665625,370.6997171838494 L64.87539858391881,370.0998318366057 M64.87539858391881,370.0998318366057 L67.5967828246703,369.5912053392022 M67.00692634139193,306.2730127776604 L67.5967828246703,369.5912053392022 M151.7300910784813,289.43426296700613 L135.8761235831795,299.3371506535421 M135.8761235831795,299.3371506535421 L121.196829968575,309.83639905703296 M121.196829968575,309.83639905703296 L107.75980516391172,320.8863008602415 M107.75980516391172,320.8863008602415 L95.62737301015699,332.4385316382899 M95.62737301015699,332.4385316382899 L84.8563339006729,344.44235260362717 M84.8563339006729,344.44235260362717 L75.49779864806987,356.8448796348886 M75.49779864806987,356.8448796348886 L67.5967828246703,369.5912053392022 M151.2915653994884,226.26092291725618 L151.7300910784813,289.43426296700613 M144.98563748445466,285.53948536282365 L151.7300910784813,289.43426296700613 M144.53529396227586,222.37321629172163 L144.98563748445466,285.53948536282365 M144.98563748445466,285.53948536282365 L129.34521257147446,295.26970166718115 M129.34521257147446,295.26970166718115 L114.80878121645179,305.56452406969333 M114.80878121645179,305.56452406969333 L101.43770487490917,316.3828593187379 M101.43770487490917,316.3828593187379 L89.28888254478636,327.6813514333997 M89.28888254478636,327.6813514333997 L78.41450870214464,339.41455822815374 M78.41450870214464,339.41455822815374 L68.86183311658294,351.5350944674459 M68.86183311658294,351.5350944674459 L60.67294773917246,363.99381679611787 M60.67294773917246,363.99381679611787 L53.88449808822429,376.7399913199422" stroke="black"  stroke-width="4"  fill="red"/>
<path d="M158.15701935914822,222.37357211071955 L176.74812811367346,212.83976367047995 M176.74812811367346,212.83976367047995 L196.4613208257344,204.0959984884426 M196.4613208257344,204.0959984884426 L217.19596456977501,196.1850165085063 M217.19596456977501,196.1850165085063 L238.84669832572402,189.14534624204754 M238.84669832572402,189.14534624204754 L261.3040038429957,183.01121997905702 M261.3040038429957,183.01121997905702 L284.454650376086,177.8123427537843 M284.454650376086,177.8123427537843 L308.18237394740714,173.57391277290552 M308.18237394740714,173.57391277290552 L332.368200557741,170.31639040686179 M332.368200557741,170.31639040686179 L356.89115321853626,168.05547799743576 M356.89115321853626,168.05547799743576 L358.2277765845568,166.63229998850724 M358.2277765845568,166.63229998850724 L359.70938928289775,165.25658355715336 M359.70938928289775,165.25658355715336 L361.3308186876873,163.933100227666 M361.3308186876873,163.933100227666 L362.15297579934537,164.8179360975123 M362.15297579934537,164.8179360975123 L363.03796602846853,165.683026683525 M363.03796602846853,165.683026683525 L363.9843224228197,166.52693714012395 M363.9843224228197,166.52693714012395 L366.20831414665383,164.80368581760317 M366.20831414665383,164.80368581760317 L368.68636842003974,163.1969771510099 M368.68636842003974,163.1969771510099 L371.3997519433247,161.7188648531943 M371.3997519433247,161.7188648531943 L347.003002975706,163.32040618104713 M347.003002975706,163.32040618104713 L322.8505235746142,165.87728646169847 M322.8505235746142,165.87728646169847 L299.0539646395182,169.37810981427944 M299.0539646395182,169.37810981427944 L275.72356399480935,173.8072826954572 M275.72356399480935,173.8072826954572 L252.96756906033423,179.14501016787062 M252.96756906033423,179.14501016787062 L230.89185912330277,185.36740382531923 M230.89185912330277,185.36740382531923 L209.59945565842816,192.44655464279433 M209.59945565842816,192.44655464279433 L189.1901358327166,200.35065440740217 M189.1901358327166,200.35065440740217 L169.75992191961157,209.0440890248248 M169.75992191961157,209.0440890248248 L151.40072367838658,218.4875821027215 M158.15701935914822,222.37357211071955 L151.40072367838658,218.4875821027215 M158.15701935914822,222.37357211071955 L158.5833413128639,285.53984182912563 M356.96677870768497,231.12263635530954 L332.48695371135994,233.38768594683975 M332.48695371135994,233.38768594683975 L308.34368216588206,236.65116735993166 M308.34368216588206,236.65116735993166 L284.6577349807219,240.89734759141828 M284.6577349807219,240.89734759141828 L261.5478829331621,246.10572638380262 M261.5478829331621,246.10572638380262 L239.13019072393516,252.25105651457127 M239.13019072393516,252.25105651457127 L217.5176941983363,259.30357529887976 M217.5176941983363,259.30357529887976 L196.81972215653573,267.2289842066567 M196.81972215653573,267.2289842066567 L177.14145230340563,275.9886804105956 M177.14145230340563,275.9886804105956 L158.5833413128639,285.53984182912563 M356.89115321853626,168.05547799743576 L356.96677870768497,231.12263635530954 M356.96677870768497,231.12263635530954 L358.3010462999837,229.69685358535148 M358.3010462999837,229.69685358535148 L359.780048939849,228.31861887265148 M359.780048939849,228.31861887265148 L361.39862315013323,226.99271251714393 M361.39862315013323,226.99271251714393 L361.3308186876873,163.933100227666 M364.0474723273467,229.59129788122732 L363.9843224228197,166.52693714012395 M361.39862315013323,226.99271251714393 L362.2193385551567,227.8791683786087 M362.2193385551567,227.8791683786087 L363.10277641080097,228.74584265385056 M363.10277641080097,228.74584265385056 L364.0474723273467,229.59129788122732 M364.0474723273467,229.59129788122732 L366.2675487108282,227.86489200998304 M366.2675487108282,227.86489200998304 L368.741242248161,226.25524159820577 M368.741242248161,226.25524159820577 L371.449852631933,224.7744225463698 M371.3997519433247,161.7188648531943 L371.449852631933,224.7744225463698 M151.40072367838658,218.4875821027215 L151.83886360332082,281.64678093262125 M371.449852631933,224.7744225463698 L347.09598719595465,226.378896634544 M347.09598719595465,226.378896634544 L322.9859771462416,228.94045803553283 M322.9859771462416,228.94045803553283 L299.23128370163136,232.44768854470288 M299.23128370163136,232.44768854470288 L275.9419569928039,236.88496410870266 M275.9419569928039,236.88496410870266 L253.22605960429422,242.23245113107362 M253.22605960429422,242.23245113107362 L231.18928937939307,248.46621464967694 M231.18928937939307,248.46621464967694 L209.93449048370567,255.5582913845291 M209.93449048370567,255.5582913845291 L189.56126748860402,263.47681146396053 M189.56126748860402,263.47681146396053 L170.16547559994666,272.1860919823505 M170.16547559994666,272.1860919823505 L151.83886360332082,281.64678093262125 M158.5833413128639,285.53984182912563 L151.83886360332082,281.64678093262125 M428.41630255200465,161.7188648531944 L431.12968607528956,163.1969771510099 M431.12968607528956,163.1969771510099 L433.6077403486755,164.80368581760317 M433.6077403486755,164.80368581760317 L435.83173207250974,166.52693714012395 M435.83173207250974,166.52693714012395 L436.7780884668608,165.683026683525 M436.7780884668608,165.683026683525 L437.66307869598404,164.8179360975123 M437.66307869598404,164.8179360975123 L438.4852358076419,163.933100227666 M438.4852358076419,163.933100227666 L440.1066652124316,165.25658355715336 M440.1066652124316,165.25658355715336 L441.58827791077255,166.63229998850724 M441.58827791077255,166.63229998850724 L442.9249012767931,168.05547799743576 M442.9249012767931,168.05547799743576 L465.79263377824566,170.131250864007 M465.79263377824566,170.131250864007 L488.374632763783,173.0737620685391 M488.374632763783,173.0737620685391 L510.5727347592767,176.87069034587145 M510.5727347592767,176.87069034587145 L532.2903328344332,181.50607781827702 M532.2903328344332,181.50607781827702 L553.4326500983072,186.96046842643 M553.4326500983072,186.96046842643 L573.9071802209169,193.2108831776138 M573.9071802209169,193.2108831776138 L593.6240877119976,200.23095538810833 M593.6240877119976,200.23095538810833 L612.4964635298204,207.99100522145034 M612.4964635298204,207.99100522145034 L615.2086735749738,207.51877933923902 M615.2086735749738,207.51877933923902 L617.9660360871612,207.13885718311562 M617.9660360871612,207.13885718311562 L620.7589361988337,206.85257910787448 M620.7589361988337,206.85257910787448 L620.2524225201096,207.81437800188766 M620.2524225201096,207.81437800188766 L619.8151551566395,208.78753417074935 M619.8151551566395,208.78753417074935 L619.4478726061413,209.77043489435655 M619.4478726061413,209.77043489435655 L623.1654168927105,209.44343586286436 M623.1654168927105,209.44343586286436 L626.9209950351926,209.30199943329507 M626.9209950351926,209.30199943329507 L630.6862620077773,209.34722786618465 M630.6862620077773,209.34722786618465 L611.2165527728898,200.59724854671256 M611.2165527728898,200.59724854671256 L590.7576715504617,192.64133001819602 M590.7576715504617,192.64133001819602 L569.4065710504467,185.51561596501807 M569.4065710504467,185.51561596501807 L547.2640874018703,179.25234665323362 M547.2640874018703,179.25234665323362 L524.4342915611103,173.8798349398666 M524.4342915611103,173.8798349398666 L501.02422636639267,169.4222977468359 M501.02422636639267,169.4222977468359 L477.14335970829785,165.8997803647356 M477.14335970829785,165.8997803647356 L452.90307900056325,163.32812285411308 M452.90307900056325,163.32812285411308 L428.41630255200465,161.7188648531944 M428.36620186339627,224.7744225463699 L431.0748122471683,226.25524159820577 M431.0748122471683,226.25524159820577 L433.5485057845011,227.86489200998304 M433.5485057845011,227.86489200998304 L435.7685821679827,229.59129788122732 M435.7685821679827,229.59129788122732 L435.83173207250974,166.52693714012395 M428.41630255200465,161.7188648531944 L428.36620186339627,224.7744225463699 M438.41743134519606,226.99271251714393 L438.4852358076419,163.933100227666 M435.7685821679827,229.59129788122732 L436.71327808452827,228.74584265385056 M436.71327808452827,228.74584265385056 L437.5967159401727,227.8791683786087 M437.5967159401727,227.8791683786087 L438.41743134519606,226.99271251714393 M438.41743134519606,226.99271251714393 L440.0360055554803,228.31861887265148 M440.0360055554803,228.31861887265148 L441.5150081953457,229.69685358535148 M441.5150081953457,229.69685358535148 L442.84927578764444,231.12263635530954 M442.9249012767931,168.05547799743576 L442.84927578764444,231.12263635530954 M612.1218748747926,271.13108948502975 L593.2829032349694,263.35689415817006 M593.2829032349694,263.35689415817006 L573.6008445323298,256.3240149153915 M573.6008445323298,256.3240149153915 L553.1624569978451,250.06218892632216 M553.1624569978451,250.06218892632216 L532.057421024924,244.5978339545994 M532.057421024924,244.5978339545994 L510.37808393480407,239.95397362118743 M510.37808393480407,239.95397362118743 L488.21906031406235,236.15010185889332 M488.21906031406235,236.15010185889332 L465.67679216624083,233.20220766075016 M465.67679216624083,233.20220766075016 L442.84927578764444,231.12263635530954 M612.4964635298204,207.99100522145034 L612.1218748747926,271.13108948502975 M612.1218748747926,271.13108948502975 L614.8293160751612,270.6580031460536 M614.8293160751612,270.6580031460536 L617.5818284295451,270.2773886900201 M617.5818284295451,270.2773886900201 L620.3698139102185,269.99058893538756 M620.3698139102185,269.99058893538756 L620.7589361988337,206.85257910787448 M619.0609962384151,272.91376110725037 L619.4478726061413,209.77043489435655 M620.3698139102185,269.99058893538756 L619.8641714723731,270.95414043302054 M619.8641714723731,270.95414043302054 L619.4276531774358,271.9290697118721 M619.4276531774358,271.9290697118721 L619.0609962384151,272.91376110725037 M619.0609962384151,272.91376110725037 L622.7719967154148,272.58616636272285 M622.7719967154148,272.58616636272285 L626.5209600567641,272.44447226358454 M626.5209600567641,272.44447226358454 L630.2795909525321,272.4897830942879 M630.6862620077773,209.34722786618465 L630.2795909525321,272.4897830942879 M630.2795909525321,272.4897830942879 L610.8443756374475,263.72385529020875 M610.8443756374475,263.72385529020875 L590.4216804582991,255.75342226070956 M590.4216804582991,255.75342226070956 L569.1082894094664,248.6146975150457 M569.1082894094664,248.6146975150457 L547.0048641690269,242.3399838127845 M547.0048641690269,242.3399838127845 L524.2152965620487,236.9576490466481 M524.2152965620487,236.9576490466481 L500.8464459755864,232.49195733365403 M500.8464459755864,232.49195733365403 L477.0075933710912,228.96299311444204 M477.0075933710912,228.96299311444204 L452.80993650991905,226.3866274372211 M452.80993650991905,226.3866274372211 L428.36620186339627,224.7744225463699" stroke="black"  stroke-width="4"  fill="red"/>
<path d="M671.4684842237502,232.42995644062023 L671.581109321688,234.58261247792592 M671.581109321688,234.58261247792592 L671.3658410696999,236.73161922959486 M671.3658410696999,236.73161922959486 L670.8242609762272,238.86068036539896 M670.8242609762272,238.86068036539896 L672.5474826329885,238.64351532462834 M672.5474826329885,238.64351532462834 L674.2531119832249,238.38635793423703 M674.2531119832249,238.38635793423703 L675.9383056389204,238.08963962855807 M675.9383056389204,238.08963962855807 L675.460344502706,239.68986209787482 M675.460344502706,239.68986209787482 L674.8174514249501,241.2706387771174 M674.8174514249501,241.2706387771174 L674.0118747266763,242.82642180868208 M674.0118747266763,242.82642180868208 L689.0886571726244,254.64632251721085 M689.0886571726244,254.64632251721085 L702.6375080671444,267.0754616227718 M702.6375080671444,267.0754616227718 L714.5834677765704,280.0492831536902 M714.5834677765704,280.0492831536902 L724.8595702718083,293.5001568956803 M724.8595702718083,293.5001568956803 L733.4073547583573,307.3575853692944 M733.4073547583573,307.3575853692944 L740.177171917323,321.5486618842745 M740.177171917323,321.5486618842745 L745.1285577554584,335.9983010371347 M745.1285577554584,335.9983010371347 L748.2305453638237,350.6297326050534 M748.2305453638237,350.6297326050534 L749.4618705713524,365.36479171571966 M749.4618705713524,365.36479171571966 L748.8112593236579,380.12438079303644 M758.5029425520784,380.61210898677325 L748.8112593236579,380.12438079303644 M758.5029425520784,380.61210898677325 L759.1825809075403,365.97992828279354 M759.1825809075403,365.97992828279354 L758.0624234774493,351.3687942105159 M758.0624234774493,351.3687942105159 L755.1524567260169,336.8516707953556 M755.1524567260169,336.8516707953556 L750.4716190445531,322.5007307254853 M750.4716190445531,322.5007307254853 L744.0474757795685,308.38695031920264 M744.0474757795685,308.38695031920264 L735.9160457242051,294.57981123590406 M735.9160457242051,294.57981123590406 L726.121587750958,281.14693942540947 M726.121587750958,281.14693942540947 L714.716267731972,268.1538267216021 M714.716267731972,268.1538267216021 L701.75983624164,255.6635442201269 M701.75983624164,255.6635442201269 L687.3192827530306,243.73645600821817 M687.3192827530306,243.73645600821817 L671.4684842237502,232.42995644062023 M670.9893208914955,295.6145105292478 L671.1016887705657,297.7710778559639 M671.1016887705657,297.7710778559639 L670.8867420531826,299.923988338499 M670.8867420531826,299.923988338499 L670.3460601090121,302.05691605911676 M670.3460601090121,302.05691605911676 L670.8242609762272,238.86068036539896 M671.4684842237502,232.42995644062023 L670.9893208914955,295.6145105292478 M675.4510991338989,301.284475141428 L675.9383056389204,238.08963962855807 M670.3460601090121,302.05691605911676 L672.0662459870969,301.83935666691065 M672.0662459870969,301.83935666691065 L673.7688717827598,301.58173229046724 M673.7688717827598,301.58173229046724 L675.4510991338989,301.284475141428 M675.4510991338989,301.284475141428 L674.973937518115,302.88760342110095 M674.973937518115,302.88760342110095 L674.3321358139763,304.47125009474547 M674.3321358139763,304.47125009474547 L673.5279385996273,306.02985725342114 M674.0118747266763,242.82642180868208 L673.5279385996273,306.02985725342114 M748.1904720161667,443.57513200967844 L748.8404416811773,428.78913792443484 M748.8404416811773,428.78913792443484 L747.6118188445532,414.0276740663402 M747.6118188445532,414.0276740663402 L744.5158465083948,399.3699803192215 M744.5158465083948,399.3699803192215 L739.5737403576686,384.89436310982654 M739.5737403576686,384.89436310982654 L732.8164021196944,370.6777325936227 M732.8164021196944,370.6777325936227 L724.2842144844567,356.7953119071746 M724.2842144844567,356.7953119071746 L714.0267300975081,343.320142312982 M714.0267300975081,343.320142312982 L702.1022985413917,330.3228522003374 M702.1022985413917,330.3228522003374 L688.5777607895511,317.8711981057722 M688.5777607895511,317.8711981057722 L673.5279385996273,306.02985725342114 M748.8112593236579,380.12438079303644 L748.1904720161667,443.57513200967844 M757.8648937901901,444.063732006114 L748.1904720161667,443.57513200967844 M758.5029425520784,380.61210898677325 L757.8648937901901,444.063732006114 M757.8648937901901,444.063732006114 L758.5438486548351,429.4053758484666 M758.5438486548351,429.4053758484666 L757.4262060836768,414.7680610844785 M757.4262060836768,414.7680610844785 L754.5219243397778,400.22488298401214 M754.5219243397778,400.22488298401214 L749.8498979826556,385.84814490293604 M749.8498979826556,385.84814490293604 L743.4376336757807,371.7089524903382 M743.4376336757807,371.7089524903382 L735.3210771732709,357.87691481530385 M735.3210771732709,357.87691481530385 L725.5444005066261,344.4197826046867 M725.5444005066261,344.4197826046867 L714.1596696507299,331.40316926102656 M714.1596696507299,331.40316926102656 L701.2265229330033,318.89026363859654 M701.2265229330033,318.89026363859654 L686.8118259555106,306.94154316258783 M686.8118259555106,306.94154316258783 L670.9893208914955,295.6145105292478" stroke="black"  stroke-width="4"  fill="red"/>
<path d="M748.0735754966579,385.7001416008926 L747.9765704028064,386.30906187254374 M747.9765704028064,386.30906187254374 L747.8763555946744,386.9178275368721 M747.8763555946744,386.9178275368721 L747.7729174856984,387.52643100512523 M756.6052559834604,392.5572231738345 L747.7729174856984,387.52643100512523 M756.6052559834604,392.5572231738345 L757.0310807730496,390.43629402697906 M757.0310807730496,390.43629402697906 L757.4187631337868,388.313204771317 M757.4187631337868,388.313204771317 L757.7682816410709,386.1881761312933 M748.0735754966579,385.7001416008926 L757.7682816410709,386.1881761312933 M748.0735754966579,385.7001416008926 L747.4539065525041,449.1608565115018 M747.1537201146236,450.9904080755732 L747.2569952856111,450.38071758029383 M747.2569952856111,450.38071758029383 L747.35705291106,449.77086452485355 M747.35705291106,449.77086452485355 L747.4539065525041,449.1608565115018 M747.7729174856984,387.52643100512523 L747.1537201146236,450.9904080755732 M755.9701576254943,456.03018289754834 L747.1537201146236,450.9904080755732 M756.6052559834604,392.5572231738345 L755.9701576254943,456.03018289754834 M757.7682816410709,386.1881761312933 L757.1313404823836,449.6497628458818 M755.9701576254943,456.03018289754834 L756.3952999918827,453.90546737788327 M756.3952999918827,453.90546737788327 L756.7823680836507,451.77858698867306 M756.7823680836507,451.77858698867306 L757.1313404823836,449.6497628458818 M747.4539065525041,449.1608565115018 L757.1313404823836,449.6497628458818 M438.81236271400854,567.5216700700732 L437.7451830676368,567.5894720367569 M437.7451830676368,567.5894720367569 L436.6776338747361,567.6553863970877 M436.6776338747361,567.6553863970877 L435.60972872852733,567.7194208161212 M436.4773404347161,573.414161118123 L435.60972872852733,567.7194208161212 M436.4773404347161,573.414161118123 L440.20474829037977,573.1834344128151 M440.20474829037977,573.1834344128151 L443.92771286227116,572.9303513119479 M443.92771286227116,572.9303513119479 L447.6458362757524,572.6549368396381 M438.81236271400854,567.5216700700732 L447.6458362757524,572.6549368396381 M438.81236271400854,567.5216700700732 L438.7424128650397,631.303873833665 M435.54553649732617,631.5019706210987 L436.6115217684594,631.4378241499512 M436.6115217684594,631.4378241499512 L437.6771517470823,631.3717944469877 M437.6771517470823,631.3717944469877 L438.7424128650397,631.303873833665 M435.60972872852733,567.7194208161212 L435.54553649732617,631.5019706210987 M436.4115673955832,637.2066727049759 L435.54553649732617,631.5019706210987 M436.4773404347161,573.414161118123 L436.4115673955832,637.2066727049759 M447.6458362757524,572.6549368396381 L447.55997936599675,636.4461206952054 M436.4115673955832,637.2066727049759 L440.13227211913335,636.9755425170849 M440.13227211913335,636.9755425170849 L443.84854182078465,636.7220168256703 M443.84854182078465,636.7220168256703 L447.55997936599675,636.4461206952054 M438.7424128650397,631.303873833665 L447.55997936599675,636.4461206952054" stroke="black"  stroke-width="4"  fill="red"/>
<path d="M125.56471813756679,557.3609461386552 L125.07259400988511,493.708455453586 M120.36135580043424,558.1559270583746 L119.8598754793378,494.50203598603827 M125.56471813756679,557.3609461386552 L123.81284769736135,557.5848398068424 M123.81284769736135,557.5848398068424 L122.07743656767207,557.8499793130453 M122.07743656767207,557.8499793130453 L120.36135580043424,558.1559270583746 M125.07259400988511,493.708455453586 L123.31757482532089,493.9319547123186 M123.31757482532089,493.9319547123186 L121.57904325034383,494.19662716364496 M121.57904325034383,494.19662716364496 L119.8598754793378,494.50203598603827 M196.24229685964187,542.3980988672364 L188.72649740270452,539.5769740756173 M188.72649740270452,539.5769740756173 L180.371681594469,537.7074336017915 M180.371681594469,537.7074336017915 L171.52605986535056,536.8670423336418 M171.52605986535056,536.8670423336418 L162.55805281078253,537.0906432918389 M162.55805281078253,537.0906432918389 L153.84108729682234,538.3689756410911 M153.84108729682234,538.3689756410911 L145.73829310076482,540.6490108983967 M145.73829310076482,540.6490108983967 L138.58750105926788,543.836139044036 M138.58750105926788,543.836139044036 L132.68734668444228,547.7979496964678 M132.68734668444228,547.7979496964678 L128.28480182545667,552.3696741091807 M128.28480182545667,552.3696741091807 L125.56471813756679,557.3609461386552 M195.8772613461165,478.771989312703 L188.34805081623318,475.9558434807135 M188.34805081623318,475.9558434807135 L179.97830393498796,474.08960340558355 M179.97830393498796,474.08960340558355 L171.11685135072202,473.25069595197556 M171.11685135072202,473.25069595197556 L162.13277035063842,473.47390210130453 M162.13277035063842,473.47390210130453 L153.4001543051847,474.7499775099384 M153.4001543051847,474.7499775099384 L145.28278246038383,477.0259880950283 M145.28278246038383,477.0259880950283 L138.11909166632518,480.2074921260917 M138.11909166632518,480.2074921260917 L132.2082553605356,484.1623144606786 M132.2082553605356,484.1623144606786 L127.79769289697964,488.7259786114746 M127.79769289697964,488.7259786114746 L125.07259400988511,493.708455453586 M195.8772613461165,478.771989312703 L196.24229685964187,542.3980988672364 M120.36135580043424,558.1559270583746 L122.69873188462282,552.8866981663942 M122.69873188462282,552.8866981663942 L126.7133447359995,547.9665119167593 M126.7133447359995,547.9665119167593 L132.25723244100197,543.5747660138228 M132.25723244100197,543.5747660138228 L139.12697001941535,539.8713528111788 M139.12697001941535,539.8713528111788 L147.0711773568874,536.9909256160474 M147.0711773568874,536.9909256160474 L155.7997191403089,535.0381095882683 M155.7997191403089,535.0381095882683 L164.99425143250392,534.0837665419248 M164.99425143250392,534.0837665419248 L174.31967591766923,534.1625152228961 M174.31967591766923,534.1625152228961 L183.4361975161211,535.2714929073151 M183.4361975161211,535.2714929073151 L192.0115283936819,537.3704736820014 M192.0115283936819,537.3704736820014 L199.73283572758564,540.3832830490608 M199.37409681112587,476.76072924968753 L199.73283572758564,540.3832830490608 M119.8598754793378,494.50203598603827 L122.2015909522679,489.2420913827007 M122.2015909522679,489.2420913827007 L126.22353820289595,484.33057942017683 M126.22353820289595,484.33057942017683 L131.77748323637275,479.9465802472548 M131.77748323637275,479.9465802472548 L138.65963120713718,476.2497025975211 M138.65963120713718,476.2497025975211 L146.61814811938126,473.3743604942886 M146.61814811938126,473.3743604942886 L155.36237733571198,471.4249929005981 M155.36237733571198,471.4249929005981 L164.57340491559972,470.4723353842702 M164.57340491559972,470.4723353842702 L173.9155340587046,470.55094497496793 M173.9155340587046,470.55094497496793 L183.04836386520984,471.65796405320344 M183.04836386520984,471.65796405320344 L191.63901469012916,473.7532384131974 M191.63901469012916,473.7532384131974 L199.37409681112587,476.76072924968753 M199.73283572758564,540.3832830490608 L196.24229685964187,542.3980988672364 M199.37409681112587,476.76072924968753 L195.8772613461165,478.771989312703" stroke="black"  stroke-width="4"  fill="red"/>
<path d="M176.84967809103728,587.45178499487 L185.46805371022336,585.908943522917 M185.46805371022336,585.908943522917 L193.37773638150566,583.3800340919455 M193.37773638150566,583.3800340919455 L200.24717548689313,579.9715408943446 M200.24717548689313,579.9715408943446 L205.78885734740626,575.8269157887712 M205.78885734740626,575.8269157887712 L209.77140472912282,571.1203752470611 M209.77140472912282,571.1203752470611 L212.0292748207986,566.0494399925258 M212.0292748207986,566.0494399925258 L212.46942241790214,560.8265956336073 M212.46942241790214,560.8265956336073 L211.0750306842236,555.6703092187413 M211.0750306842236,555.6703092187413 L207.90588839449524,550.7959125888269 M207.90588839449524,550.7959125888269 L203.09568981291082,546.4066221877204 M175.4425250946267,590.4810816281486 L175.9820248842192,589.4823250764571 M175.9820248842192,589.4823250764571 L176.45133252022788,588.4719990081242 M176.45133252022788,588.4719990081242 L176.84967809103728,587.45178499487 M206.5862386652324,544.3909049310447 L211.72677521341274,548.900203021645 M211.72677521341274,548.900203021645 L215.29151544249868,553.9039247386874 M215.29151544249868,553.9039247386874 L217.14884671386866,559.2195500259344 M217.14884671386866,559.2195500259344 L217.22931221026624,564.6528563853251 M217.22931221026624,564.6528563853251 L215.5283579650694,570.0049705126901 M215.5283579650694,570.0049705126901 L212.10676116884363,575.0796409099747 M212.10676116884363,575.0796409099747 L207.08859281211488,579.6904721097743 M207.08859281211488,579.6904721097743 L200.6568900462329,583.6678224889758 M200.6568900462329,583.6678224889758 L193.04701217543294,586.8651520099102 M193.04701217543294,586.8651520099102 L184.53805071624322,589.1645310129386 M184.53805071624322,589.1645310129386 L175.4425250946267,590.4810816281486 M203.09568981291082,546.4066221877204 L206.5862386652324,544.3909049310447 M202.74285876956674,482.77344078555797 L203.09568981291082,546.4066221877204 M176.4488777205338,523.7463762379407 L185.08277234007946,522.2062436259632 M185.08277234007946,522.2062436259632 L193.00671856338792,519.6817753821442 M193.00671856338792,519.6817753821442 L199.8885663447149,516.2792700882156 M199.8885663447149,516.2792700882156 L205.44028218707493,512.1419292187904 M205.44028218707493,512.1419292187904 L209.43007059997717,507.4436646466942 M209.43007059997717,507.4436646466942 L211.69208949110447,502.381651062855 M211.69208949110447,502.381651062855 L212.13312510959895,497.1680010073458 M212.13312510959895,497.1680010073458 L210.73632915608883,492.02079707051894 M210.73632915608883,492.02079707051894 L207.5615962882893,487.1549912689443 M207.5615962882893,487.1549912689443 L202.74285876956674,482.77344078555797 M176.84967809103728,587.45178499487 L176.4488777205338,523.7463762379407 M175.4425250946267,590.4810816281486 L175.03912816181654,526.770355534984 M175.03912816181654,526.770355534984 L175.57961991961352,525.7733519020928 M175.57961991961352,525.7733519020928 L176.04979354349345,524.764799260897 M176.04979354349345,524.764799260897 L176.4488777205338,523.7463762379407 M206.23970427273886,480.7612792616329 L211.3893703437009,485.26262405625386 M211.3893703437009,485.26262405625386 L214.96040951445133,490.2575251878202 M214.96040951445133,490.2575251878202 L216.82097453125616,495.5637855411479 M216.82097453125616,495.5637855411479 L216.90148493233056,500.98752547010184 M216.90148493233056,500.98752547010184 L215.19737935108228,506.3302218856969 M215.19737935108228,506.3302218856969 L211.76954497934668,511.39596805095016 M211.76954497934668,511.39596805095016 L206.74227691117403,515.9986951775134 M206.74227691117403,515.9986951775134 L200.2989429939603,519.9690583103086 M200.2989429939603,519.9690583103086 L192.67532799692364,523.1607731839449 M192.67532799692364,523.1607731839449 L184.15102816770866,525.4561156410832 M184.15102816770866,525.4561156410832 L175.03912816181654,526.770355534984 M206.23970427273886,480.7612792616329 L206.5862386652324,544.3909049310447 M202.74285876956674,482.77344078555797 L206.23970427273886,480.7612792616329" stroke="black"  stroke-width="4"  fill="red"/>
<path d="M670.3460601090121,302.05691605911676 L670.8242609762272,238.86068036539896 M675.4510991338989,301.284475141428 L675.9383056389204,238.08963962855807 M670.3460601090121,302.05691605911676 L672.0662459870969,301.83935666691065 M672.0662459870969,301.83935666691065 L673.7688717827598,301.58173229046724 M673.7688717827598,301.58173229046724 L675.4510991338989,301.284475141428 M670.8242609762272,238.86068036539896 L672.5474826329885,238.64351532462834 M672.5474826329885,238.64351532462834 L674.2531119832249,238.38635793423703 M674.2531119832249,238.38635793423703 L675.9383056389204,238.08963962855807 M601.0077368338809,316.6209312394908 L608.4941046278859,319.37227697279275 M608.4941046278859,319.37227697279275 L616.7912210819727,321.19652433194284 M616.7912210819727,321.19652433194284 L625.5509827656115,322.0168021553645 M625.5509827656115,322.0168021553645 L634.4056167511649,321.798537796766 M634.4056167511649,321.798537796766 L642.9833433236031,320.5509228662742 M642.9833433236031,320.5509228662742 L650.9241240232523,318.32655357420145 M650.9241240232523,318.32655357420145 L657.8949846564108,315.21912260455724 M657.8949846564108,315.21912260455724 L663.6040283917412,311.359441531552 M663.6040283917412,311.359441531552 L667.8127504757726,306.90977987358036 M667.8127504757726,306.90977987358036 L670.3460601090121,302.05691605911676 M601.3636239614307,253.3983180845285 L608.8632979167128,256.14468550344776 M608.8632979167128,256.14468550344776 L617.1751397463556,257.9656328832492 M617.1751397463556,257.9656328832492 L625.9504261831464,258.7844270784818 M625.9504261831464,258.7844270784818 L634.8207299161797,258.5665574792994 M634.8207299161797,258.5665574792994 L643.4136105975542,257.3211992048923 M643.4136105975542,257.3211992048923 L651.3683913188625,255.10085406988628 M651.3683913188625,255.10085406988628 L658.3515091866168,251.99904647835714 M658.3515091866168,251.99904647835714 L664.0705534677581,248.14635278130302 M664.0705534677581,248.14635278130302 L668.2866020904587,243.70475026225927 M668.2866020904587,243.70475026225927 L670.8242609762272,238.86068036539896 M601.3636239614307,253.3983180845285 L601.0077368338809,316.6209312394908 M675.4510991338989,301.284475141428 L673.3066881378284,306.406843768766 M673.3066881378284,306.406843768766 L669.4941956973432,311.195299771612 M669.4941956973432,311.195299771612 L664.1521589060935,315.4738770747819 M664.1521589060935,315.4738770747819 L657.4756347791661,319.0850990676832 M657.4756347791661,319.0850990676832 L649.7091408190915,321.8958742103182 M649.7091408190915,321.8958742103182 L641.1376757620862,323.8024911775424 M641.1376757620862,323.8024911775424 L632.0761633398267,324.73455739243053 M632.0761633398267,324.73455739243053 L622.8577841857689,324.6576394336796 M622.8577841857689,324.6576394336796 L613.8215606744213,323.57458567618687 M613.8215606744213,323.57458567618687 L605.299724284087,321.5254012720973 M605.299724284087,321.5254012720973 L597.6053516234551,318.58573587987036 M597.9552564521045,255.35956743210224 L597.6053516234551,318.58573587987036 M675.9383056389204,238.08963962855807 L673.7902432782791,243.20272531401386 M673.7902432782791,243.20272531401386 L669.9711370922394,247.9825082414353 M669.9711370922394,247.9825082414353 L664.6197626536971,252.25333985831753 M664.6197626536971,252.25333985831753 L657.9315170100015,255.85802715046106 M657.9315170100015,255.85802715046106 L650.1513470796099,258.6637178461415 M650.1513470796099,258.6637178461415 L641.5647546114417,260.56688680759385 M641.5647546114417,260.56688680759385 L632.4872211481365,261.49726769915014 M632.4872211481365,261.49726769915014 L623.2525189718692,261.4204888136837 M623.2525189718692,261.4204888136837 L614.2002735232106,260.3393934218719 M614.2002735232106,260.3393934218719 L605.663307890783,258.2939149708795 M605.663307890783,258.2939149708795 L597.9552564521045,255.35956743210224 M597.6053516234551,318.58573587987036 L601.0077368338809,316.6209312394908 M597.9552564521045,255.35956743210224 L601.3636239614307,253.3983180845285" stroke="black"  stroke-width="4"  fill="red"/>
<path d="M619.0609962384151,272.91376110725037 L610.629390757161,274.40330396048887 M610.629390757161,274.40330396048887 L602.9135329384223,276.84594786391483 M602.9135329384223,276.84594786391483 L596.2352113278903,280.1403302670262 M596.2352113278903,280.1403302670262 L590.8734711473021,284.1495432921123 M590.8734711473021,284.1495432921123 L587.0529496817587,288.70676795041516 M587.0529496817587,288.70676795041516 L584.9343320778698,293.6221371842724 M584.9343320778698,293.6221371842724 L584.6075715091199,298.69052306946963 M584.6075715091199,298.69052306946963 L586.0878372450625,303.7000707164769 M586.0878372450625,303.7000707164769 L589.3146926711611,308.44101393881687 M589.3146926711611,308.44101393881687 L594.1543365236428,312.71451644952526 M620.3698139102185,269.99058893538756 L619.8641714723731,270.95414043302054 M619.8641714723731,270.95414043302054 L619.4276531774358,271.9290697118721 M619.4276531774358,271.9290697118721 L619.0609962384151,272.91376110725037 M590.7519417046474,314.6784535836874 L585.5844570306263,310.2862053165707 M585.5844570306263,310.2862053165707 L581.9662086018486,305.4175029003048 M581.9662086018486,305.4175029003048 L580.0285651862259,300.25122158122144 M580.0285651862259,300.25122158122144 L579.8410400094185,294.9768450475723 M579.8410400094185,294.9768450475723 L581.4089599997872,289.7874814750885 M581.4089599997872,289.7874814750885 L584.673466172607,284.87279416468914 M584.673466172607,284.87279416468914 L589.5139085725023,280.4121000286611 M589.5139085725023,280.4121000286611 L595.7523877506035,276.5679076579899 M595.7523877506035,276.5679076579899 L603.160408352647,273.48006864758827 M603.160408352647,273.48006864758827 L611.4672482108765,271.2607771451968 M611.4672482108765,271.2607771451968 L620.3698139102185,269.99058893538756 M594.1543365236428,312.71451644952526 L590.7519417046474,314.6784535836874 M594.4980191284596,249.49897419975116 L594.1543365236428,312.71451644952526 M619.4478726061413,209.77043489435655 L611.0014140432272,211.2572693660155 M611.0014140432272,211.2572693660155 L603.2719837532068,213.69547285779305 M603.2719837532068,213.69547285779305 L596.58193490086,216.98386838534708 M596.58193490086,216.98386838534708 L591.2108023297651,220.98579839770218 M591.2108023297651,220.98579839770218 L587.3836175488386,225.53474843968232 M587.3836175488386,225.53474843968232 L585.2613476648203,230.44119741752885 M585.2613476648203,230.44119741752885 L584.93410337243,235.5003904087244 M584.93410337243,235.5003904087244 L586.4170795298951,240.50085692108334 M586.4170795298951,240.50085692108334 L589.6497313299672,245.23321054059033 M589.6497313299672,245.23321054059033 L594.4980191284596,249.49897419975116 M619.0609962384151,272.91376110725037 L619.4478726061413,209.77043489435655 M620.3698139102185,269.99058893538756 L620.7589361988337,206.85257910787448 M620.7589361988337,206.85257910787448 L620.2524225201096,207.81437800188766 M620.2524225201096,207.81437800188766 L619.8151551566395,208.78753417074935 M619.8151551566395,208.78753417074935 L619.4478726061413,209.77043489435655 M591.0896419594633,251.4593560788218 L585.9129316575209,247.0750600286931 M585.9129316575209,247.0750600286931 L582.2881934838633,242.21517695667234 M582.2881934838633,242.21517695667234 L580.3470299516507,237.05825920284204 M580.3470299516507,237.05825920284204 L580.1590781319364,231.7934476480185 M580.1590781319364,231.7934476480185 L581.7296751089543,226.61350030603688 M581.7296751089543,226.61350030603688 L584.9998587362672,221.70773577675777 M584.9998587362672,221.70773577675777 L589.8487671532916,217.25514435701106 M589.8487671532916,217.25514435701106 L596.0981885347333,213.41793803302582 M596.0981885347333,213.41793803302582 L603.5192265364335,210.33571268609995 M603.5192265364335,210.33571268609995 L611.840684102488,208.12045701149555 M611.840684102488,208.12045701149555 L620.7589361988337,206.85257910787448 M591.0896419594633,251.4593560788218 L590.7519417046474,314.6784535836874 M594.4980191284596,249.49897419975116 L591.0896419594633,251.4593560788218" stroke="black"  stroke-width="4"  fill="red"/>
<path d="M63.624245193936986,373.3641773779502 L63.02721028303597,310.03919825075496 M59.606911865600125,371.3887952343792 L59.002811973693156,308.06736893580387 M63.624245193936986,373.3641773779502 L62.33265077366116,372.674143457148 M62.33265077366116,372.674143457148 L60.99280473847199,372.015307619671 M60.99280473847199,372.015307619671 L59.606911865600125,371.3887952343792 M63.02721028303597,310.03919825075496 L61.73334611783105,309.35040530368195 M61.73334611783105,309.35040530368195 L60.39114379813208,308.6927544212682 M60.39114379813208,308.6927544212682 L59.002811973693156,308.06736893580387 M59.002811973693156,308.06736893580387 L67.69909627919793,306.1600314876046 M67.69909627919793,306.1600314876046 L76.85107343808505,305.2354719137654 M76.85107343808505,305.2354719137654 L86.12390162016118,305.32737689193476 M86.12390162016118,305.32737689193476 L95.17834448251523,306.4323804418166 M95.17834448251523,306.4323804418166 L103.68306246003164,308.51025280601374 M103.68306246003164,308.51025280601374 L111.32658198482864,311.48527796479493 M111.32658198482864,311.48527796479493 L117.82853637745632,315.2489496176301 M117.82853637745632,315.2489496176301 L122.94994385074551,319.663842676839 M122.94994385074551,319.663842676839 L126.50201239727437,324.5685524930038 M126.50201239727437,324.5685524930038 L128.35305124685692,329.78346099043836 M128.35305124685692,329.78346099043836 L128.4335848283207,335.1172745072448 M128.4335848283207,335.1172745072448 L126.7390759982053,340.374003184631 M126.7390759982053,340.374003184631 L123.33033324374367,345.3601335753336 M123.33033324374367,345.3601335753336 L118.33144294406105,349.89180807559376 M118.33144294406105,349.89180807559376 L111.92548469713319,353.8016535727732 M111.92548469713319,353.8016535727732 L104.34773779035766,356.94506210119454 M104.34773779035766,356.94506210119454 L95.8772662021043,359.2056375397448 M95.8772662021043,359.2056375397448 L86.82639131386986,360.4995985141134 M86.82639131386986,360.4995985141134 L77.52915483697905,360.7789700877249 M77.52915483697905,360.7789700877249 L68.32886942097014,360.033371337126 M68.32886942097014,360.033371337126 L59.56517466890847,358.29046952261785 M59.56517466890847,358.29046952261785 L51.561419492557604,355.61487978914295 M51.561419492557604,355.61487978914295 L44.612514606586785,352.10572836754017 M45.24367973176243,415.5063167296913 L44.612514606586785,352.10572836754017 M45.24367973176243,415.5063167296913 L52.18036249008969,419.0217593510421 M52.18036249008969,419.0217593510421 L60.16998765553927,421.70214421551094 M60.16998765553927,421.70214421551094 L68.91816651231034,423.44816884596895 M68.91816651231034,423.44816884596895 L78.10212481653969,424.1951033247505 M78.10212481653969,424.1951033247505 L87.38282839352428,423.91523127452734 M87.38282839352428,423.91523127452734 L96.4175778984457,422.6189520460689 M96.4175778984457,422.6189520460689 L104.8729292667552,420.3543257651798 M104.8729292667552,420.3543257651798 L112.43712046722561,417.2052826949533 M112.43712046722561,417.2052826949533 L118.83158764329255,413.288426054005 M118.83158764329255,413.288426054005 L123.82147340630024,408.74862150499536 M123.82147340630024,408.74862150499536 L127.22402676471438,403.7535409855862 M127.22402676471438,403.7535409855862 L128.91538463761947,398.4873710495722 M128.91538463761947,398.4873710495722 L128.8348491137731,393.1439721571489 M128.8348491137731,393.1439721571489 L126.98695180597554,387.91968644606345 M126.98695180597554,387.91968644606345 L123.44104768686304,383.00615221946583 M123.44104768686304,383.00615221946583 L118.32859696709704,378.5833118837894 M118.32859696709704,378.5833118837894 L111.83806037692835,374.8128621324408 M111.83806037692835,374.8128621324408 L104.20799999251079,371.8324771576977 M104.20799999251079,371.8324771576977 L95.7182898162838,369.75086023733144 M95.7182898162838,369.75086023733144 L86.67985568705069,368.64386499561374 M86.67985568705069,368.64386499561374 L77.42345387679063,368.55179435408905 M77.42345387679063,368.55179435408905 L68.28772257532489,369.478020415886 M68.28772257532489,369.478020415886 L59.606911865600125,371.3887952343792 M50.26103261144101,414.4431536677303 L49.6388336760952,351.0444684171884 M45.24367973176243,415.5063167296913 L46.939997388280744,415.19117888997624 M46.939997388280744,415.19117888997624 L48.6133782894035,414.8366037631052 M48.6133782894035,414.8366037631052 L50.26103261144101,414.4431536677303 M44.612514606586785,352.10572836754017 L46.31186219634964,351.7911546157635 M46.31186219634964,351.7911546157635 L47.988233494615486,351.43721419218224 M47.988233494615486,351.43721419218224 L49.6388336760952,351.0444684171884 M49.6388336760952,351.0444684171884 L56.65573710001655,354.2074483701123 M56.65573710001655,354.2074483701123 L64.66694490913153,356.4732641448555 M64.66694490913153,356.4732641448555 L73.33371911105291,357.74565947711716 M73.33371911105291,357.74565947711716 L82.28928312027756,357.970549996216 M82.28928312027756,357.970549996216 L91.1544739784847,357.1383796920531 M91.1544739784847,357.1383796920531 L99.55399465903338,355.28452138121946 M99.55399465903338,355.28452138121946 L107.1325534266519,352.4877483568669 M107.1325534266519,352.4877483568669 L113.56995748791564,348.8668105123293 M113.56995748791564,348.8668105123293 L118.59472252911053,344.57527296630457 M118.59472252911053,344.57527296630457 L121.99560679370768,339.79491103607705 M121.99560679370768,339.79491103607705 L123.630372051584,334.72789796681315 M123.630372051584,334.72789796681315 L123.4315332227684,329.5881731088343 M123.4315332227684,329.5881731088343 L121.40906701357744,324.592396334799 M121.40906701357744,324.592396334799 L117.6496391262516,319.9507813794251 M117.6496391262516,319.9507813794251 L112.31275242662105,315.85832355885753 M112.31275242662105,315.85832355885753 L105.62386868122974,312.48671767477924 M105.62386868122974,312.48671767477924 L97.86482312613151,309.9772254272784 M97.86482312613151,309.9772254272784 L89.36191962348607,308.43487280318357 M89.36191962348607,308.43487280318357 L80.47241269231654,307.9241920782906 M80.47241269231654,307.9241920782906 L71.56957467691825,308.4665293318705 M71.56957467691825,308.4665293318705 L63.02721028303597,310.03919825075496 M63.624245193936986,373.3641773779502 L72.151418789513,371.7886748979384 M72.151418789513,371.7886748979384 L81.03846287905895,371.2453603713837 M81.03846287905895,371.2453603713837 L89.91223317997083,371.7569613269043 M89.91223317997083,371.7569613269043 L98.40011542438515,373.30209290414325 M98.40011542438515,373.30209290414325 L106.14548397239253,375.81610564006564 M106.14548397239253,375.81610564006564 L112.82260873249567,379.1937829956131 M112.82260873249567,379.1937829956131 L118.15014959706377,383.2936073067736 M118.15014959706377,383.2936073067736 L121.9030404280353,387.9435731752054 M121.9030404280353,387.9435731752054 L123.92205753783048,392.94833321606575 M123.92205753783048,392.94833321606575 L124.12068561274327,398.0972949553174 M124.12068561274327,398.0972949553174 L122.48896243896354,403.17340904027157 M122.48896243896354,403.17340904027157 L119.09424999451198,407.9623523982741 M119.09424999451198,407.9623523982741 L114.07853032416938,412.2615899550748 M114.07853032416938,412.2615899550748 L107.65266594307332,415.8890217236133 M107.65266594307332,415.8890217236133 L100.0876544221241,418.69080878262525 M100.0876544221241,418.69080878262525 L91.70311499933877,420.5479898119669 M91.70311499933877,420.5479898119669 L82.8537036181749,421.3816514122645 M82.8537036181749,421.3816514122645 L73.91404663856622,421.15635789037594 M73.91404663856622,421.15635789037594 L65.26263076290923,419.88168224022274 M65.26263076290923,419.88168224022274 L57.26558018388437,417.6118049886539 M57.26558018388437,417.6118049886539 L50.26103261144101,414.4431536677303" stroke="black"  stroke-width="4"  fill="red"/>
<path d="M435.7685821679827,229.59129788122732 L435.83173207250974,166.52693714012395 M438.41743134519606,226.99271251714393 L438.4852358076419,163.933100227666 M435.7685821679827,229.59129788122732 L436.71327808452827,228.74584265385056 M436.71327808452827,228.74584265385056 L437.5967159401727,227.8791683786087 M437.5967159401727,227.8791683786087 L438.41743134519606,226.99271251714393 M435.83173207250974,166.52693714012395 L436.7780884668608,165.683026683525 M436.7780884668608,165.683026683525 L437.66307869598404,164.8179360975123 M437.66307869598404,164.8179360975123 L438.4852358076419,163.933100227666 M438.4852358076419,163.933100227666 L443.2372226508964,168.41974990533657 M443.2372226508964,168.41974990533657 L446.39988374434006,173.3412677920463 M446.39988374434006,173.3412677920463 L447.8558293516775,178.5173603254077 M447.8558293516775,178.5173603254077 L447.55005563390114,183.75805915257152 M447.55005563390114,183.75805915257152 L445.49225363133087,188.8706901565891 M445.49225363133087,188.8706901565891 L441.7566452368496,193.66698157729505 M441.7566452368496,193.66698157729505 L436.47949624632,197.96997762023608 M436.47949624632,197.96997762023608 L429.854189154883,201.62070277057225 M429.854189154883,201.62070277057225 L422.1243047908811,204.48410803154223 M422.1243047908811,204.48410803154223 L413.57456743767335,206.45412779195388 M413.57456743767335,206.45412779195388 L404.52030296239747,207.45774855205227 M404.52030296239747,207.45774855205227 L395.29575153293183,207.45774855205227 M395.29575153293183,207.45774855205227 L386.24148705765595,206.45412779195388 M386.24148705765595,206.45412779195388 L377.69174970444817,204.48410803154223 M377.69174970444817,204.48410803154223 L369.9618653404463,201.62070277057225 M369.9618653404463,201.62070277057225 L363.33655824900933,197.96997762023608 M363.33655824900933,197.96997762023608 L358.0594092584797,193.66698157729505 M358.0594092584797,193.66698157729505 L354.32380086399843,188.8706901565891 M354.32380086399843,188.8706901565891 L352.2659988614283,183.75805915257152 M352.2659988614283,183.75805915257152 L351.9602251436517,178.5173603254077 M351.9602251436517,178.5173603254077 L353.41617075098924,173.3412677920463 M353.41617075098924,173.3412677920463 L356.57883184443295,168.41974990533657 M356.57883184443295,168.41974990533657 L361.3308186876873,163.933100227666 M361.39862315013323,226.99271251714393 L361.3308186876873,163.933100227666 M361.39862315013323,226.99271251714393 L356.6550079865135,231.4875749038166 M356.6550079865135,231.4875749038166 L353.4979299867333,236.4180968678658 M353.4979299867333,236.4180968678658 L352.04456958693834,241.60365398462662 M352.04456958693834,241.60365398462662 L352.349830394773,246.85393004908406 M352.349830394773,246.85393004908406 L354.4040347727365,251.9758989364171 M354.4040347727365,251.9758989364171 L358.13308810791267,256.7809456963416 M358.13308810791267,256.7809456963416 L363.40096186823445,261.09179266736464 M363.40096186823445,261.09179266736464 L370.01461250006224,264.74917574585317 M370.01461250006224,264.74917574585317 L377.7308878110965,267.61780120561934 M377.7308878110965,267.61780120561934 L386.26556590402606,269.59141150140834 M386.26556590402606,269.59141150140834 L395.3038782866209,270.59686114959516 M395.3038782866209,270.59686114959516 L404.51217620870847,270.59686114959516 M404.51217620870847,270.59686114959516 L413.55048859130324,269.5914115014083 M413.55048859130324,269.5914115014083 L422.08516668423283,267.61780120561934 M422.08516668423283,267.61780120561934 L429.80144199526717,264.74917574585317 M429.80144199526717,264.74917574585317 L436.4150926270949,261.09179266736464 M436.4150926270949,261.09179266736464 L441.6829663874167,256.7809456963416 M441.6829663874167,256.7809456963416 L445.4120197225928,251.9758989364171 M445.4120197225928,251.9758989364171 L447.4662241005564,246.85393004908406 M447.4662241005564,246.85393004908406 L447.771484908391,241.60365398462662 M447.771484908391,241.60365398462662 L446.31812450859604,236.4180968678658 M446.31812450859604,236.4180968678658 L443.1610465088159,231.4875749038166 M443.1610465088159,231.4875749038166 L438.41743134519606,226.99271251714393 M364.0474723273467,229.59129788122732 L363.9843224228197,166.52693714012395 M361.39862315013323,226.99271251714393 L362.2193385551567,227.8791683786087 M362.2193385551567,227.8791683786087 L363.10277641080097,228.74584265385056 M363.10277641080097,228.74584265385056 L364.0474723273467,229.59129788122732 M361.3308186876873,163.933100227666 L362.15297579934537,164.8179360975123 M362.15297579934537,164.8179360975123 L363.03796602846853,165.683026683525 M363.03796602846853,165.683026683525 L363.9843224228197,166.52693714012395 M363.9843224228197,166.52693714012395 L359.8289210450841,170.9897833262056 M359.8289210450841,170.9897833262056 L357.3607260319706,175.84286194864845 M357.3607260319706,175.84286194864845 L356.6851291010838,180.88203299095642 M356.6851291010838,180.88203299095642 L357.83212474137497,185.89495314432588 M357.83212474137497,185.89495314432588 L360.7548550982631,190.6700460212984 M360.7548550982631,190.6700460212984 L365.33128499269804,195.005427062465 M365.33128499269804,195.005427062465 L371.369205138508,198.71754634775368 M371.369205138508,198.71754634775368 L378.6141298338357,201.64899031490245 M378.6141298338357,201.64899031490245 L386.7601294227219,203.67534744849507 M386.7601294227219,203.67534744849507 L395.4626563586571,204.7105216549494 M395.4626563586571,204.7105216549494 L404.3533981366722,204.7105216549494 M404.3533981366722,204.7105216549494 L413.0559250726075,203.67534744849507 M413.0559250726075,203.67534744849507 L421.20192466149365,201.64899031490245 M421.20192466149365,201.64899031490245 L428.44684935682136,198.71754634775368 M428.44684935682136,198.71754634775368 L434.4847695026312,195.005427062465 M434.4847695026312,195.005427062465 L439.0611993970663,190.67004602129848 M439.0611993970663,190.67004602129848 L441.9839297539543,185.89495314432588 M441.9839297539543,185.89495314432588 L443.1309253942456,180.88203299095642 M443.1309253942456,180.88203299095642 L442.4553284633587,175.84286194864845 M442.4553284633587,175.84286194864845 L439.9871334502453,170.9897833262056 M439.9871334502453,170.9897833262056 L435.83173207250974,166.52693714012395 M435.7685821679827,229.59129788122732 L439.9166609185216,234.0623108912175 M439.9166609185216,234.0623108912175 L442.3804953626382,238.92426590844644 M442.3804953626382,238.92426590844644 L443.0548822537215,243.97264870906452 M443.0548822537215,243.97264870906452 L441.9098834550407,248.99472757507766 M441.9098834550407,248.99472757507766 L438.99227789717935,253.77853995748268 M438.99227789717935,253.77853995748268 L434.423888918704,258.1218336083748 M434.423888918704,258.1218336083748 L428.3965893720969,261.8407249744474 M428.3965893720969,261.8407249744474 L421.1644175374284,264.7775148685117 M421.1644175374284,264.7775148685117 L413.0327636677522,266.80756635923524 M413.0327636677522,266.80756635923524 L404.3455666880357,267.84462752752245 M404.3455666880357,267.84462752752245 L395.47048780729364,267.84462752752245 M395.47048780729364,267.84462752752245 L386.7832908275771,266.80756635923524 M386.7832908275771,266.80756635923524 L378.6516369579009,264.7775148685117 M378.6516369579009,264.7775148685117 L371.41946512323244,261.8407249744474 M371.41946512323244,261.8407249744474 L365.3921655766253,258.1218336083748 M365.3921655766253,258.1218336083748 L360.82377659814995,253.77853995748268 M360.82377659814995,253.77853995748268 L357.9061710402886,248.99472757507766 M357.9061710402886,248.99472757507766 L356.7611722416079,243.97264870906443 M356.7611722416079,243.97264870906443 L357.43555913269114,238.92426590844644 M357.43555913269114,238.92426590844644 L359.89939357680777,234.0623108912175 M359.89939357680777,234.0623108912175 L364.0474723273467,229.59129788122732" stroke="black"  stroke-width="4"  fill="red"/>
<path d="M293.9621809651378,430.2838440350149 L294.15121699674984,493.8240040306705 M406.3584519356,439.96599181481236 L389.9799812707866,441.5078843119487 M389.9799812707866,441.5078843119487 L373.4123292617467,442.06700018635945 M373.4123292617467,442.06700018635945 L356.83447343575415,441.63720648117965 M356.83447343575415,441.63720648117965 L340.4254959880864,440.22321811514246 M340.4254959880864,440.22321811514246 L324.36258100071024,437.8405360749915 M324.36258100071024,437.8405360749915 L308.818996660307,434.515279983378 M308.818996660307,434.515279983378 L293.9621809651378,430.2838440350149 M406.3584519356,439.96599181481236 L406.346936387683,503.5233519930157 M294.15121699674984,493.8240040306705 L308.98156266645947,498.06295937318566 M308.98156266645947,498.06295937318566 L324.4974315969954,501.3941220267964 M324.4974315969954,501.3941220267964 L340.53168803638994,503.7810349951823 M340.53168803638994,503.7810349951823 L356.91137721156093,505.19753364135545 M356.91137721156093,505.19753364135545 L373.45963597541083,505.6280902878417 M373.45963597541083,505.6280902878417 L389.9977067339359,505.06798190072107 M389.9977067339359,505.06798190072107 L406.346936387683,503.5233519930157 M294.15121699674984,493.8240040306705 L301.34251024222885,489.67118609114067 M301.34251024222885,489.67118609114067 L301.1663693700702,426.1383961716871 M293.9621809651378,430.2838440350149 L301.1663693700702,426.1383961716871 M408.70215872984744,433.87114918351483 L393.1554551892226,435.60404231556515 M393.1554551892226,435.60404231556515 L377.378260202863,436.38786395836235 M377.378260202863,436.38786395836235 L361.5463477921439,436.2137593671665 M361.5463477921439,436.2137593671665 L345.83613145440404,435.08369439252914 M345.83613145440404,435.08369439252914 L330.4225957994946,433.01044003178276 M330.4225957994946,433.01044003178276 L315.4772969775229,430.01741762531327 M315.4772969775229,430.01741762531327 L301.1663693700702,426.1383961716871 M406.09839337233126,438.2528309132505 L406.3584519356,439.96599181481236 M415.4710086668802,437.7791465167649 L406.09839337233126,438.2528309132505 M408.70215872984744,433.87114918351483 L415.4710086668802,437.7791465167649 M406.0873431517165,501.80714905849555 L406.346936387683,503.5233519930157 M406.0873431517165,501.80714905849555 L406.09839337233126,438.2528309132505 M415.44322843379183,501.332623444078 L406.0873431517165,501.80714905849555 M408.68646446658903,497.4176841646582 L415.44322843379183,501.332623444078 M301.34251024222885,489.67118609114067 L315.62794197584685,493.5571040526152 M315.62794197584685,493.5571040526152 L330.5465955432263,496.555445685727 M330.5465955432263,496.555445685727 L345.9326362925677,498.6323835986874 M345.9326362925677,498.6323835986874 L361.61481815110636,499.7644559970664 M361.61481815110636,499.7644559970664 L377.41847315257763,499.9388698412189 M377.41847315257763,499.9388698412189 L393.1675071963969,499.1536558887156 M393.1675071963969,499.1536558887156 L408.68646446658903,497.4176841646582 M408.70215872984744,433.87114918351483 L408.68646446658903,497.4176841646582 M415.44322843379183,501.332623444078 L415.4710086668802,437.7791465167649 M415.9366301647991,438.589455527389 L415.8461814913068,437.9957526479402 M416.66687054832335,438.46957769592973 L416.42356796344785,438.50975708020655 M416.42356796344785,438.50975708020655 L416.18015888273015,438.5497163583474 M416.18015888273015,438.5497163583474 L415.9366301647991,438.589455527389 M415.8461814913068,437.9957526479402 L416.66687054832335,438.46957769592973 M415.90801748899645,502.1443714581951 L415.8177312219358,501.5496142524997 M415.8461814913068,437.9957526479402 L415.8177312219358,501.5496142524997 M415.9366301647991,438.589455527389 L415.90801748899645,502.1443714581951 M416.66687054832335,438.46957769592973 L416.6369545205845,502.0242807475946 M415.90801748899645,502.1443714581951 L416.1511115482337,502.1045617206276 M416.1511115482337,502.1045617206276 L416.3940861861206,502.06453148277296 M416.3940861861206,502.06453148277296 L416.6369545205845,502.0242807475946 M415.8177312219358,501.5496142524997 L416.6369545205845,502.0242807475946 M526.520830165136,374.9763995416072 L525.7001546192523,374.50594568201 M526.7246185388153,374.557515309619 L526.657070589428,374.6972065524798 M526.657070589428,374.6972065524798 L526.5891411163459,374.83683211685883 M526.5891411163459,374.83683211685883 L526.520830165136,374.9763995416072 M525.7001546192523,374.50594568201 L526.7246185388153,374.557515309619 M526.2956190801976,438.4179459504527 L525.4764092206174,437.94665063418137 M525.4764092206174,437.94665063418137 L525.7001546192523,374.50594568201 M526.520830165136,374.9763995416072 L526.2956190801976,438.4179459504527 M526.7246185388153,374.557515309619 L526.4990502807202,437.9983125017126 M526.2956190801976,438.4179459504527 L526.3638102924513,438.27812889918334 M526.3638102924513,438.27812889918334 L526.4316207077604,438.1382536003832 M526.4316207077604,438.1382536003832 L526.4990502807202,437.9983125017126 M525.4764092206174,437.94665063418137 L526.4990502807202,437.9983125017126 M504.8437282323973,308.93798099015146 L511.5692409730173,317.105006333598 M511.5692409730173,317.105006333598 L516.7755346877204,325.63595542580896 M516.7755346877204,325.63595542580896 L520.4034881264922,334.43803616810334 M520.4034881264922,334.43803616810334 L522.4110061984638,343.41523013598294 M522.4110061984638,343.41523013598294 L522.7736083341672,352.46932289810013 M522.7736083341672,352.46932289810013 L521.4848007204794,361.5009478906777 M521.4848007204794,361.5009478906777 L518.5562428996959,370.41068433549646 M525.324987919541,374.29088063863594 L518.5562428996959,370.41068433549646 M526.1038611546421,368.91691986617934 L525.324987919541,374.29088063863594 M529.0588236296214,369.0656232510086 L526.1038611546421,368.91691986617934 M511.9500813259488,304.8488297087182 L519.2823638009556,313.323090291283 M519.2823638009556,313.323090291283 L525.0624874680632,322.19080061404827 M525.0624874680632,322.19080061404827 L529.2269414556256,331.3586475771887 M529.2269414556256,331.3586475771887 L531.7290432286718,340.72987609827385 M531.7290432286718,340.72987609827385 L532.5395915510876,350.2052671348525 M532.5395915510876,350.2052671348525 L531.6472564247474,359.6841838367029 M531.6472564247474,359.6841838367029 L529.0588236296214,369.0656232510086 M504.8437282323973,308.93798099015146 L511.9500813259488,304.8488297087182 M518.5562428996959,370.41068433549646 L518.3452529149988,433.84406260117197 M504.6577681536652,372.2609760478272 L504.8437282323973,308.93798099015146 M518.3452529149988,433.84406260117197 L521.2687112754445,424.91837443298385 M521.2687112754445,424.91837443298385 L522.5553391621145,415.8705632266092 M522.5553391621145,415.8705632266092 L522.193492120367,406.80022754806896 M522.193492120367,406.80022754806896 L520.1896467524991,397.8069123711889 M520.1896467524991,397.8069123711889 L516.5682346719343,388.989009179135 M516.5682346719343,388.989009179135 L511.3712711759115,380.4427101757264 M511.3712711759115,380.4427101757264 L504.6577681536652,372.2609760478272 M525.1019125245218,437.7312009093459 L518.3452529149988,433.84406260117197 M525.324987919541,374.29088063863594 L525.1019125245218,437.7312009093459 M525.8794682304356,432.3476248529403 L525.1019125245218,437.7312009093459 M525.8794682304356,432.3476248529403 L526.1038611546421,368.91691986617934 M528.8291744694925,432.4965943812086 L525.8794682304356,432.3476248529403 M529.0588236296214,369.0656232510086 L528.8291744694925,432.4965943812086 M511.9500813259488,304.8488297087182 L511.75157366483296,368.1644551884069 M528.8291744694925,432.4965943812086 L531.4131282621679,423.09835574337677 M531.4131282621679,423.09835574337677 L532.3040032657232,413.6024473219121 M532.3040032657232,413.6024473219121 L531.4950196174045,404.1100528582672 M531.4950196174045,404.1100528582672 L528.9974810694173,394.7219900998984 M528.9974810694173,394.7219900998984 L524.8405311506745,385.53765718859194 M524.8405311506745,385.53765718859194 L519.0707641743927,376.6539845803405 M519.0707641743927,376.6539845803405 L511.75157366483296,368.1644551884069 M504.6577681536652,372.2609760478272 L511.75157366483296,368.1644551884069" stroke="black"  stroke-width="4"  fill="red"/>
<path d="M270.0893071989928,286.7531926410298 L282.79637159169334,280.67018607270285 M282.79637159169334,280.67018607270285 L296.5824456561695,275.42656297157737 M296.5824456561695,275.42656297157737 L311.28081539652305,271.08461052154746 M311.28081539652305,271.08461052154746 L326.71424353634933,267.6958352548392 M326.71424353634933,267.6958352548392 L342.69699228531925,265.3003672345568 M342.69699228531925,265.3003672345568 L359.03703722612806,263.92656583686465 M359.03703722612806,263.92656583686465 L375.53823374018543,263.59066639162506 M375.53823374018543,263.59066639162506 L392.0025813534252,264.2966468682739 M392.0025813534252,264.2966468682739 L408.232529745553,266.03615675355996 M408.232529745553,266.03615675355996 L424.0331883546505,268.7886213640792 M424.0331883546505,268.7886213640792 L439.2146176249141,272.5214627447232 M439.2146176249141,272.5214627447232 L453.5940016556778,277.19044637446234 M453.5940016556778,277.19044637446234 L466.9977779114369,282.7401582802829 M466.9977779114369,282.7401582802829 L479.26369439968244,289.10462550307875 M479.26369439968244,289.10462550307875 L490.2427075649633,296.2080319823778 M490.2427075649633,296.2080319823778 L499.8008086534828,303.96556818540296 M506.7886415096194,299.946405919632 L499.8008086534828,303.96556818540296 M263.280799153937,282.83717186831564 L276.6884618394302,276.39103573222656 M276.6884618394302,276.39103573222656 L291.23210934024866,270.82434167632505 M291.23210934024866,270.82434167632505 L306.7383411798904,266.20222565439923 M306.7383411798904,266.20222565439923 L323.02278359901345,262.5786623546278 M323.02278359901345,262.5786623546278 L339.8922968280798,259.9959309593081 M339.8922968280798,259.9959309593081 L357.14709148614935,258.48411366536345 M357.14709148614935,258.48411366536345 L374.5830336974054,258.06080958497 M374.5830336974054,258.06080958497 L391.99396542505457,258.73094963190727 M391.99396542505457,258.73094963190727 L409.17399351649533,260.48673504359465 M409.17399351649533,260.48673504359465 L425.9198446531937,263.3077232729795 M425.9198446531937,263.3077232729795 L442.03313284454384,267.1610358990933 M442.03313284454384,267.1610358990933 L457.3226329490548,272.0017164509733 M457.3226329490548,272.0017164509733 L471.60646402715514,277.77320379717474 M471.60646402715514,277.77320379717474 L484.7142055167455,284.4079341869401 M484.7142055167455,284.4079341869401 L496.4888179286598,291.82808958091994 M496.4888179286598,291.82808958091994 L506.7886415096194,299.946405919632 M270.0893071989928,286.7531926410298 L263.280799153937,282.83717186831564 M499.62383498222925,367.27960138666026 L499.8008086534828,303.96556818540296 M270.31907525512986,350.03616538244813 L270.0893071989928,286.7531926410298 M499.62383498222925,367.27960138666026 L490.0827374629945,359.5080737437046 M490.0827374629945,359.5080737437046 L479.123222977186,352.39184501222667 M479.123222977186,352.39184501222667 L466.87906170665764,346.01588078141083 M466.87906170665764,346.01588078141083 L453.4990334110596,340.4561370345594 M453.4990334110596,340.4561370345594 L439.1451042654139,335.77870880793125 M439.1451042654139,335.77870880793125 L423.9905322266803,332.03911284389034 M423.9905322266803,332.03911284389034 L408.21781333584937,329.28166585174256 M408.21781333584937,329.28166585174256 L392.0165555615986,327.5390064033578 M392.0165555615986,327.5390064033578 L375.58130973721734,326.8317475025191 M375.58130973721734,326.8317475025191 L359.10928207741193,327.1682552234824 M359.10928207741193,327.1682552234824 L342.7981281767462,328.54454418361905 M342.7981281767462,328.54454418361905 L326.8436507716687,330.94434880682644 M326.8436507716687,330.94434880682644 L311.43753910451187,334.3392569291428 M311.43753910451187,334.3392569291428 L296.7652060618766,338.68906388334415 M296.7652060618766,338.68906388334415 L283.003577975089,343.9421675472836 M283.003577975089,343.9421675472836 L270.31907525512986,350.03616538244813 M506.59933090583667,363.2531916951436 L499.62383498222925,367.27960138666026 M506.7886415096194,299.946405919632 L506.59933090583667,363.2531916951436 M263.280799153937,282.83717186831564 L263.52256417424667,346.1130696793951 M506.59933090583667,363.2531916951436 L496.31782914770633,355.12022637147385 M496.31782914770633,355.12022637147385 L484.5641257114766,347.6866702061606 M484.5641257114766,347.6866702061606 L471.4796283104256,341.039948159226 M471.4796283104256,341.039948159226 L457.2210987083572,335.2580221999309 M457.2210987083572,335.2580221999309 L441.95865755102983,330.4085813842314 M441.95865755102983,330.4085813842314 L425.87386695422134,326.5482919884633 M425.87386695422134,326.5482919884633 L409.15761789019126,323.72219421580394 M409.15761789019126,323.72219421580394 L392.0079504577179,321.96322781352137 M392.0079504577179,321.96322781352137 L374.62778409688866,321.29187349763436 M374.62778409688866,321.29187349763436 L357.22265378801313,321.7159445998348 M357.22265378801313,321.7159445998348 L339.99835893168523,323.23050099452865 M339.99835893168523,323.23050099452865 L323.1586780156436,325.8179107042897 M323.1586780156436,325.8179107042897 L306.9030520626402,329.4480354057888 M306.9030520626402,329.4480354057888 L291.42428329829187,334.07851714260823 M291.42428329829187,334.07851714260823 L276.90642224771744,339.6552808419854 M276.90642224771744,339.6552808419854 L263.52256417424667,346.1130696793951 M270.31907525512986,350.03616538244813 L263.52256417424667,346.1130696793951" stroke="black"  stroke-width="4"  fill="red"/>
<path d="M292.453209565164,423.2248096857365 L278.8622678985792,417.6957117965127 M278.8622678985792,417.6957117965127 L266.4239885353418,411.33819054386333 M266.4239885353418,411.33819054386333 L255.29013912203663,404.23133541182403 M255.29013912203663,404.23133541182403 L245.59595960707065,396.4633648173217 M245.59595960707065,396.4633648173217 L237.45852033153113,388.1304536264643 M237.45852033153113,388.1304536264643 L230.9753636885863,379.335502497143 M230.9753636885863,379.335502497143 L226.2233675203925,370.18680489708254 M226.2233675203925,370.18680489708254 L223.25791659650133,360.7966692382102 M223.25791659650133,360.7966692382102 L222.1123588856251,351.28002052273786 M222.1123588856251,351.28002052273786 L222.79773590637734,341.75294478134646 M222.79773590637734,341.75294478134646 L225.3027642520387,332.3312984789117 M225.3027642520387,332.3312984789117 L229.59416481200927,323.1292855868619 M229.59416481200927,323.1292855868619 L235.617130401262,314.25808645751636 M235.617130401262,314.25808645751636 L243.2961974152512,305.8245741699992 M243.2961974152512,305.8245741699992 L252.53619607582203,297.93003602116676 M252.53619607582203,297.93003602116676 L263.2235474866466,290.66903801646276 M256.41505287337066,286.75128103112905 L263.2235474866466,290.66903801646276 M285.3675631070132,427.3002309872325 L271.1382693872188,421.33908507352663 M271.1382693872188,421.33908507352663 L258.14050187660126,414.51737660418115 M258.14050187660126,414.51737660418115 L246.53066582698293,406.91888630980094 M246.53066582698293,406.91888630980094 L236.4477370578428,398.6367584233272 M236.4477370578428,398.6367584233272 L228.01168384885227,389.77221414396615 M228.01168384885227,389.77221414396615 L221.32204709360167,380.43329333555664 M221.32204709360167,380.43329333555664 L216.45683711209924,370.7334726465108 M216.45683711209924,370.7334726465108 L213.47171779125344,360.790242420708 M213.47171779125344,360.790242420708 L212.39945448576782,350.72363690156635 M212.39945448576782,350.72363690156635 L213.24968196997207,340.65478090778345 M213.24968196997207,340.65478090778345 L216.00893765914978,330.70440577808324 M216.00893765914978,330.70440577808324 L220.64099509662555,320.99142915665044 M220.64099509662555,320.99142915665044 L227.0874459931697,311.6315471104765 M227.0874459931697,311.6315471104765 L235.26847892653834,302.7358687411125 M235.26847892653834,302.7358687411125 L245.0840413098995,294.40969507018826 M245.0840413098995,294.40969507018826 L256.41505287337066,286.75128103112905 M292.453209565164,423.2248096857365 L285.3675631070132,427.3002309872325 M263.465520885604,353.9590822929061 L252.79719638811088,361.23318462059956 M252.79719638811088,361.23318462059956 L243.57368572782138,369.14195846743155 M243.57368572782138,369.14195846743155 L235.90836323656177,377.5906645270791 M235.90836323656177,377.5906645270791 L229.8962254692984,386.4778305536539 M229.8962254692984,386.4778305536539 L225.6125966378201,395.69638906700146 M225.6125966378201,395.69638906700146 L223.11218029638175,405.13495828856827 M223.11218029638175,405.13495828856827 L222.4281895233067,414.67912819821464 M222.4281895233067,414.67912819821464 L223.57188044389687,424.2128341816236 M223.57188044389687,424.2128341816236 L226.53222393308138,433.6197825309537 M226.53222393308138,433.6197825309537 L231.27592439754517,442.78484351126036 M231.27592439754517,442.78484351126036 L237.747689271544,451.5955094685652 M237.747689271544,451.5955094685652 L245.87077207291813,459.94329558794726 M245.87077207291813,459.94329558794726 L255.54779970094367,467.7251200917894 M255.54779970094367,467.7251200917894 L266.6619072098671,474.84463944549077 M266.6619072098671,474.84463944549077 L279.0780938574996,481.21348103526293 M279.0780938574996,481.21348103526293 L292.64486214418207,486.7524175565946 M263.465520885604,353.9590822929061 L263.2235474866466,290.66903801646276 M292.64486214418207,486.7524175565946 L292.453209565164,423.2248096857365 M256.66902316530764,350.03425031966333 L263.465520885604,353.9590822929061 M256.41505287337066,286.75128103112905 L256.66902316530764,350.03425031966333 M285.3675631070132,427.3002309872325 L285.57190008019916,490.8350868483605 M256.66902316530764,350.03425031966333 L245.35818511702706,357.7064916382418 M245.35818511702706,357.7064916382418 L235.56014006659294,366.0476848705113 M235.56014006659294,366.0476848705113 L227.393753706635,374.95939475131104 M227.393753706635,374.95939475131104 L220.95889634270978,384.33612773072247 M220.95889634270978,384.33612773072247 L216.3352317685067,394.066572379037 M216.3352317685067,394.066572379037 L213.5810576227861,404.0348228387531 M213.5810576227861,404.0348228387531 L212.73252838699014,414.12174677430664 M212.73252838699014,414.12174677430664 L213.80307472969787,424.20639585108074 M213.80307472969787,424.20639585108074 L216.78307098168676,434.1674285235071 M216.78307098168676,434.1674285235071 L221.6398023470236,443.8845967316624 M221.6398023470236,443.8845967316624 L228.31769689680993,453.2402017656133 M228.31769689680993,453.2402017656133 L236.73887701341303,462.1205665874411 M236.73887701341303,462.1205665874411 L246.80397407787595,470.4174613241901 M246.80397407787595,470.4174613241901 L258.39322991270444,478.02948744613906 M258.39322991270444,478.02948744613906 L271.3679142465126,484.8633381226449 M271.3679142465126,484.8633381226449 L285.57190008019916,490.8350868483605 M292.64486214418207,486.7524175565946 L285.57190008019916,490.8350868483605" stroke="black"  stroke-width="4"  fill="red"/>
<path d="M292.64486214418207,486.7524175565946 L196.24229685964187,542.3980988672364 M195.8772613461165,478.771989312703 L196.24229685964187,542.3980988672364 M292.453209565164,423.2248096857365 L195.8772613461165,478.771989312703 M292.64486214418207,486.7524175565946 L292.453209565164,423.2248096857365 M301.34251024222885,489.67118609114067 L298.40560185635735,488.73571002492264 M298.40560185635735,488.73571002492264 L295.5059077752114,487.7626193957486 M295.5059077752114,487.7626193957486 L292.64486214418207,486.7524175565946 M203.09568981291082,546.4066221877204 L200.98492750149518,544.9721992920647 M200.98492750149518,544.9721992920647 L198.69626161414203,543.6335822962074 M198.69626161414203,543.6335822962074 L196.24229685964187,542.3980988672364 M203.09568981291082,546.4066221877204 L301.34251024222885,489.67118609114067 M202.74285876956674,482.77344078555797 L200.62834102523058,481.3415481339841 M200.62834102523058,481.3415481339841 L198.33559949852116,480.0052927564213 M198.33559949852116,480.0052927564213 L195.8772613461165,478.771989312703 M202.74285876956674,482.77344078555797 L203.09568981291082,546.4066221877204 M301.1663693700702,426.1383961716871 L298.2242221149533,425.20458078589553 M298.2242221149533,425.20458078589553 L295.31935660520395,424.23321779688166 M295.31935660520395,424.23321779688166 L292.453209565164,423.2248096857365 M202.74285876956674,482.77344078555797 L301.1663693700702,426.1383961716871 M301.34251024222885,489.67118609114067 L301.1663693700702,426.1383961716871" stroke="black"  stroke-width="4"  fill="red"/>
<path d="M406.0873431517165,501.80714905849555 L406.09839337233126,438.2528309132505 M426.6465162149145,637.7251767654027 L426.6946957170552,573.9317600679294 M406.0873431517165,501.80714905849555 L426.6465162149145,637.7251767654027 M406.09839337233126,438.2528309132505 L426.6946957170552,573.9317600679294 M415.44322843379183,501.332623444078 L406.0873431517165,501.80714905849555 M415.4710086668802,437.7791465167649 L406.09839337233126,438.2528309132505 M415.44322843379183,501.332623444078 L415.4710086668802,437.7791465167649 M436.4144895988325,637.2259544218274 L436.48026797379924,573.4334091754793 M426.6465162149145,637.7251767654027 L436.4144895988325,637.2259544218274 M426.6946957170552,573.9317600679294 L436.48026797379924,573.4334091754793 M415.44322843379183,501.332623444078 L415.8177312219358,501.5496142524997 M435.0977348678822,628.5521843243474 L415.8177312219358,501.5496142524997 M435.0977348678822,628.5521843243474 L434.56147439587755,628.8656253986791 M434.56147439587755,628.8656253986791 L435.20203107250785,629.2391865801778 M436.4144895988325,637.2259544218274 L435.20203107250785,629.2391865801778 M415.8461814913068,437.9957526479402 L415.4710086668802,437.7791465167649 M435.1611100933926,564.7747881046153 L415.8461814913068,437.9957526479402 M434.6238849265361,565.0876814820949 L435.1611100933926,564.7747881046153 M435.26559656075887,565.4605899404237 L434.6238849265361,565.0876814820949 M436.48026797379924,573.4334091754793 L435.26559656075887,565.4605899404237 M415.8461814913068,437.9957526479402 L415.8177312219358,501.5496142524997 M435.26559656075887,565.4605899404237 L435.20203107250785,629.2391865801778 M435.0977348678822,628.5521843243474 L435.1611100933926,564.7747881046153 M434.56147439587755,628.8656253986791 L434.6238849265361,565.0876814820949" stroke="black"  stroke-width="4"  fill="red"/>
<path d="M525.4764092206174,437.94665063418137 L742.4477040645331,448.907945060007 M743.0584383466673,385.44768115269244 L742.4477040645331,448.907945060007 M525.7001546192523,374.50594568201 L743.0584383466673,385.44768115269244 M525.4764092206174,437.94665063418137 L525.7001546192523,374.50594568201 M757.8975834895728,444.06538014749594 L525.8794682304356,432.3476248529403 M757.1640403601859,449.6514120206145 L757.8975834895728,444.06538014749594 M743.6137774440845,448.9668567352252 L757.1640403601859,449.6514120206145 M743.6137774440845,448.9668567352252 L742.9732993489931,448.6007377247191 M742.9732993489931,448.6007377247191 L742.4477040645331,448.907945060007 M525.4764092206174,437.94665063418137 L525.1019125245218,437.7312009093459 M525.8794682304356,432.3476248529403 L525.1019125245218,437.7312009093459 M743.0584383466673,385.44768115269244 L743.5849601862585,385.14102166078806 M742.9732993489931,448.6007377247191 L743.5849601862585,385.14102166078806 M758.5356905791132,380.6137541874784 L526.1038611546421,368.91691986617934 M757.801039882886,386.1898223653449 L758.5356905791132,380.6137541874784 M744.2265928163165,385.5064877727697 L757.801039882886,386.1898223653449 M743.5849601862585,385.14102166078806 L744.2265928163165,385.5064877727697 M525.324987919541,374.29088063863594 L525.7001546192523,374.50594568201 M526.1038611546421,368.91691986617934 L525.324987919541,374.29088063863594 M525.324987919541,374.29088063863594 L525.1019125245218,437.7312009093459 M757.8975834895728,444.06538014749594 L758.5356905791132,380.6137541874784 M525.8794682304356,432.3476248529403 L526.1038611546421,368.91691986617934 M757.1640403601859,449.6514120206145 L757.801039882886,386.1898223653449 M743.6137774440845,448.9668567352252 L744.2265928163165,385.5064877727697" stroke="black"  stroke-width="4"  fill="red"/>
<path d="M270.31907525512986,350.03616538244813 L270.0893071989928,286.7531926410298 M151.81607559814543,281.63362719475174 L151.3778957519822,218.4744522608521 M270.31907525512986,350.03616538244813 L151.81607559814543,281.63362719475174 M270.0893071989928,286.7531926410298 L151.3778957519822,218.4744522608521 M144.962849561871,285.52632582524416 L144.51246611890173,222.36008065045004 M151.81607559814543,281.63362719475174 L144.962849561871,285.52632582524416 M151.3778957519822,218.4744522608521 L144.51246611890173,222.36008065045004 M263.465520885604,353.9590822929061 L263.2235474866466,290.66903801646276 M144.962849561871,285.52632582524416 L263.465520885604,353.9590822929061 M144.51246611890173,222.36008065045004 L263.2235474866466,290.66903801646276 M263.465520885604,353.9590822929061 L265.70148382923145,352.62322303089854 M265.70148382923145,352.62322303089854 L267.9863542989147,351.3153865122516 M267.9863542989147,351.3153865122516 L270.31907525512986,350.03616538244813 M263.2235474866466,290.66903801646276 L265.4634937523555,289.3355864582783 M265.4634937523555,289.3355864582783 L267.75243329693274,288.03010748147364 M267.75243329693274,288.03010748147364 L270.0893071989928,286.7531926410298" stroke="black"  stroke-width="4"  fill="red"/>
<path d="M504.6577681536652,372.2609760478272 L601.0077368338809,316.6209312394908 M601.3636239614307,253.3983180845285 L601.0077368338809,316.6209312394908 M504.8437282323973,308.93798099015146 L601.3636239614307,253.3983180845285 M504.6577681536652,372.2609760478272 L504.8437282323973,308.93798099015146 M499.62383498222925,367.27960138666026 L501.365485546696,368.91823671711035 M501.365485546696,368.91823671711035 L503.0437495193767,370.5789624140398 M503.0437495193767,370.5789624140398 L504.6577681536652,372.2609760478272 M594.1543365236428,312.71451644952526 L596.2688026940887,314.11200154803953 M596.2688026940887,314.11200154803953 L598.557471032638,315.4165488668913 M598.557471032638,315.4165488668913 L601.0077368338809,316.6209312394908 M594.1543365236428,312.71451644952526 L499.62383498222925,367.27960138666026 M594.4980191284596,249.49897419975116 L596.616253946383,250.89392939487112 M596.616253946383,250.89392939487112 L598.9089979417977,252.19611540990428 M598.9089979417977,252.19611540990428 L601.3636239614307,253.3983180845285 M594.4980191284596,249.49897419975116 L594.1543365236428,312.71451644952526 M499.8008086534828,303.96556818540296 L501.5455669228497,305.6012549444932 M501.5455669228497,305.6012549444932 L503.22682688250154,307.25899286754765 M503.22682688250154,307.25899286754765 L504.8437282323973,308.93798099015146 M594.4980191284596,249.49897419975116 L499.8008086534828,303.96556818540296 M499.62383498222925,367.27960138666026 L499.8008086534828,303.96556818540296" stroke="black"  stroke-width="4"  fill="red"/></svg>